0
SECTION
2
HEADER
9
$INSUNITS
70
4
9
$ACADVER
1
AC1014
9
$HANDSEED
5
FFFF
0
ENDSEC
0
SECTION
2
TABLES
0
TABLE
2
VPORT
5
8
100
AcDbSymbolTable
0
ENDTAB
0
TABLE
2
LTYPE
5
5
100
AcDbSymbolTable
0
LTYPE
5
14
100
AcDbSymbolTableRecord
100
AcDbLinetypeTableRecord
2
BYBLOCK
70
0
0
LTYPE
5
15
100
AcDbSymbolTableRecord
100
AcDbLinetypeTableRecord
2
BYLAYER
70
0
0
ENDTAB
0
TABLE
2
LAYER
5
2
100
AcDbSymbolTable
70
2
0
LAYER
5
50
100
AcDbSymbolTableRecord
100
AcDbLayerTableRecord
2
0
70
0
6
CONTINUOUS
0
ENDTAB
0
TABLE
2
STYLE
5
3
100
AcDbSymbolTable
70
1
0
STYLE
5
11
100
AcDbSymbolTableRecord
100
AcDbTextStyleTableRecord
2
STANDARD
70
0
0
ENDTAB
0
TABLE
2
VIEW
5
6
100
AcDbSymbolTable
70
0
0
ENDTAB
0
TABLE
2
UCS
5
7
100
AcDbSymbolTable
70
0
0
ENDTAB
0
TABLE
2
APPID
5
9
100
AcDbSymbolTable
70
2
0
APPID
5
12
100
AcDbSymbolTableRecord
100
AcDbRegAppTableRecord
2
ACAD
70
0
0
ENDTAB
0
TABLE
2
DIMSTYLE
5
A
100
AcDbSymbolTable
70
1
0
ENDTAB
0
TABLE
2
BLOCK_RECORD
5
1
100
AcDbSymbolTable
70
1
0
BLOCK_RECORD
5
1F
100
AcDbSymbolTableRecord
100
AcDbBlockTableRecord
2
*MODEL_SPACE
0
BLOCK_RECORD
5
1B
100
AcDbSymbolTableRecord
100
AcDbBlockTableRecord
2
*PAPER_SPACE
0
ENDTAB
0
ENDSEC
0
SECTION
2
BLOCKS
0
BLOCK
5
20
100
AcDbEntity
100
AcDbBlockBegin
2
*MODEL_SPACE
0
ENDBLK
5
21
100
AcDbEntity
100
AcDbBlockEnd
0
BLOCK
5
1C
100
AcDbEntity
100
AcDbBlockBegin
2
*PAPER_SPACE
0
ENDBLK
5
1D
100
AcDbEntity
100
AcDbBlockEnd
0
ENDSEC
0
SECTION
2
ENTITIES
0
SPLINE
5
100
100
AcDbEntity
8
0
100
AcDbSpline
70
0
71
3
72
9
73
5
74
0
42
0.000000001
43
0.0000000001
44
0.0000000001
40
0
40
0
40
0
40
0
40
0.027485437468741453
40
0.04995690270029806
40
0.04995690270029806
40
0.04995690270029806
40
0.04995690270029806
10
-53.79529287397736
20
31.277894376760429
30
0
10
-53.888359499778787
20
31.275956941581796
30
0
10
-54.057515270906478
20
31.27243550369975
30
0
10
-54.207583454629713
20
31.195537523609321
30
0
10
-54.275086678220873
20
31.16094750316018
30
0
0
SPLINE
5
101
100
AcDbEntity
8
0
100
AcDbSpline
70
0
71
3
72
9
73
5
74
0
42
0.000000001
43
0.0000000001
44
0.0000000001
40
0
40
0
40
0
40
0
40
0.022766961184805642
40
0.051279378858881487
40
0.051279378858881487
40
0.051279378858881487
40
0.051279378858881487
10
-54.275086678220873
20
31.16094750316018
30
0
10
-54.331595545242415
20
31.108871043986071
30
0
10
-54.458873822627005
20
30.99157614204718
30
0
10
-54.521765717568904
20
30.829613782175166
30
0
10
-54.556734939443302
20
30.739559289415837
30
0
0
LINE
5
102
100
AcDbEntity
8
0
100
AcDbLine
10
-54.556734939443309
20
30.739559289415844
30
0
11
-55.598870269444546
21
30.936072496244922
31
0
0
SPLINE
5
103
100
AcDbEntity
8
0
100
AcDbSpline
70
0
71
3
72
9
73
5
74
0
42
0.000000001
43
0.0000000001
44
0.0000000001
40
0
40
0
40
0
40
0
40
0.059841640783952557
40
0.11296295213693845
40
0.11296295213693845
40
0.11296295213693845
40
0.11296295213693845
10
-55.598870269444546
20
30.936072496244925
30
0
10
-55.532831008346271
20
31.128523830938665
30
0
10
-55.40816882006277
20
31.491813851481162
30
0
10
-55.120880213291969
20
31.745233880105385
30
0
10
-54.985781517305895
20
31.864405732371704
30
0
0
SPLINE
5
104
100
AcDbEntity
8
0
100
AcDbSpline
70
0
71
3
72
9
73
5
74
0
42
0.000000001
43
0.0000000001
44
0.0000000001
40
0
40
0
40
0
40
0
40
0.058040175899504595
40
0.13270884047522691
40
0.13270884047522691
40
0.13270884047522691
40
0.13270884047522691
10
-54.985781517305895
20
31.864405732371704
30
0
10
-54.810212319005601
20
31.95100371721356
30
0
10
-54.408773412791064
20
32.149009977148971
30
0
10
-53.95935050109636
20
32.154228783845596
30
0
10
-53.706482579669213
20
32.157165146828802
30
0
0
SPLINE
5
105
100
AcDbEntity
8
0
100
AcDbSpline
70
0
71
3
72
9
73
5
74
0
42
0.000000001
43
0.0000000001
44
0.0000000001
40
0
40
0
40
0
40
0
40
0.067275643058142473
40
0.1166777349147247
40
0.1166777349147247
40
0.1166777349147247
40
0.1166777349147247
10
-53.706482579669213
20
32.157165146828802
30
0
10
-53.480392712489788
20
32.153700560742571
30
0
10
-53.088279721955168
20
32.147691847357109
30
0
10
-52.718535449372325
20
32.020033435610905
30
0
10
-52.561983382853953
20
31.965982055645732
30
0
0
SPLINE
5
106
100
AcDbEntity
8
0
100
AcDbSpline
70
0
71
3
72
9
73
5
74
0
42
0.000000001
43
0.0000000001
44
0.0000000001
40
0
40
0
40
0
40
0
40
0.038159217047311011
40
0.071206951282220071
40
0.071206951282220071
40
0.071206951282220071
40
0.071206951282220071
10
-52.561983382853953
20
31.965982055645732
30
0
10
-52.448474914858146
20
31.90410786004
30
0
10
-52.236662603806899
20
31.788647607628082
30
0
10
-52.09936393178468
20
31.591036218109942
30
0
10
-52.035642484059544
20
31.499323140032729
30
0
0
SPLINE
5
107
100
AcDbEntity
8
0
100
AcDbSpline
70
0
71
3
72
9
73
5
74
0
42
0.000000001
43
0.0000000001
44
0.0000000001
40
0
40
0
40
0
40
0
40
0.041384125554060312
40
0.10468264223224391
40
0.10468264223224391
40
0.10468264223224391
40
0.10468264223224391
10
-52.035642484059544
20
31.499323140032729
30
0
10
-51.99238246164856
20
31.367499339627003
30
0
10
-51.882954670475527
20
31.034046269136454
30
0
10
-51.887536627391448
20
30.681801952190245
30
0
10
-51.8903072020548
20
30.468810167730425
30
0
0
LINE
5
108
100
AcDbEntity
8
0
100
AcDbLine
10
-51.8903072020548
20
30.468810167730425
30
0
11
-51.913197956624721
21
29.126520571828749
31
0
0
SPLINE
5
109
100
AcDbEntity
8
0
100
AcDbSpline
70
0
71
3
72
9
73
5
74
0
42
0.000000001
43
0.0000000001
44
0.0000000001
40
0
40
0
40
0
40
0
40
0.049797502807658121
40
0.084781138209114482
40
0.084781138209114482
40
0.084781138209114482
40
0.084781138209114482
10
-51.913197956624721
20
29.126520571828749
30
0
10
-51.914330303119783
20
28.960272082962149
30
0
10
-51.916258143258077
20
28.677231060481645
30
0
10
-51.87971123059598
20
28.396707134949452
30
0
10
-51.864630708033687
20
28.280953242757093
30
0
0
SPLINE
5
110
100
AcDbEntity
8
0
100
AcDbSpline
70
0
71
3
72
9
73
5
74
0
42
0.000000001
43
0.0000000001
44
0.0000000001
40
0
40
0
40
0
40
0
40
0.029283072156602044
40
0.061998096621777084
40
0.061998096621777084
40
0.061998096621777084
40
0.061998096621777084
10
-51.864630708033687
20
28.280953242757093
30
0
10
-51.841682868317882
20
28.185847644989735
30
0
10
-51.793097720681978
20
27.984490150526046
30
0
10
-51.707651400521982
20
27.795725003145179
30
0
10
-51.662563267066105
20
27.696117809517744
30
0
0
LINE
5
111
100
AcDbEntity
8
0
100
AcDbLine
10
-51.662563267066119
20
27.696117809517741
30
0
11
-52.800317192105624
21
27.705113624852068
31
0
0
SPLINE
5
112
100
AcDbEntity
8
0
100
AcDbSpline
70
0
71
3
72
9
73
5
74
0
42
0.000000001
43
0.0000000001
44
0.0000000001
40
0
40
0
40
0
40
0
40
0.015080193230122288
40
0.035729943451988294
40
0.035729943451988294
40
0.035729943451988294
40
0.035729943451988294
10
-52.800317192105624
20
27.705113624852061
30
0
10
-52.817080427519855
20
27.752515608944186
30
0
10
-52.856798052107472
20
27.864826518047167
30
0
10
-52.889330672157442
20
27.979438105828432
30
0
10
-52.908132562482216
20
28.045676684218424
30
0
0
SPLINE
5
113
100
AcDbEntity
8
0
100
AcDbSpline
70
0
71
3
72
9
73
5
74
0
42
0.000000001
43
0.0000000001
44
0.0000000001
40
0
40
0
40
0
40
0
40
0.0088404178810756063
40
0.014114555350136939
40
0.014114555350136939
40
0.014114555350136939
40
0.014114555350136939
10
-52.908132562482216
20
28.045676684218424
30
0
10
-52.915791713728595
20
28.074139305658417
30
0
10
-52.928020266231016
20
28.119582547270863
30
0
10
-52.94255894381871
20
28.164334786058003
30
0
10
-52.947991561589077
20
28.181057201575634
30
0
0
SPLINE
5
114
100
AcDbEntity
8
0
100
AcDbSpline
70
0
71
3
72
9
73
5
74
0
42
0.000000001
43
0.0000000001
44
0.0000000001
40
0
40
0
40
0
40
0
40
0.039473077415576846
40
0.076612074715032286
40
0.076612074715032286
40
0.076612074715032286
40
0.076612074715032286
10
-52.947991561589077
20
28.181057201575634
30
0
10
-53.046813961171338
20
28.093090879532422
30
0
10
-53.238615299096111
20
27.922359766631612
30
0
10
-53.469654934684137
20
27.810526459385226
30
0
10
-53.581655300606698
20
27.756313374682033
30
0
0
SPLINE
5
115
100
AcDbEntity
8
0
100
AcDbSpline
70
0
71
3
72
9
73
5
74
0
42
0.000000001
43
0.0000000001
44
0.0000000001
40
0
40
0
40
0
40
0
40
0.036311997903125393
40
0.073422430576587122
40
0.073422430576587122
40
0.073422430576587122
40
0.073422430576587122
10
-53.581655300606698
20
27.756313374682033
30
0
10
-53.696402583863268
20
27.71544021024285
30
0
10
-53.928420234371906
20
27.632795154840295
30
0
10
-54.174581465270123
20
27.623454539116345
30
0
10
-54.299000525144962
20
27.618733443829381
30
0
0
SPLINE
5
116
100
AcDbEntity
8
0
100
AcDbSpline
70
0
71
3
72
9
73
5
74
0
42
0.000000001
43
0.0000000001
44
0.0000000001
40
0
40
0
40
0
40
0
40
0.060697198906705073
40
0.11401577612657633
40
0.11401577612657633
40
0.11401577612657633
40
0.11401577612657633
10
-54.299000525144962
20
27.618733443829381
30
0
10
-54.505939157173408
20
27.631210612343814
30
0
10
-54.894660039953521
20
27.654648169227158
30
0
10
-55.20768466385816
20
27.884060506973913
30
0
10
-55.354068156988546
20
27.991343374844433
30
0
0
SPLINE
5
117
100
AcDbEntity
8
0
100
AcDbSpline
70
0
71
3
72
9
73
5
74
0
42
0.000000001
43
0.0000000001
44
0.0000000001
40
0
40
0
40
0
40
0
40
0.050415636194479599
40
0.10217937484553435
40
0.10217937484553435
40
0.10217937484553435
40
0.10217937484553435
10
-55.354068156988546
20
27.991343374844433
30
0
10
-55.465833493627827
20
28.122859897003742
30
0
10
-55.692352746169796
20
28.389409662720453
30
0
10
-55.719692061608953
20
28.738432151523856
30
0
10
-55.733542069807093
20
28.915245808106427
30
0
0
SPLINE
5
118
100
AcDbEntity
8
0
100
AcDbSpline
70
0
71
3
72
9
73
5
74
0
42
0.000000001
43
0.0000000001
44
0.0000000001
40
0
40
0
40
0
40
0
40
0.035116458281102804
40
0.068670793663882845
40
0.068670793663882845
40
0.068670793663882845
40
0.068670793663882845
10
-55.733542069807093
20
28.915245808106427
30
0
10
-55.725964595800534
20
29.033499134076735
30
0
10
-55.711146724652131
20
29.264745397090259
30
0
10
-55.604483227830677
20
29.470289378445528
30
0
10
-55.552364669787423
20
29.570723512352064
30
0
0
SPLINE
5
119
100
AcDbEntity
8
0
100
AcDbSpline
70
0
71
3
72
9
73
5
74
0
42
0.000000001
43
0.0000000001
44
0.0000000001
40
0
40
0
40
0
40
0
40
0.033098814784000265
40
0.066939932771650459
40
0.066939932771650459
40
0.066939932771650459
40
0.066939932771650459
10
-55.552364669787423
20
29.570723512352064
30
0
10
-55.486527515308275
20
29.661034286697134
30
0
10
-55.353376684274821
20
29.843681224439962
30
0
10
-55.155661016281243
20
29.953374633042063
30
0
10
-55.055706938475367
20
30.008829537600068
30
0
0
SPLINE
5
120
100
AcDbEntity
8
0
100
AcDbSpline
70
0
71
3
72
9
73
5
74
0
42
0.000000001
43
0.0000000001
44
0.0000000001
40
0
40
0
40
0
40
0
40
0.041309920641800772
40
0.095500735905078932
40
0.095500735905078932
40
0.095500735905078932
40
0.095500735905078932
10
-55.055706938475367
20
30.008829537600068
30
0
10
-54.927278677833428
20
30.059267188067395
30
0
10
-54.630376790544297
20
30.175869511725189
30
0
10
-54.316811241362714
20
30.235709464495891
30
0
10
-54.138882007754333
20
30.269664970652244
30
0
0
SPLINE
5
121
100
AcDbEntity
8
0
100
AcDbSpline
70
0
71
3
72
9
73
5
74
0
42
0.000000001
43
0.0000000001
44
0.0000000001
40
0
40
0
40
0
40
0
40
0.06979774933376412
40
0.11536304604270201
40
0.11536304604270201
40
0.11536304604270201
40
0.11536304604270201
10
-54.138882007754333
20
30.269664970652244
30
0
10
-53.90941501831886
20
30.310358227610912
30
0
10
-53.530147619008616
20
30.377616815759684
30
0
10
-53.163983212429862
20
30.496333621789461
30
0
10
-53.019358131848705
20
30.543223563383776
30
0
0
LINE
5
122
100
AcDbEntity
8
0
100
AcDbLine
10
-53.019358131848719
20
30.543223563383776
30
0
11
-53.018452079471928
21
30.657817361684209
31
0
0
SPLINE
5
123
100
AcDbEntity
8
0
100
AcDbSpline
70
0
71
3
72
9
73
5
74
0
42
0.000000001
43
0.0000000001
44
0.0000000001
40
0
40
0
40
0
40
0
40
0.028687051847677243
40
0.051206642716281378
40
0.051206642716281378
40
0.051206642716281378
40
0.051206642716281378
10
-53.018452079471928
20
30.657817361684209
30
0
10
-53.020531499765731
20
30.75653970247442
30
0
10
-53.024243283486399
20
30.93275995890933
30
0
10
-53.13132704612012
20
31.071011684783969
30
0
10
-53.178420204258671
20
31.13181184934124
30
0
0
SPLINE
5
124
100
AcDbEntity
8
0
100
AcDbSpline
70
0
71
3
72
9
73
5
74
0
42
0.000000001
43
0.0000000001
44
0.0000000001
40
0
40
0
40
0
40
0
40
0.02589975930245951
40
0.064227756419655599
40
0.064227756419655599
40
0.064227756419655599
40
0.064227756419655599
10
-53.178420204258671
20
31.13181184934124
30
0
10
-53.255433291432468
20
31.173236398043219
30
0
10
-53.446414904286868
20
31.275963446304715
30
0
10
-53.664907270484662
20
31.277172733221299
30
0
10
-53.79529287397736
20
31.277894376760429
30
0
0
SPLINE
5
125
100
AcDbEntity
8
0
100
AcDbSpline
70
0
71
3
72
9
73
5
74
0
42
0.000000001
43
0.0000000001
44
0.0000000001
40
0
40
0
40
0
40
0
40
0.025134855091168303
40
0.048481853597873291
40
0.048481853597873291
40
0.048481853597873291
40
0.048481853597873291
10
-43.868246604663234
20
28.395769742260796
30
0
10
-43.782977748540468
20
28.400277364665627
30
0
10
-43.618505258684941
20
28.40897197972161
30
0
10
-43.479660915137273
20
28.497082394353598
30
0
10
-43.412798812290333
20
28.539512985722908
30
0
0
SPLINE
5
126
100
AcDbEntity
8
0
100
AcDbSpline
70
0
71
3
72
9
73
5
74
0
42
0.000000001
43
0.0000000001
44
0.0000000001
40
0
40
0
40
0
40
0
40
0.025127252949963239
40
0.055681473413957919
40
0.055681473413957919
40
0.055681473413957919
40
0.055681473413957919
10
-43.412798812290333
20
28.539512985722908
30
0
10
-43.353484961300595
20
28.600166499956245
30
0
10
-43.222046692917608
20
28.734573434409917
30
0
10
-43.163094460841776
20
28.913742831239666
30
0
10
-43.130745469601941
20
29.012058858375624
30
0
0
LINE
5
127
100
AcDbEntity
8
0
100
AcDbLine
10
-43.130745469601941
20
29.012058858375624
30
0
11
-41.986326570547675
21
28.810644646975256
31
0
0
SPLINE
5
128
100
AcDbEntity
8
0
100
AcDbSpline
70
0
71
3
72
9
73
5
74
0
42
0.000000001
43
0.0000000001
44
0.0000000001
40
0
40
0
40
0
40
0
40
0.062395379771572453
40
0.12020638855798299
40
0.12020638855798299
40
0.12020638855798299
40
0.12020638855798299
10
-41.986326570547675
20
28.810644646975263
30
0
10
-42.068957718161798
20
28.616028599993982
30
0
10
-42.228148861375594
20
28.241095516026959
30
0
10
-42.541169402404719
20
27.981354739792813
30
0
10
-42.691710762683869
20
27.856437283431347
30
0
0
SPLINE
5
129
100
AcDbEntity
8
0
100
AcDbSpline
70
0
71
3
72
9
73
5
74
0
42
0.000000001
43
0.0000000001
44
0.0000000001
40
0
40
0
40
0
40
0
40
0.059081870639000486
40
0.125234479451378
40
0.125234479451378
40
0.125234479451378
40
0.125234479451378
10
-42.691710762683869
20
27.856437283431347
30
0
10
-42.86745561668782
20
27.761811772038119
30
0
10
-43.239977933083736
20
27.561236256503776
30
0
10
-43.663567477171
20
27.544992455865504
30
0
10
-43.887320181136985
20
27.536411993089143
30
0
0
SPLINE
5
130
100
AcDbEntity
8
0
100
AcDbSpline
70
0
71
3
72
9
73
5
74
0
42
0.000000001
43
0.0000000001
44
0.0000000001
40
0
40
0
40
0
40
0
40
0.10035924258055622
40
0.18907811527628038
40
0.18907811527628038
40
0.18907811527628038
40
0.18907811527628038
10
-43.887320181136985
20
27.536411993089143
30
0
10
-44.233956967646208
20
27.561670630975044
30
0
10
-44.887025171364257
20
27.609258232506395
30
0
10
-45.344697746533299
20
28.072898982400861
30
0
10
-45.559445999515475
20
28.29044761094697
30
0
0
SPLINE
5
131
100
AcDbEntity
8
0
100
AcDbSpline
70
0
71
3
72
9
73
5
74
0
42
0.000000001
43
0.0000000001
44
0.0000000001
40
0
40
0
40
0
40
0
40
0.074458615539480577
40
0.15782773529262761
40
0.15782773529262761
40
0.15782773529262761
40
0.15782773529262761
10
-45.559445999515475
20
28.29044761094697
30
0
10
-45.682947566940022
20
28.509887888259055
30
0
10
-45.944730203515789
20
28.975028983741666
30
0
10
-45.966062151791142
20
29.509453649338887
30
0
10
-45.977330296436556
20
29.791752029041305
30
0
0
SPLINE
5
132
100
AcDbEntity
8
0
100
AcDbSpline
70
0
71
3
72
9
73
5
74
0
42
0.000000001
43
0.0000000001
44
0.0000000001
40
0
40
0
40
0
40
0
40
0.097362874523228574
40
0.18167868359555811
40
0.18167868359555811
40
0.18167868359555811
40
0.18167868359555811
10
-45.977330296436556
20
29.791752029041305
30
0
10
-45.958717719728639
20
30.123579354255519
30
0
10
-45.923986735755811
20
30.742767642616599
30
0
10
-45.565525255492467
20
31.246032308637197
30
0
10
-45.399165784301267
20
31.479593927717964
30
0
0
SPLINE
5
133
100
AcDbEntity
8
0
100
AcDbSpline
70
0
71
3
72
9
73
5
74
0
42
0.000000001
43
0.0000000001
44
0.0000000001
40
0
40
0
40
0
40
0
40
0.078711136426011602
40
0.15906867793672319
40
0.15906867793672319
40
0.15906867793672319
40
0.15906867793672319
10
-45.399165784301267
20
31.479593927717964
30
0
10
-45.195583371674331
20
31.656446265529048
30
0
10
-44.784160202118471
20
32.013850171037021
30
0
10
-44.240592967095296
20
32.057898478777659
30
0
10
-43.96599631350638
20
32.080150588769747
30
0
0
SPLINE
5
134
100
AcDbEntity
8
0
100
AcDbSpline
70
0
71
3
72
9
73
5
74
0
42
0.000000001
43
0.0000000001
44
0.0000000001
40
0
40
0
40
0
40
0
40
0.088232071837545667
40
0.17010886868035888
40
0.17010886868035888
40
0.17010886868035888
40
0.17010886868035888
10
-43.96599631350638
20
32.080150588769747
30
0
10
-43.663719127795495
20
32.055292215662085
30
0
10
-43.080937504081199
20
32.007365995201511
30
0
10
-42.648534977931675
20
31.615947487864741
30
0
10
-42.440411003781989
20
31.427549940727154
30
0
0
SPLINE
5
135
100
AcDbEntity
8
0
100
AcDbSpline
70
0
71
3
72
9
73
5
74
0
42
0.000000001
43
0.0000000001
44
0.0000000001
40
0
40
0
40
0
40
0
40
0.091062972858449484
40
0.20686519350612503
40
0.20686519350612503
40
0.20686519350612503
40
0.20686519350612503
10
-42.440411003781989
20
31.427549940727154
30
0
10
-42.280990018958953
20
31.162935783833451
30
0
10
-41.91883785283521
20
30.561819248187682
30
0
10
-41.919450208941797
20
29.856002068929797
30
0
10
-41.919793003182676
20
29.460888732829002
30
0
0
LINE
5
136
100
AcDbEntity
8
0
100
AcDbLine
10
-41.919793003182676
20
29.460888732828998
30
0
11
-44.801011738887475
21
29.483669503884819
31
0
0
SPLINE
5
137
100
AcDbEntity
8
0
100
AcDbSpline
70
0
71
3
72
9
73
5
74
0
42
0.000000001
43
0.0000000001
44
0.0000000001
40
0
40
0
40
0
40
0
40
0.046106850814274881
40
0.085791173952023014
40
0.085791173952023014
40
0.085791173952023014
40
0.085791173952023014
10
-44.801011738887475
20
29.483669503884819
30
0
10
-44.791314890395256
20
29.326758447106336
30
0
10
-44.773271931462034
20
29.034793510674138
30
0
10
-44.606260269628343
20
28.795937867529627
30
0
10
-44.529005880270205
20
28.685450691644583
30
0
0
SPLINE
5
138
100
AcDbEntity
8
0
100
AcDbSpline
70
0
71
3
72
9
73
5
74
0
42
0.000000001
43
0.0000000001
44
0.0000000001
40
0
40
0
40
0
40
0
40
0.036712052364278831
40
0.073825293835155625
40
0.073825293835155625
40
0.073825293835155625
40
0.073825293835155625
10
-44.529005880270205
20
28.685450691644583
30
0
10
-44.435174660442023
20
28.601743000892306
30
0
10
-44.246486833730742
20
28.433412862202974
30
0
10
-43.994782626764646
20
28.40836282541515
30
0
10
-43.868246604663234
20
28.395769742260796
30
0
0
LWPOLYLINE
5
139
100
AcDbEntity
8
0
100
AcDbPolyline
90
13
70
1
43
0.0
10
-59.096537874589991
20
22.876160752513414
10
-60.322962346697921
20
18.400042348947572
10
-61.636700041219186
20
18.410429605310796
10
-63.021686255093044
20
24.421567978914446
10
-61.781615927167664
20
24.41176318419911
10
-60.909727650849099
20
20.283321459271999
10
-59.780314250788152
20
24.395939604150065
10
-58.339704286907939
20
24.38454921390958
10
-57.321031162641987
20
20.185368236833074
10
-56.367050985600059
20
24.368952146365661
10
-55.147443368300245
20
24.359309143020123
10
-56.651862215795603
20
18.371016266835621
10
-57.936951833259144
20
18.38117701305001
0
LWPOLYLINE
5
140
100
AcDbEntity
8
0
100
AcDbPolyline
90
4
70
1
43
0.0
10
-53.474348371767668
20
22.692549555840898
10
-53.508713691352426
20
18.34616451016667
10
-54.658745789436558
20
18.355257404645187
10
-54.624380469851786
20
22.701642450319419
0
LINE
5
141
100
AcDbEntity
8
0
100
AcDbLine
10
-49.542943069643783
20
18.314808573363443
30
0
11
-49.495504686069587
21
24.314621275505644
31
0
0
LINE
5
142
100
AcDbEntity
8
0
100
AcDbLine
10
-49.495504686069587
20
24.314621275505644
30
0
11
-48.345472587985455
21
24.305528381027127
31
0
0
LINE
5
143
100
AcDbEntity
8
0
100
AcDbLine
10
-48.345472587985455
20
24.305528381027127
30
0
11
-48.36291411921227
21
22.099594858108148
31
0
0
SPLINE
5
144
100
AcDbEntity
8
0
100
AcDbSpline
70
0
71
3
72
9
73
5
74
0
42
0.000000001
43
0.0000000001
44
0.0000000001
40
0
40
0
40
0
40
0
40
0.078187987934636216
40
0.15193534310399759
40
0.15193534310399759
40
0.15193534310399759
40
0.15193534310399759
10
-48.36291411921227
20
22.099594858108148
30
0
10
-48.17082214229459
20
22.287836119765004
30
0
10
-47.797547919597989
20
22.653627610653267
30
0
10
-47.279239920933293
20
22.711645790358837
30
0
10
-47.027660247081606
20
22.739807028011736
30
0
0
SPLINE
5
145
100
AcDbEntity
8
0
100
AcDbSpline
70
0
71
3
72
9
73
5
74
0
42
0.000000001
43
0.0000000001
44
0.0000000001
40
0
40
0
40
0
40
0
40
0.037935099432350412
40
0.073559906691132299
40
0.073559906691132299
40
0.073559906691132299
40
0.073559906691132299
10
-47.027660247081606
20
22.739807028011736
30
0
10
-46.900399336387551
20
22.733470434608268
30
0
10
-46.65362785414122
20
22.721183153792516
30
0
10
-46.423879459153
20
22.630653089458519
30
0
10
-46.312613109620543
20
22.586809693808693
30
0
0
SPLINE
5
146
100
AcDbEntity
8
0
100
AcDbSpline
70
0
71
3
72
9
73
5
74
0
42
0.000000001
43
0.0000000001
44
0.0000000001
40
0
40
0
40
0
40
0
40
0.032629780828789028
40
0.061611326287254339
40
0.061611326287254339
40
0.061611326287254339
40
0.061611326287254339
10
-46.312613109620543
20
22.586809693808693
30
0
10
-46.215009919671317
20
22.536034243800273
30
0
10
-46.030716252049345
20
22.440160390578086
30
0
10
-45.897410350718779
20
22.281239910710056
30
0
10
-45.83470416872099
20
22.206484806590041
30
0
0
SPLINE
5
147
100
AcDbEntity
8
0
100
AcDbSpline
70
0
71
3
72
9
73
5
74
0
42
0.000000001
43
0.0000000001
44
0.0000000001
40
0
40
0
40
0
40
0
40
0.027717982843649153
40
0.055643612162432521
40
0.055643612162432521
40
0.055643612162432521
40
0.055643612162432521
10
-45.83470416872099
20
22.206484806590041
30
0
10
-45.785665939532763
20
22.127477779592709
30
0
10
-45.687222116204261
20
21.968871852417401
30
0
10
-45.640941173417289
20
21.788015275819745
30
0
10
-45.617714348224503
20
21.697249534314924
30
0
0
SPLINE
5
148
100
AcDbEntity
8
0
100
AcDbSpline
70
0
71
3
72
9
73
5
74
0
42
0.000000001
43
0.0000000001
44
0.0000000001
40
0
40
0
40
0
40
0
40
0.035782701151618905
40
0.086656877685006517
40
0.086656877685006517
40
0.086656877685006517
40
0.086656877685006517
10
-45.617714348224503
20
21.697249534314924
30
0
10
-45.60146829317037
20
21.57894876213108
30
0
10
-45.562124354328965
20
21.292453466492578
30
0
10
-45.564061776019841
20
21.003103943612722
30
0
10
-45.565199189872644
20
20.833233771733816
30
0
0
LINE
5
149
100
AcDbEntity
8
0
100
AcDbLine
10
-45.565199189872658
20
20.833233771733816
30
0
11
-45.585358890011243
21
18.283517363843988
31
0
0
LINE
5
150
100
AcDbEntity
8
0
100
AcDbLine
10
-45.585358890011243
20
18.283517363843988
30
0
11
-46.735390988095361
21
18.292610258322505
31
0
0
LINE
5
151
100
AcDbEntity
8
0
100
AcDbLine
10
-46.735390988095361
20
18.292610258322505
30
0
11
-46.717237555711307
21
20.588582127494426
31
0
0
SPLINE
5
152
100
AcDbEntity
8
0
100
AcDbSpline
70
0
71
3
72
9
73
5
74
0
42
0.000000001
43
0.0000000001
44
0.0000000001
40
0
40
0
40
0
40
0
40
0.055890226559735703
40
0.087178551768993612
40
0.087178551768993612
40
0.087178551768993612
40
0.087178551768993612
10
-46.717237555711307
20
20.588582127494426
30
0
10
-46.713592630674071
20
20.77549459583188
30
0
10
-46.707907212925512
20
21.06704392923475
30
0
10
-46.757912551337924
20
21.353817206910701
30
0
10
-46.775859434587289
20
21.456739948699592
30
0
0
SPLINE
5
153
100
AcDbEntity
8
0
100
AcDbSpline
70
0
71
3
72
9
73
5
74
0
42
0.000000001
43
0.0000000001
44
0.0000000001
40
0
40
0
40
0
40
0
40
0.018842939773441713
40
0.037822314265004486
40
0.037822314265004486
40
0.037822314265004486
40
0.037822314265004486
10
-46.775859434587289
20
21.456739948699592
30
0
10
-46.801502220842579
20
21.515245794587329
30
0
10
-46.852973463230413
20
21.632681105431153
30
0
10
-46.954056748681026
20
21.711594059761769
30
0
10
-47.004780707980899
20
21.751192866486882
30
0
0
SPLINE
5
154
100
AcDbEntity
8
0
100
AcDbSpline
70
0
71
3
72
9
73
5
74
0
42
0.000000001
43
0.0000000001
44
0.0000000001
40
0
40
0
40
0
40
0
40
0.020368004415714125
40
0.04339657918646174
40
0.04339657918646174
40
0.04339657918646174
40
0.04339657918646174
10
-47.004780707980899
20
21.751192866486882
30
0
10
-47.065557943488969
20
21.783276058265741
30
0
10
-47.195051440231595
20
21.851633308400238
30
0
10
-47.341573459683005
20
21.859014736654558
30
0
10
-47.419325977133752
20
21.862931722178676
30
0
0
SPLINE
5
155
100
AcDbEntity
8
0
100
AcDbSpline
70
0
71
3
72
9
73
5
74
0
42
0.000000001
43
0.0000000001
44
0.0000000001
40
0
40
0
40
0
40
0
40
0.02733677596850281
40
0.053549150206035331
40
0.053549150206035331
40
0.053549150206035331
40
0.053549150206035331
10
-47.419325977133752
20
21.862931722178676
30
0
10
-47.511480633801014
20
21.858364598453587
30
0
10
-47.691999490806921
20
21.849418203507597
30
0
10
-47.853131891469296
20
21.767785880153028
30
0
10
-47.932006397819137
20
21.727826758459852
30
0
0
SPLINE
5
156
100
AcDbEntity
8
0
100
AcDbSpline
70
0
71
3
72
9
73
5
74
0
42
0.000000001
43
0.0000000001
44
0.0000000001
40
0
40
0
40
0
40
0
40
0.026158710695357502
40
0.054114998873260552
40
0.054114998873260552
40
0.054114998873260552
40
0.054114998873260552
10
-47.932006397819137
20
21.727826758459852
30
0
10
-48.002962787935139
20
21.674653105668035
30
0
10
-48.149751558065923
20
21.564651806505118
30
0
10
-48.225598140985937
20
21.397359866117014
30
0
10
-48.264781158145141
20
21.310935366575137
30
0
0
SPLINE
5
157
100
AcDbEntity
8
0
100
AcDbSpline
70
0
71
3
72
9
73
5
74
0
42
0.000000001
43
0.0000000001
44
0.0000000001
40
0
40
0
40
0
40
0
40
0.035608281726189323
40
0.083820181636464208
40
0.083820181636464208
40
0.083820181636464208
40
0.083820181636464208
10
-48.264781158145141
20
21.310935366575137
30
0
10
-48.295959533275017
20
21.195966815985557
30
0
10
-48.369351927960373
20
20.925336380431236
30
0
10
-48.373379415134877
20
20.64452075592131
30
0
10
-48.375695955194267
20
20.483000528718364
30
0
0
LINE
5
158
100
AcDbEntity
8
0
100
AcDbLine
10
-48.375695955194274
20
20.483000528718364
30
0
11
-48.392910971559672
21
18.305715678884926
31
0
0
LINE
5
159
100
AcDbEntity
8
0
100
AcDbLine
10
-48.392910971559672
20
18.305715678884926
30
0
11
-49.542943069643783
21
18.314808573363443
31
0
0
SPLINE
5
160
100
AcDbEntity
8
0
100
AcDbSpline
70
0
71
3
72
9
73
5
74
0
42
0.000000001
43
0.0000000001
44
0.0000000001
40
0
40
0
40
0
40
0
40
0.071775740329212315
40
0.13245159722809252
40
0.13245159722809252
40
0.13245159722809252
40
0.13245159722809252
10
-35.069332566621718
20
13.280707229660669
30
0
10
-34.826251372372205
20
13.269974398957253
30
0
10
-34.377680695333069
20
13.250168534706667
30
0
10
-33.987977081570804
20
13.029896823009643
30
0
10
-33.809454502783794
20
12.928990717401994
30
0
0
SPLINE
5
161
100
AcDbEntity
8
0
100
AcDbSpline
70
0
71
3
72
9
73
5
74
0
42
0.000000001
43
0.0000000001
44
0.0000000001
40
0
40
0
40
0
40
0
40
0.059000587871414246
40
0.12576519343987483
40
0.12576519343987483
40
0.12576519343987483
40
0.12576519343987483
10
-33.809454502783794
20
12.928990717401994
30
0
10
-33.66353875005408
20
12.792525289045189
30
0
10
-33.352505868348373
20
12.501636645146368
30
0
10
-33.21659882283226
20
12.096933538171761
30
0
10
-33.144450241498461
20
11.882089966826976
30
0
0
LINE
5
162
100
AcDbEntity
8
0
100
AcDbLine
10
-33.144450241498461
20
11.882089966826976
30
0
11
-34.279729800144551
21
11.686420386993175
31
0
0
SPLINE
5
163
100
AcDbEntity
8
0
100
AcDbSpline
70
0
71
3
72
9
73
5
74
0
42
0.000000001
43
0.0000000001
44
0.0000000001
40
0
40
0
40
0
40
0
40
0.031212043134038227
40
0.058300152074593339
40
0.058300152074593339
40
0.058300152074593339
40
0.058300152074593339
10
-34.279729800144551
20
11.686420386993177
30
0
10
-34.30137362264346
20
11.790425898030081
30
0
10
-34.341801547779355
20
11.984695048691183
30
0
10
-34.474098137980498
20
12.131735647993489
30
0
10
-34.535567350672203
20
12.200055397271147
30
0
0
SPLINE
5
164
100
AcDbEntity
8
0
100
AcDbSpline
70
0
71
3
72
9
73
5
74
0
42
0.000000001
43
0.0000000001
44
0.0000000001
40
0
40
0
40
0
40
0
40
0.026609473933864827
40
0.056237086868733903
40
0.056237086868733903
40
0.056237086868733903
40
0.056237086868733903
10
-34.535567350672203
20
12.200055397271147
30
0
10
-34.610355946562116
20
12.250745589352459
30
0
10
-34.768415920776754
20
12.357875431248434
30
0
10
-34.959462414167255
20
12.369815261750938
30
0
10
-35.060112214395176
20
12.376105571159425
30
0
0
SPLINE
5
165
100
AcDbEntity
8
0
100
AcDbSpline
70
0
71
3
72
9
73
5
74
0
42
0.000000001
43
0.0000000001
44
0.0000000001
40
0
40
0
40
0
40
0
40
0.0393313696912422
40
0.07662712241035205
40
0.07662712241035205
40
0.07662712241035205
40
0.07662712241035205
10
-35.060112214395176
20
12.376105571159425
30
0
10
-35.194989178418602
20
12.366175604890358
30
0
10
-35.457762473976132
20
12.346829603294074
30
0
10
-35.652966752098393
20
12.170588414810926
30
0
10
-35.747976068089329
20
12.084808764240339
30
0
0
SPLINE
5
166
100
AcDbEntity
8
0
100
AcDbSpline
70
0
71
3
72
9
73
5
74
0
42
0.000000001
43
0.0000000001
44
0.0000000001
40
0
40
0
40
0
40
0
40
0.044046369684472488
40
0.10398928603357793
40
0.10398928603357793
40
0.10398928603357793
40
0.10398928603357793
10
-35.747976068089329
20
12.084808764240339
30
0
10
-35.823171161878932
20
11.956163702082684
30
0
10
-36.000699620465269
20
11.652444956103128
30
0
10
-36.007621846275384
20
11.298431466758224
30
0
10
-36.011612049675293
20
11.094366204002171
30
0
0
SPLINE
5
167
100
AcDbEntity
8
0
100
AcDbSpline
70
0
71
3
72
9
73
5
74
0
42
0.000000001
43
0.0000000001
44
0.0000000001
40
0
40
0
40
0
40
0
40
0.066314998141279252
40
0.11378264016845302
40
0.11378264016845302
40
0.11378264016845302
40
0.11378264016845302
10
-36.011612049675293
20
11.094366204002171
30
0
10
-36.011875904367578
20
10.869003326609764
30
0
10
-36.012328623727463
20
10.48232785493083
30
0
10
-35.834539320147378
20
10.141684470917106
30
0
10
-35.760369490671593
20
9.9995754621320252
30
0
0
SPLINE
5
168
100
AcDbEntity
8
0
100
AcDbSpline
70
0
71
3
72
9
73
5
74
0
42
0.000000001
43
0.0000000001
44
0.0000000001
40
0
40
0
40
0
40
0
40
0.03872792944416438
40
0.07887094840115183
40
0.07887094840115183
40
0.07887094840115183
40
0.07887094840115183
10
-35.760369490671593
20
9.9995754621320252
30
0
10
-35.665791537400764
20
9.9057225730128451
30
0
10
-35.473179823338825
20
9.7145874805548402
30
0
10
-35.202742323058381
20
9.6882419828807365
30
0
10
-35.065097500465129
20
9.6748328907625147
30
0
0
SPLINE
5
169
100
AcDbEntity
8
0
100
AcDbSpline
70
0
71
3
72
9
73
5
74
0
42
0.000000001
43
0.0000000001
44
0.0000000001
40
0
40
0
40
0
40
0
40
0.03013640843088148
40
0.057766659731704431
40
0.057766659731704431
40
0.057766659731704431
40
0.057766659731704431
10
-35.065097500465129
20
9.6748328907625147
30
0
10
-34.962522289844998
20
9.680342490342051
30
0
10
-34.765902068746264
20
9.6909035087493667
30
0
10
-34.604629128771968
20
9.8031289468582461
30
0
10
-34.527491003074417
20
9.8568072635844395
30
0
0
SPLINE
5
170
100
AcDbEntity
8
0
100
AcDbSpline
70
0
71
3
72
9
73
5
74
0
42
0.000000001
43
0.0000000001
44
0.0000000001
40
0
40
0
40
0
40
0
40
0.030956113849480472
40
0.071402342675420005
40
0.071402342675420005
40
0.071402342675420005
40
0.071402342675420005
10
-34.527491003074417
20
9.8568072635844395
30
0
10
-34.461091062621996
20
9.9375793152977998
30
0
10
-34.307935168285141
20
10.123885443485495
30
0
10
-34.256749699014819
20
10.36078376131143
30
0
10
-34.227755423405661
20
10.494976047057909
30
0
0
LINE
5
171
100
AcDbEntity
8
0
100
AcDbLine
10
-34.227755423405661
20
10.494976047057909
30
0
11
-33.099708207022807
21
10.293692472855549
31
0
0
SPLINE
5
172
100
AcDbEntity
8
0
100
AcDbSpline
70
0
71
3
72
9
73
5
74
0
42
0.000000001
43
0.0000000001
44
0.0000000001
40
0
40
0
40
0
40
0
40
0.072919322676694057
40
0.13752180851119261
40
0.13752180851119261
40
0.13752180851119261
40
0.13752180851119261
10
-33.099708207022807
20
10.293692472855547
30
0
10
-33.168151909747962
20
10.055516434748615
30
0
10
-33.297232946631674
20
9.6063296033003773
30
0
10
-33.628611508084141
20
9.2784618207302252
30
0
10
-33.784280482000725
20
9.12444207645561
30
0
0
SPLINE
5
173
100
AcDbEntity
8
0
100
AcDbSpline
70
0
71
3
72
9
73
5
74
0
42
0.000000001
43
0.0000000001
44
0.0000000001
40
0
40
0
40
0
40
0
40
0.065573897911059012
40
0.14163363029319903
40
0.14163363029319903
40
0.14163363029319903
40
0.14163363029319903
10
-33.784280482000725
20
9.12444207645561
30
0
10
-33.974851840411041
20
9.0103227302414535
30
0
10
-34.386468568734408
20
8.7638353655141099
30
0
10
-34.867429515752363
20
8.7470513078173084
30
0
10
-35.1257139418503
20
8.7380379757854811
30
0
0
SPLINE
5
174
100
AcDbEntity
8
0
100
AcDbSpline
70
0
71
3
72
9
73
5
74
0
42
0.000000001
43
0.0000000001
44
0.0000000001
40
0
40
0
40
0
40
0
40
0.087002198884672546
40
0.16724501341577161
40
0.16724501341577161
40
0.16724501341577161
40
0.16724501341577161
10
-35.1257139418503
20
8.7380379757854811
30
0
10
-35.423101356988283
20
8.7611504333285506
30
0
10
-35.994771531673912
20
8.805579692834824
30
0
10
-36.431724935792076
20
9.1746168473101655
30
0
10
-36.641371670539385
20
9.351677910817223
30
0
0
SPLINE
5
175
100
AcDbEntity
8
0
100
AcDbSpline
70
0
71
3
72
9
73
5
74
0
42
0.000000001
43
0.0000000001
44
0.0000000001
40
0
40
0
40
0
40
0
40
0.083378798899272688
40
0.17928140588139757
40
0.17928140588139757
40
0.17928140588139757
40
0.17928140588139757
10
-36.641371670539385
20
9.351677910817223
30
0
10
-36.804658280870612
20
9.5837393507028068
30
0
10
-37.155757762372559
20
10.082718728467759
30
0
10
-37.18134578396225
20
10.69456872049027
30
0
10
-37.195033527908144
20
11.021864287079982
30
0
0
SPLINE
5
176
100
AcDbEntity
8
0
100
AcDbSpline
70
0
71
3
72
9
73
5
74
0
42
0.000000001
43
0.0000000001
44
0.0000000001
40
0
40
0
40
0
40
0
40
0.096770415930793038
40
0.18035948215932276
40
0.18035948215932276
40
0.18035948215932276
40
0.18035948215932276
10
-37.195033527908144
20
11.021864287079982
30
0
10
-37.176468031015887
20
11.351975825443489
30
0
10
-37.141865891784477
20
11.967233552109056
30
0
10
-36.780419974699903
20
12.463366688081496
30
0
10
-36.612904930081818
20
12.693303617731448
30
0
0
SPLINE
5
177
100
AcDbEntity
8
0
100
AcDbSpline
70
0
71
3
72
9
73
5
74
0
42
0.000000001
43
0.0000000001
44
0.0000000001
40
0
40
0
40
0
40
0
40
0.080622972055342676
40
0.16887658246111281
40
0.16887658246111281
40
0.16887658246111281
40
0.16887658246111281
10
-36.612904930081818
20
12.693303617731448
30
0
10
-36.398447706673871
20
12.86639548869806
30
0
10
-35.949235750702151
20
13.228961676416571
30
0
10
-35.371337679038952
20
13.262946842032438
30
0
10
-35.069332566621718
20
13.280707229660669
30
0
0
LINE
5
178
100
AcDbEntity
8
0
100
AcDbLine
10
-27.858505021892537
20
22.490014199700227
30
0
11
-29.619965844157292
21
18.157284683455444
31
0
0
LINE
5
179
100
AcDbEntity
8
0
100
AcDbLine
10
-29.619965844157292
20
18.157284683455444
30
0
11
-30.655402057843617
21
18.16547150906316
31
0
0
LINE
5
180
100
AcDbEntity
8
0
100
AcDbLine
10
-30.655402057843617
20
18.16547150906316
30
0
11
-32.372688587028044
21
22.525706242455229
31
0
0
LINE
5
181
100
AcDbEntity
8
0
100
AcDbLine
10
-32.372688587028044
20
22.525706242455229
30
0
11
-31.165360334828478
21
22.516160327679046
31
0
0
LINE
5
182
100
AcDbEntity
8
0
100
AcDbLine
10
-31.165360334828478
20
22.516160327679046
30
0
11
-30.364369174930331
21
20.291476808154201
31
0
0
LINE
5
183
100
AcDbEntity
8
0
100
AcDbLine
10
-30.364369174930331
20
20.291476808154201
30
0
11
-30.132854512487693
21
19.54883158996202
31
0
0
SPLINE
5
184
100
AcDbEntity
8
0
100
AcDbSpline
70
0
71
3
72
9
73
5
74
0
42
0.000000001
43
0.0000000001
44
0.0000000001
40
0
40
0
40
0
40
0
40
0.02465590995263732
40
0.039091996542741821
40
0.039091996542741821
40
0.039091996542741821
40
0.039091996542741821
10
-30.132854512487693
20
19.54883158996202
30
0
10
-30.106122870374683
20
19.626557606078137
30
0
10
-30.063739796171731
20
19.749792366390324
30
0
10
-30.025385340978687
20
19.874333539699968
30
0
10
-30.011221617320377
20
19.920324722574591
30
0
0
SPLINE
5
185
100
AcDbEntity
8
0
100
AcDbSpline
70
0
71
3
72
9
73
5
74
0
42
0.000000001
43
0.0000000001
44
0.0000000001
40
0
40
0
40
0
40
0
40
0.019349860616768518
40
0.038829280707657426
40
0.038829280707657426
40
0.038829280707657426
40
0.038829280707657426
10
-30.011221617320377
20
19.920324722574591
30
0
10
-29.991259404882125
20
19.981661645923008
30
0
10
-29.951201320451311
20
20.104746181858928
30
0
10
-29.907469054903402
20
20.226573760167664
30
0
10
-29.885529962635701
20
20.287690796931713
30
0
0
LINE
5
186
100
AcDbEntity
8
0
100
AcDbLine
10
-29.885529962635697
20
20.287690796931713
30
0
11
-29.04127931211416
21
22.499365975038334
31
0
0
LINE
5
187
100
AcDbEntity
8
0
100
AcDbLine
10
-29.04127931211416
20
22.499365975038334
30
0
11
-27.858505021892537
21
22.490014199700227
31
0
0
LINE
5
188
100
AcDbEntity
8
0
100
AcDbLine
10
-21.999466485628993
20
18.097032107326353
30
0
11
-22.55606587113196
21
18.101432940561896
31
0
0
LINE
5
189
100
AcDbEntity
8
0
100
AcDbLine
10
-22.55606587113196
20
18.101432940561896
30
0
11
-22.546972976653414
21
19.251465038646018
31
0
0
LINE
5
190
100
AcDbEntity
8
0
100
AcDbLine
10
-22.546972976653414
20
19.251465038646018
30
0
11
-21.396939686513655
21
19.24237213474234
31
0
0
LINE
5
191
100
AcDbEntity
8
0
100
AcDbLine
10
-21.396939686513655
20
19.24237213474234
30
0
11
-21.403443857222779
21
18.419751229532498
31
0
0
SPLINE
5
192
100
AcDbEntity
8
0
100
AcDbSpline
70
0
71
3
72
9
73
5
74
0
42
0.000000001
43
0.0000000001
44
0.0000000001
40
0
40
0
40
0
40
0
40
0.04471400988959006
40
0.079440993899758283
40
0.079440993899758283
40
0.079440993899758283
40
0.079440993899758283
10
-21.403443857222779
20
18.419751229532498
30
0
10
-21.406017531871832
20
18.270211805954489
30
0
10
-21.410590042201356
20
18.004533096628986
30
0
10
-21.469756186368755
20
17.745730908434542
30
0
10
-21.495620184810651
20
17.632597637939892
30
0
0
SPLINE
5
193
100
AcDbEntity
8
0
100
AcDbSpline
70
0
71
3
72
9
73
5
74
0
42
0.000000001
43
0.0000000001
44
0.0000000001
40
0
40
0
40
0
40
0
40
0.030061385618487424
40
0.061680301008266297
40
0.061680301008266297
40
0.061680301008266297
40
0.061680301008266297
10
-21.495620184810651
20
17.632597637939892
30
0
10
-21.53237671599312
20
17.538263662437227
30
0
10
-21.607794194619281
20
17.344708113196926
30
0
10
-21.751440985328323
20
17.194467895725843
30
0
10
-21.825078040387975
20
17.117450879811415
30
0
0
SPLINE
5
194
100
AcDbEntity
8
0
100
AcDbSpline
70
0
71
3
72
9
73
5
74
0
42
0.000000001
43
0.0000000001
44
0.0000000001
40
0
40
0
40
0
40
0
40
0.034010700698795138
40
0.071046687764980493
40
0.071046687764980493
40
0.071046687764980493
40
0.071046687764980493
10
-21.825078040387975
20
17.117450879811415
30
0
10
-21.913251977454522
20
17.04500093561666
30
0
10
-22.097443012836465
20
16.893656551113072
30
0
10
-22.319780688519238
20
16.807182263623524
30
0
10
-22.435683280743561
20
16.762104010241533
30
0
0
LINE
5
195
100
AcDbEntity
8
0
100
AcDbLine
10
-22.435683280743561
20
16.762104010241533
30
0
11
-22.657023117040325
21
17.238629437527003
31
0
0
SPLINE
5
196
100
AcDbEntity
8
0
100
AcDbSpline
70
0
71
3
72
9
73
5
74
0
42
0.000000001
43
0.0000000001
44
0.0000000001
40
0
40
0
40
0
40
0
40
0.032737196510326208
40
0.059394124254548639
40
0.059394124254548639
40
0.059394124254548639
40
0.059394124254548639
10
-22.657023117040325
20
17.238629437527003
30
0
10
-22.552406416547875
20
17.275465796485843
30
0
10
-22.362603441018507
20
17.34229690954087
30
0
10
-22.22229525309265
20
17.485552890206339
30
0
10
-22.15932294271002
20
17.549848211897768
30
0
0
SPLINE
5
197
100
AcDbEntity
8
0
100
AcDbSpline
70
0
71
3
72
9
73
5
74
0
42
0.000000001
43
0.0000000001
44
0.0000000001
40
0
40
0
40
0
40
0
40
0.026271179680880354
40
0.05767165770473115
40
0.05767165770473115
40
0.05767165770473115
40
0.05767165770473115
10
-22.15932294271002
20
17.549848211897768
30
0
10
-22.115379285881779
20
17.626894387465729
30
0
10
-22.018912223280182
20
17.796029565968876
30
0
10
-22.006321664892159
20
17.990920093645446
30
0
10
-21.999466485628993
20
18.097032107326353
30
0
0
SPLINE
5
198
100
AcDbEntity
8
0
100
AcDbSpline
70
0
71
3
72
9
73
5
74
0
42
0.000000001
43
0.0000000001
44
0.0000000001
40
0
40
0
40
0
40
0
40
0.031692097925023657
40
0.067163772043909484
40
0.067163772043909484
40
0.067163772043909484
40
0.067163772043909484
10
-55.707577589455298
20
8.3871135569483499
30
0
10
-55.645689152679154
20
8.4735271667425316
30
0
10
-55.514531509861662
20
8.6566600096183244
30
0
10
-55.444927342494552
20
8.8711004025366247
30
0
10
-55.408166805272955
20
8.9843543116611979
30
0
0
LINE
5
199
100
AcDbEntity
8
0
100
AcDbLine
10
-55.408166805272955
20
8.9843543116611979
30
0
11
-57.027131466984137
21
13.356090589656855
31
0
0
LINE
5
200
100
AcDbEntity
8
0
100
AcDbLine
10
-57.027131466984137
20
13.356090589656855
30
0
11
-55.803431522688001
21
13.346415229738302
31
0
0
LINE
5
201
100
AcDbEntity
8
0
100
AcDbLine
10
-55.803431522688001
20
13.346415229738302
30
0
11
-54.788299320127678
21
10.252345446462993
31
0
0
LINE
5
202
100
AcDbEntity
8
0
100
AcDbLine
10
-54.788299320127678
20
10.252345446462993
30
0
11
-53.748925423161552
21
13.330170981252035
31
0
0
LINE
5
203
100
AcDbEntity
8
0
100
AcDbLine
10
-53.748925423161552
20
13.330170981252035
30
0
11
-52.557967074975096
21
13.320754497480484
31
0
0
LINE
5
204
100
AcDbEntity
8
0
100
AcDbLine
10
-52.557967074975096
20
13.320754497480484
30
0
11
-54.125778674517228
21
9.150209100186327
31
0
0
LINE
5
205
100
AcDbEntity
8
0
100
AcDbLine
10
-54.125778674517228
20
9.150209100186327
30
0
11
-54.405971872084848
21
8.3952382504723939
31
0
0
SPLINE
5
206
100
AcDbEntity
8
0
100
AcDbSpline
70
0
71
3
72
9
73
5
74
0
42
0.000000001
43
0.0000000001
44
0.0000000001
40
0
40
0
40
0
40
0
40
0.036672982370831012
40
0.064974261528193133
40
0.064974261528193133
40
0.064974261528193133
40
0.064974261528193133
10
-54.405971872084848
20
8.3952382504723886
30
0
10
-54.452910386279434
20
8.2821007477600475
30
0
10
-54.536072297306617
20
8.0816527554057274
30
0
10
-54.649633380768407
20
7.8968583614999899
30
0
10
-54.699097951028584
20
7.8163662157543623
30
0
0
SPLINE
5
207
100
AcDbEntity
8
0
100
AcDbSpline
70
0
71
3
72
9
73
5
74
0
42
0.000000001
43
0.0000000001
44
0.0000000001
40
0
40
0
40
0
40
0
40
0.023386561096963004
40
0.04548305651497056
40
0.04548305651497056
40
0.04548305651497056
40
0.04548305651497056
10
-54.699097951028584
20
7.8163662157543623
30
0
10
-54.74611505731098
20
7.7536728704747615
30
0
10
-54.837555679698617
20
7.6317445136444428
30
0
10
-54.958195237126859
20
7.5386958024862993
30
0
10
-55.01680412650672
20
7.4934910476325767
30
0
0
SPLINE
5
208
100
AcDbEntity
8
0
100
AcDbSpline
70
0
71
3
72
9
73
5
74
0
42
0.000000001
43
0.0000000001
44
0.0000000001
40
0
40
0
40
0
40
0
40
0.022743496556415652
40
0.048096820533409496
40
0.048096820533409496
40
0.048096820533409496
40
0.048096820533409496
10
-55.01680412650672
20
7.4934910476325767
30
0
10
-55.082000364094924
20
7.4541456289866037
30
0
10
-55.219874139613822
20
7.3709398855454777
30
0
10
-55.374660737305099
20
7.326158622663157
30
0
10
-55.456253547703824
20
7.3025530318286158
30
0
0
SPLINE
5
209
100
AcDbEntity
8
0
100
AcDbSpline
70
0
71
3
72
9
73
5
74
0
42
0.000000001
43
0.0000000001
44
0.0000000001
40
0
40
0
40
0
40
0
40
0.028164985646780695
40
0.059267554471377673
40
0.059267554471377673
40
0.059267554471377673
40
0.059267554471377673
10
-55.456253547703824
20
7.3025530318286158
30
0
10
-55.548317562446982
20
7.2830005103529238
30
0
10
-55.742047787524065
20
7.2418561566455875
30
0
10
-55.940141675849233
20
7.2390801975523322
30
0
10
-56.044097859807202
20
7.2376234231076575
30
0
0
SPLINE
5
210
100
AcDbEntity
8
0
100
AcDbSpline
70
0
71
3
72
9
73
5
74
0
42
0.000000001
43
0.0000000001
44
0.0000000001
40
0
40
0
40
0
40
0
40
0.032890515146081274
40
0.065540730576730336
40
0.065540730576730336
40
0.065540730576730336
40
0.065540730576730336
10
-56.044097859807202
20
7.2376234231076575
30
0
10
-56.153868535315951
20
7.2413482487726588
30
0
10
-56.372607896398932
20
7.2487706863438106
30
0
10
-56.587316922174971
20
7.2912031866610816
30
0
10
-56.694277828542738
20
7.3123416491778759
30
0
0
LINE
5
211
100
AcDbEntity
8
0
100
AcDbLine
10
-56.694277828542738
20
7.3123416491778768
30
0
11
-56.789474759090297
21
8.2135317031849233
31
0
0
SPLINE
5
212
100
AcDbEntity
8
0
100
AcDbSpline
70
0
71
3
72
9
73
5
74
0
42
0.000000001
43
0.0000000001
44
0.0000000001
40
0
40
0
40
0
40
0
40
0.02599031131598234
40
0.049050522343622963
40
0.049050522343622963
40
0.049050522343622963
40
0.049050522343622963
10
-56.789474759090297
20
8.2135317031849233
30
0
10
-56.704226742987991
20
8.1973557518519193
30
0
10
-56.543341416616229
20
8.1668274964323473
30
0
10
-56.379770739557799
20
8.159787073694833
30
0
10
-56.302870960499845
20
8.1564771469847042
30
0
0
SPLINE
5
213
100
AcDbEntity
8
0
100
AcDbSpline
70
0
71
3
72
9
73
5
74
0
42
0.000000001
43
0.0000000001
44
0.0000000001
40
0
40
0
40
0
40
0
40
0.035383401477862064
40
0.065541975261042024
40
0.065541975261042024
40
0.065541975261042024
40
0.065541975261042024
10
-56.302870960499845
20
8.1564771469847042
30
0
10
-56.180943914333085
20
8.1617862950413169
30
0
10
-55.955093964646522
20
8.1716206251523396
30
0
10
-55.785578613883075
20
8.3192042340841645
30
0
10
-55.707577589455298
20
8.3871135569483499
30
0
0
SPLINE
5
214
100
AcDbEntity
8
0
100
AcDbSpline
70
0
71
3
72
9
73
5
74
0
42
0.000000001
43
0.0000000001
44
0.0000000001
40
0
40
0
40
0
40
0
40
0.058202764082421095
40
0.11575781604568523
40
0.11575781604568523
40
0.11575781604568523
40
0.11575781604568523
10
-43.564651742590719
20
9.0748935783834348
30
0
10
-43.73352402589984
20
9.1762692598233908
30
0
10
-44.069389289598135
20
9.3778924588009396
30
0
10
-44.278892471389682
20
9.7088076244287755
30
0
10
-44.383057934477918
20
9.8733394046899505
30
0
0
SPLINE
5
215
100
AcDbEntity
8
0
100
AcDbSpline
70
0
71
3
72
9
73
5
74
0
42
0.000000001
43
0.0000000001
44
0.0000000001
40
0
40
0
40
0
40
0
40
0.061616005785530961
40
0.13119422189739693
40
0.13119422189739693
40
0.13119422189739693
40
0.13119422189739693
10
-44.383057934477918
20
9.8733394046899505
30
0
10
-44.463837338436669
20
10.064165057039487
30
0
10
-44.635834710103254
20
10.470475441149766
30
0
10
-44.648621211475977
20
10.912115310643845
30
0
10
-44.655402470154598
20
11.146336862773687
30
0
0
SPLINE
5
216
100
AcDbEntity
8
0
100
AcDbSpline
70
0
71
3
72
9
73
5
74
0
42
0.000000001
43
0.0000000001
44
0.0000000001
40
0
40
0
40
0
40
0
40
0.056818223696676738
40
0.11532275760992852
40
0.11532275760992852
40
0.11532275760992852
40
0.11532275760992852
10
-44.655402470154598
20
11.146336862773687
30
0
10
-44.641454669070811
20
11.336961996797212
30
0
10
-44.613145109585744
20
11.723869835428587
30
0
10
-44.448014014488066
20
12.075051120147307
30
0
10
-44.364241149933861
20
12.253209341536881
30
0
0
SPLINE
5
217
100
AcDbEntity
8
0
100
AcDbSpline
70
0
71
3
72
9
73
5
74
0
42
0.000000001
43
0.0000000001
44
0.0000000001
40
0
40
0
40
0
40
0
40
0.058301027031968752
40
0.11576368289374321
40
0.11576368289374321
40
0.11576368289374321
40
0.11576368289374321
10
-44.364241149933861
20
12.253209341536881
30
0
10
-44.25961102632543
20
12.420184862163008
30
0
10
-44.051855364595895
20
12.75173478855077
30
0
10
-43.721593197083607
20
12.961359581075529
30
0
10
-43.557658007725983
20
13.065412916386236
30
0
0
SPLINE
5
218
100
AcDbEntity
8
0
100
AcDbSpline
70
0
71
3
72
9
73
5
74
0
42
0.000000001
43
0.0000000001
44
0.0000000001
40
0
40
0
40
0
40
0
40
0.058743145489054314
40
0.119980171306518
40
0.119980171306518
40
0.119980171306518
40
0.119980171306518
10
-43.557658007725983
20
13.065412916386236
30
0
10
-43.377276831969446
20
13.146345592242849
30
0
10
-43.008856581614047
20
13.311646858164696
30
0
10
-42.605251315610424
20
13.329533232051386
30
0
10
-42.399254059353936
20
13.338662310027791
30
0
0
SPLINE
5
219
100
AcDbEntity
8
0
100
AcDbSpline
70
0
71
3
72
9
73
5
74
0
42
0.000000001
43
0.0000000001
44
0.0000000001
40
0
40
0
40
0
40
0
40
0.091151620105979395
40
0.17764845465629248
40
0.17764845465629248
40
0.17764845465629248
40
0.17764845465629248
10
-42.399254059353936
20
13.338662310027791
30
0
10
-42.088423323449206
20
13.312425815330208
30
0
10
-41.482634859909524
20
13.261292629401037
30
0
10
-41.015278968505271
20
12.873970786493718
30
0
10
-40.787723905934527
20
12.685384212923484
30
0
0
SPLINE
5
220
100
AcDbEntity
8
0
100
AcDbSpline
70
0
71
3
72
9
73
5
74
0
42
0.000000001
43
0.0000000001
44
0.0000000001
40
0
40
0
40
0
40
0
40
0.086544060792343558
40
0.17729840061927093
40
0.17729840061927093
40
0.17729840061927093
40
0.17729840061927093
10
-40.787723905934527
20
12.685384212923484
30
0
10
-40.605753562317197
20
12.45265539033991
30
0
10
-40.23296020609942
20
11.975875728693577
30
0
10
-40.191485628716485
20
11.371250321561636
30
0
10
-40.170255894681418
20
11.061758642701669
30
0
0
SPLINE
5
221
100
AcDbEntity
8
0
100
AcDbSpline
70
0
71
3
72
9
73
5
74
0
42
0.000000001
43
0.0000000001
44
0.0000000001
40
0
40
0
40
0
40
0
40
0.091586823735508222
40
0.17906798102546179
40
0.17906798102546179
40
0.17906798102546179
40
0.17906798102546179
10
-40.170255894681418
20
11.061758642701669
30
0
10
-40.196722891946166
20
10.74985245014358
30
0
10
-40.248470420364519
20
10.140022237753943
30
0
10
-40.632148095490912
20
9.6642252362274483
30
0
10
-40.819588456711045
20
9.4317812666787617
30
0
0
SPLINE
5
222
100
AcDbEntity
8
0
100
AcDbSpline
70
0
71
3
72
9
73
5
74
0
42
0.000000001
43
0.0000000001
44
0.0000000001
40
0
40
0
40
0
40
0
40
0.086796978251687487
40
0.17662595224237099
40
0.17662595224237099
40
0.17662595224237099
40
0.17662595224237099
10
-40.819588456711045
20
9.4317812666787617
30
0
10
-41.049624290256119
20
9.2444040269292849
30
0
10
-41.517731578875626
20
8.863104077715267
30
0
10
-42.120453680058709
20
8.8184678047216547
30
0
10
-42.426987953552604
20
8.7957665507163529
30
0
0
SPLINE
5
223
100
AcDbEntity
8
0
100
AcDbSpline
70
0
71
3
72
9
73
5
74
0
42
0.000000001
43
0.0000000001
44
0.0000000001
40
0
40
0
40
0
40
0
40
0.058762554139208757
40
0.11794817907098738
40
0.11794817907098738
40
0.11794817907098738
40
0.11794817907098738
10
-42.426987953552604
20
8.7957665507163529
30
0
10
-42.624093146209177
20
8.8087417073762317
30
0
10
-43.019722623175127
20
8.8347854374967518
30
0
10
-43.382574862021769
20
8.9946663713317285
30
0
10
-43.564651742590719
20
9.0748935783834348
30
0
0
LWPOLYLINE
5
224
100
AcDbEntity
8
0
100
AcDbPolyline
90
4
70
1
43
0.0
10
-39.050645844825638
20
14.969809660077019
10
-39.058444372706887
20
13.983483754457851
10
-40.044770278326055
20
13.991282282339089
10
-40.036971750444799
20
14.977608187958253
0
LWPOLYLINE
5
225
100
AcDbEntity
8
0
100
AcDbPolyline
90
4
70
1
43
0.0
10
-37.286715823011825
20
14.955862893214977
10
-37.294514350893081
20
13.969536987595813
10
-38.284933775564205
20
13.977367881475216
10
-38.277135247682949
20
14.963693787094382
0
LWPOLYLINE
5
226
100
AcDbEntity
8
0
100
AcDbPolyline
90
4
70
1
43
0.0
10
-38.102755936050137
20
13.206462287923969
10
-38.137121255634909
20
8.8600772422497425
10
-39.287154545774669
20
8.8691701461534223
10
-39.252789226189904
20
13.215555191827647
0
LWPOLYLINE
5
227
100
AcDbEntity
8
0
100
AcDbPolyline
90
6
70
1
43
0.0
10
-45.254419407713641
20
9.927296632572677
10
-45.262412093883285
20
8.9164143808642944
10
-49.486017793222707
20
8.9498089278573225
10
-49.438967716800136
20
14.900510129876725
10
-48.227545945548613
20
14.890931849102371
10
-48.266603335801534
20
9.9511128987913509
0
LINE
5
228
100
AcDbEntity
8
0
100
AcDbLine
10
-60.515686301859333
20
9.0370165910600697
30
0
11
-62.557914414599864
21
9.0531637618748224
31
0
0
LINE
5
229
100
AcDbEntity
8
0
100
AcDbLine
10
-62.557914414599864
20
9.0531637618748224
30
0
11
-62.510476040450811
21
15.052975271961383
31
0
0
LINE
5
230
100
AcDbEntity
8
0
100
AcDbLine
10
-62.510476040450811
20
15.052975271961383
30
0
11
-60.112188061750459
21
15.034012862515812
31
0
0
SPLINE
5
231
100
AcDbEntity
8
0
100
AcDbSpline
70
0
71
3
72
9
73
5
74
0
42
0.000000001
43
0.0000000001
44
0.0000000001
40
0
40
0
40
0
40
0
40
0.062176616956098413
40
0.1064493657422409
40
0.1064493657422409
40
0.1064493657422409
40
0.1064493657422409
10
-60.112188061750459
20
15.034012862515812
30
0
10
-59.904711174630236
20
15.032067469656209
30
0
10
-59.549500741490782
20
15.02873686329384
30
0
10
-59.197157727683425
20
14.984620823244082
30
0
10
-59.050616753690051
20
14.966272772554031
30
0
0
SPLINE
5
232
100
AcDbEntity
8
0
100
AcDbSpline
70
0
71
3
72
9
73
5
74
0
42
0.000000001
43
0.0000000001
44
0.0000000001
40
0
40
0
40
0
40
0
40
0.034392947532249245
40
0.067737174632390873
40
0.067737174632390873
40
0.067737174632390873
40
0.067737174632390873
10
-59.050616753690051
20
14.966272772554031
30
0
10
-58.937977688168097
20
14.940727110217345
30
0
10
-58.716134182474498
20
14.890414731809596
30
0
10
-58.521976372038147
20
14.772005550679626
30
0
10
-58.426400461770399
20
14.713717577380372
30
0
0
SPLINE
5
233
100
AcDbEntity
8
0
100
AcDbSpline
70
0
71
3
72
9
73
5
74
0
42
0.000000001
43
0.0000000001
44
0.0000000001
40
0
40
0
40
0
40
0
40
0.033511094977172549
40
0.068495685581996327
40
0.068495685581996327
40
0.068495685581996327
40
0.068495685581996327
10
-58.426400461770399
20
14.713717577380372
30
0
10
-58.338069684342642
20
14.643980370904298
30
0
10
-58.157524191513303
20
14.501439586384851
30
0
10
-58.033359676190088
20
14.307688914684874
30
0
10
-57.969941890101509
20
14.208729573359374
30
0
0
SPLINE
5
234
100
AcDbEntity
8
0
100
AcDbSpline
70
0
71
3
72
9
73
5
74
0
42
0.000000001
43
0.0000000001
44
0.0000000001
40
0
40
0
40
0
40
0
40
0.035961326171401846
40
0.073235296140025524
40
0.073235296140025524
40
0.073235296140025524
40
0.073235296140025524
10
-57.969941890101509
20
14.208729573359374
30
0
10
-57.917089846218715
20
14.099665092174064
30
0
10
-57.809456577442333
20
13.877555108245927
30
0
10
-57.797439361383844
20
13.63091454161053
30
0
10
-57.791323057168817
20
13.505383908727794
30
0
0
SPLINE
5
235
100
AcDbEntity
8
0
100
AcDbSpline
70
0
71
3
72
9
73
5
74
0
42
0.000000001
43
0.0000000001
44
0.0000000001
40
0
40
0
40
0
40
0
40
0.040813000683192407
40
0.081489646639881508
40
0.081489646639881508
40
0.081489646639881508
40
0.081489646639881508
10
-57.791323057168817
20
13.505383908727794
30
0
10
-57.801811070668535
20
13.36794206130779
30
0
10
-57.822752057602607
20
13.093517554599039
30
0
10
-57.957379338367183
20
12.853486386789008
30
0
10
-58.024580344403844
20
12.733671622163424
30
0
0
SPLINE
5
236
100
AcDbEntity
8
0
100
AcDbSpline
70
0
71
3
72
9
73
5
74
0
42
0.000000001
43
0.0000000001
44
0.0000000001
40
0
40
0
40
0
40
0
40
0.040797356254963855
40
0.082001176499767944
40
0.082001176499767944
40
0.082001176499767944
40
0.082001176499767944
10
-58.024580344403844
20
12.733671622163424
30
0
10
-58.108219230929919
20
12.624193456467108
30
0
10
-58.276330298063939
20
12.404146394298898
30
0
10
-58.521503187380077
20
12.275321489207741
30
0
10
-58.644697269361444
20
12.210589756578948
30
0
0
SPLINE
5
237
100
AcDbEntity
8
0
100
AcDbSpline
70
0
71
3
72
9
73
5
74
0
42
0.000000001
43
0.0000000001
44
0.0000000001
40
0
40
0
40
0
40
0
40
0.05308748087387373
40
0.10168010878655231
40
0.10168010878655231
40
0.10168010878655231
40
0.10168010878655231
10
-58.644697269361444
20
12.210589756578948
30
0
10
-58.475350987455357
20
12.149722387935773
30
0
10
-58.15099676903391
20
12.033141217322445
30
0
10
-57.917502990199672
20
11.780391116147907
30
0
10
-57.805916993191786
20
11.659602578764963
30
0
0
SPLINE
5
238
100
AcDbEntity
8
0
100
AcDbSpline
70
0
71
3
72
9
73
5
74
0
42
0.000000001
43
0.0000000001
44
0.0000000001
40
0
40
0
40
0
40
0
40
0.047325932515740979
40
0.096482724631948347
40
0.096482724631948347
40
0.096482724631948347
40
0.096482724631948347
10
-57.805916993191786
20
11.659602578764963
30
0
10
-57.721051001631977
20
11.523473623485462
30
0
10
-57.548035877385679
20
11.245949403496823
30
0
10
-57.528401579684399
20
10.919249963263354
30
0
10
-57.518398140269397
20
10.752800513071108
30
0
0
SPLINE
5
239
100
AcDbEntity
8
0
100
AcDbSpline
70
0
71
3
72
9
73
5
74
0
42
0.000000001
43
0.0000000001
44
0.0000000001
40
0
40
0
40
0
40
0
40
0.040644415763006078
40
0.082399230152410921
40
0.082399230152410921
40
0.082399230152410921
40
0.082399230152410921
10
-57.518398140269397
20
10.752800513071108
30
0
10
-57.527824350476394
20
10.616537637767571
30
0
10
-57.546934293373361
20
10.340289208245675
30
0
10
-57.658476714689229
20
10.086759388402164
30
0
10
-57.714999489112898
20
9.9582862151678508
30
0
0
SPLINE
5
240
100
AcDbEntity
8
0
100
AcDbSpline
70
0
71
3
72
9
73
5
74
0
42
0.000000001
43
0.0000000001
44
0.0000000001
40
0
40
0
40
0
40
0
40
0.041436189061444431
40
0.081411534184148399
40
0.081411534184148399
40
0.081411534184148399
40
0.081411534184148399
10
-57.714999489112898
20
9.9582862151678508
30
0
10
-57.784178185723619
20
9.8371082241089614
30
0
10
-57.920096665475398
20
9.599024404507972
30
0
10
-58.134415113492295
20
9.4282571001128055
30
0
10
-58.239651478480319
20
9.3444055673136575
30
0
0
SPLINE
5
241
100
AcDbEntity
8
0
100
AcDbSpline
70
0
71
3
72
9
73
5
74
0
42
0.000000001
43
0.0000000001
44
0.0000000001
40
0
40
0
40
0
40
0
40
0.041252085040001878
40
0.08677096752117848
40
0.08677096752117848
40
0.08677096752117848
40
0.08677096752117848
10
-58.239651478480319
20
9.3444055673136575
30
0
10
-58.360035529492123
20
9.275332278735009
30
0
10
-58.613255229060869
20
9.1300412934665864
30
0
10
-58.90253654229496
20
9.0882914608813046
30
0
10
-59.05428962834749
20
9.0663900602475813
30
0
0
SPLINE
5
242
100
AcDbEntity
8
0
100
AcDbSpline
70
0
71
3
72
9
73
5
74
0
42
0.000000001
43
0.0000000001
44
0.0000000001
40
0
40
0
40
0
40
0
40
0.051739643294411157
40
0.146191174521312
40
0.146191174521312
40
0.146191174521312
40
0.146191174521312
10
-59.05428962834749
20
9.0663900602475813
30
0
10
-59.226563602243687
20
9.0577779236616784
30
0
10
-59.713326420456958
20
9.0334441965142744
30
0
10
-60.200762485000396
20
9.0356144370494285
30
0
10
-60.515686301859333
20
9.0370165910600697
30
0
0
SPLINE
5
243
100
AcDbEntity
8
0
100
AcDbSpline
70
0
71
3
72
9
73
5
74
0
42
0.000000001
43
0.0000000001
44
0.0000000001
40
0
40
0
40
0
40
0
40
0.025135082200740698
40
0.048481927110459254
40
0.048481927110459254
40
0.048481927110459254
40
0.048481927110459254
10
-25.39852601439723
20
18.885186081650883
30
0
10
-25.313256221364504
20
18.88969312167616
30
0
10
-25.148783161060976
20
18.898386548029173
30
0
10
-25.009939466415748
20
18.986498792216977
30
0
10
-24.943078217311747
20
19.028929921140815
30
0
0
SPLINE
5
244
100
AcDbEntity
8
0
100
AcDbSpline
70
0
71
3
72
9
73
5
74
0
42
0.000000001
43
0.0000000001
44
0.0000000001
40
0
40
0
40
0
40
0
40
0.025127360715403099
40
0.055681581179397775
40
0.055681581179397775
40
0.055681581179397775
40
0.055681581179397775
10
-24.943078217311747
20
19.028929921140815
30
0
10
-24.88376341418514
20
19.089583102351856
30
0
10
-24.752323345216443
20
19.223988982525373
30
0
10
-24.693371313766811
20
19.403159000963267
30
0
10
-24.661022495224664
20
19.501475178915399
30
0
0
LINE
5
245
100
AcDbEntity
8
0
100
AcDbLine
10
-24.661022495224664
20
19.501475178915396
30
0
11
-23.516605980281675
21
19.300060986365349
31
0
0
SPLINE
5
246
100
AcDbEntity
8
0
100
AcDbSpline
70
0
71
3
72
9
73
5
74
0
42
0.000000001
43
0.0000000001
44
0.0000000001
40
0
40
0
40
0
40
0
40
0.062395326746076535
40
0.12020624871190758
40
0.12020624871190758
40
0.12020624871190758
40
0.12020624871190758
10
-23.516605980281675
20
19.300060986365349
30
0
10
-23.59923731798721
20
19.105445323879156
30
0
10
-23.758428777502289
20
18.730513098213407
30
0
10
-24.071447404299498
20
18.470771039037228
30
0
10
-24.221987793019174
20
18.345853007943301
30
0
0
SPLINE
5
247
100
AcDbEntity
8
0
100
AcDbSpline
70
0
71
3
72
9
73
5
74
0
42
0.000000001
43
0.0000000001
44
0.0000000001
40
0
40
0
40
0
40
0
40
0.059081845710263967
40
0.12523468366455587
40
0.12523468366455587
40
0.12523468366455587
40
0.12523468366455587
10
-24.221987793019174
20
18.345853007943301
30
0
10
-24.397732665048348
20
18.251227705922378
30
0
10
-24.770255784284892
20
18.050652222492708
30
0
10
-25.193846076714159
20
18.034409066494284
30
0
10
-25.417599586158403
20
18.02582892850705
30
0
0
SPLINE
5
248
100
AcDbEntity
8
0
100
AcDbSpline
70
0
71
3
72
9
73
5
74
0
42
0.000000001
43
0.0000000001
44
0.0000000001
40
0
40
0
40
0
40
0
40
0.10035922058237833
40
0.18907809327810249
40
0.18907809327810249
40
0.18907809327810249
40
0.18907809327810249
10
-25.417599586158403
20
18.02582892850705
30
0
10
-25.764236389830934
20
18.051087079912453
30
0
10
-26.417304693052955
20
18.098673769802531
30
0
10
-26.874977178223865
20
18.562314642725404
30
0
10
-27.089725413962054
20
18.779863354309246
30
0
0
SPLINE
5
249
100
AcDbEntity
8
0
100
AcDbSpline
70
0
71
3
72
9
73
5
74
0
42
0.000000001
43
0.0000000001
44
0.0000000001
40
0
40
0
40
0
40
0
40
0.074458774603261904
40
0.15782780452453321
40
0.15782780452453321
40
0.15782780452453321
40
0.15782780452453321
10
-27.089725413962054
20
18.779863354309246
30
0
10
-27.213227643191416
20
18.99930397426845
30
0
10
-27.4750112381675
20
19.464445006419503
30
0
10
-27.496341354327953
20
19.998870153162642
30
0
10
-27.507608514114917
20
20.281168359006237
30
0
0
SPLINE
5
250
100
AcDbEntity
8
0
100
AcDbSpline
70
0
71
3
72
9
73
5
74
0
42
0.000000001
43
0.0000000001
44
0.0000000001
40
0
40
0
40
0
40
0
40
0.097362950786043748
40
0.18167867419962336
40
0.18167867419962336
40
0.18167867419962336
40
0.18167867419962336
10
-27.507608514114917
20
20.281168359006237
30
0
10
-27.488995413953209
20
20.612995836521392
30
0
10
-27.45426348221919
20
21.232183892052277
30
0
10
-27.095802895651509
20
21.735448970441379
30
0
10
-26.929443999623341
20
21.969010555696808
30
0
0
SPLINE
5
251
100
AcDbEntity
8
0
100
AcDbSpline
70
0
71
3
72
9
73
5
74
0
42
0.000000001
43
0.0000000001
44
0.0000000001
40
0
40
0
40
0
40
0
40
0.078711056948922761
40
0.15906882684556695
40
0.15906882684556695
40
0.15906882684556695
40
0.15906882684556695
10
-26.929443999623341
20
21.969010555696808
30
0
10
-26.725862007257778
20
22.145863042827401
30
0
10
-26.314438886444016
20
22.503267945557131
30
0
10
-25.77087089557547
20
22.547315457125976
30
0
10
-25.496273336772809
20
22.569567207323431
30
0
0
SPLINE
5
252
100
AcDbEntity
8
0
100
AcDbSpline
70
0
71
3
72
9
73
5
74
0
42
0.000000001
43
0.0000000001
44
0.0000000001
40
0
40
0
40
0
40
0
40
0.088231714739937878
40
0.17010864308841922
40
0.17010864308841922
40
0.17010864308841922
40
0.17010864308841922
10
-25.496273336772809
20
22.569567207323431
30
0
10
-25.193997451406091
20
22.544708688019398
30
0
10
-24.611216748915595
20
22.496782055283539
30
0
10
-24.178814746071126
20
22.105364109436998
30
0
10
-23.970690413515982
20
21.916966280117247
30
0
0
SPLINE
5
253
100
AcDbEntity
8
0
100
AcDbSpline
70
0
71
3
72
9
73
5
74
0
42
0.000000001
43
0.0000000001
44
0.0000000001
40
0
40
0
40
0
40
0
40
0.091063107891076994
40
0.20686523962737838
40
0.20686523962737838
40
0.20686523962737838
40
0.20686523962737838
10
-23.970690413515982
20
21.916966280117247
30
0
10
-23.811268445544517
20
21.652352100947795
30
0
10
-23.44911450230623
20
21.051236272041915
30
0
10
-23.449727096763851
20
20.345418773036251
30
0
10
-23.45007002409282
20
19.95030564939659
30
0
0
LINE
5
254
100
AcDbEntity
8
0
100
AcDbLine
10
-23.45007002409282
20
19.95030564939659
30
0
11
-26.331289951853254
21
19.973086429877569
31
0
0
SPLINE
5
255
100
AcDbEntity
8
0
100
AcDbSpline
70
0
71
3
72
9
73
5
74
0
42
0.000000001
43
0.0000000001
44
0.0000000001
40
0
40
0
40
0
40
0
40
0.046106772442625843
40
0.085791258942659682
40
0.085791258942659682
40
0.085791258942659682
40
0.085791258942659682
10
-26.331289951853254
20
19.973086429877569
30
0
10
-26.321593568989641
20
19.816175560430935
30
0
10
-26.303551427911678
20
19.524210187049725
30
0
10
-26.136539056858112
20
19.285354543192899
30
0
10
-26.05928409794857
20
19.174867021609511
30
0
0
SPLINE
5
256
100
AcDbEntity
8
0
100
AcDbSpline
70
0
71
3
72
9
73
5
74
0
42
0.000000001
43
0.0000000001
44
0.0000000001
40
0
40
0
40
0
40
0
40
0.036711955348457663
40
0.073825196819334471
40
0.073825196819334471
40
0.073825196819334471
40
0.073825196819334471
10
-26.05928409794857
20
19.174867021609511
30
0
10
-25.965453288576533
20
19.09115933444026
30
0
10
-25.776766036593934
20
18.922828979330998
30
0
10
-25.525062077948203
20
18.897779101462564
30
0
10
-25.39852601439723
20
18.885186081650883
30
0
0
SPLINE
5
257
100
AcDbEntity
8
0
100
AcDbSpline
70
0
71
3
72
9
73
5
74
0
42
0.000000001
43
0.0000000001
44
0.0000000001
40
0
40
0
40
0
40
0
40
0.05820279363177449
40
0.11575789179562629
40
0.11575789179562629
40
0.11575789179562629
40
0.11575789179562629
10
-36.127950535295426
20
18.38064259429467
30
0
10
-36.296823530446829
20
18.482017595121533
30
0
10
-36.6326902591749
20
18.683639470022229
30
0
10
-36.842191174202441
20
19.014556748199684
30
0
10
-36.946355525701826
20
19.17908960323167
30
0
0
SPLINE
5
258
100
AcDbEntity
8
0
100
AcDbSpline
70
0
71
3
72
9
73
5
74
0
42
0.000000001
43
0.0000000001
44
0.0000000001
40
0
40
0
40
0
40
0
40
0.061616229675716949
40
0.13119422069554038
40
0.13119422069554038
40
0.13119422069554038
40
0.13119422069554038
10
-36.946355525701826
20
19.17908960323167
30
0
10
-37.027134849597658
20
19.36991606222248
30
0
10
-37.199131424243681
20
19.776226683744575
30
0
10
-37.211919291986192
20
20.217866370897255
30
0
10
-37.218701253434141
20
20.452087070740568
30
0
0
SPLINE
5
259
100
AcDbEntity
8
0
100
AcDbSpline
70
0
71
3
72
9
73
5
74
0
42
0.000000001
43
0.0000000001
44
0.0000000001
40
0
40
0
40
0
40
0
40
0.056818223696676738
40
0.11532291188975458
40
0.11532291188975458
40
0.11532291188975458
40
0.11532291188975458
10
-37.218701253434141
20
20.452087070740568
30
0
10
-37.204753487908221
20
20.642712220917989
30
0
10
-37.176443962721521
20
21.029620609945439
30
0
10
-37.011312096386398
20
21.380802149826337
30
0
10
-36.927538731732611
20
21.558960732134231
30
0
0
SPLINE
5
260
100
AcDbEntity
8
0
100
AcDbSpline
70
0
71
3
72
9
73
5
74
0
42
0.000000001
43
0.0000000001
44
0.0000000001
40
0
40
0
40
0
40
0
40
0.05830086060191024
40
0.1157635164636847
40
0.1157635164636847
40
0.1157635164636847
40
0.1157635164636847
10
-36.927538731732611
20
21.558960732134231
30
0
10
-36.822908982566453
20
21.725935827869144
30
0
10
-36.615153769948023
20
22.057485380389814
30
0
10
-36.284892012500507
20
22.26710981640958
30
0
10
-36.120956791005533
20
22.371163124353117
30
0
0
SPLINE
5
261
100
AcDbEntity
8
0
100
AcDbSpline
70
0
71
3
72
9
73
5
74
0
42
0.000000001
43
0.0000000001
44
0.0000000001
40
0
40
0
40
0
40
0
40
0.058743077279113105
40
0.11998033992534193
40
0.11998033992534193
40
0.11998033992534193
40
0.11998033992534193
10
-36.120956791005533
20
22.371163124353117
30
0
10
-35.94057604572096
20
22.452096295885177
30
0
10
-35.57215572901881
20
22.617398998457517
30
0
10
-35.168549762246514
20
22.635284861105838
30
0
10
-34.962551641152679
20
22.644413700625144
30
0
0
SPLINE
5
262
100
AcDbEntity
8
0
100
AcDbSpline
70
0
71
3
72
9
73
5
74
0
42
0.000000001
43
0.0000000001
44
0.0000000001
40
0
40
0
40
0
40
0
40
0.091151385395171827
40
0.17764835235892334
40
0.17764835235892334
40
0.17764835235892334
40
0.17764835235892334
10
-34.962551641152679
20
22.644413700625144
30
0
10
-34.651721661685407
20
22.618177189849167
30
0
10
-34.045933461355496
20
22.5670438703632
30
0
10
-33.578578822693494
20
22.179720804554265
30
0
10
-33.351023890694869
20
21.991133238259888
30
0
0
SPLINE
5
263
100
AcDbEntity
8
0
100
AcDbSpline
70
0
71
3
72
9
73
5
74
0
42
0.000000001
43
0.0000000001
44
0.0000000001
40
0
40
0
40
0
40
0
40
0.086544091164849721
40
0.17729831359302767
40
0.17729831359302767
40
0.17729831359302767
40
0.17729831359302767
10
-33.351023890694869
20
21.991133238259888
30
0
10
-33.16905255228847
20
21.758404932442197
30
0
10
-32.796257471914181
20
21.281626730817305
30
0
10
-32.754783092260801
20
20.677001416306577
30
0
10
-32.733553476480175
20
20.367510033299023
30
0
0
SPLINE
5
264
100
AcDbEntity
8
0
100
AcDbSpline
70
0
71
3
72
9
73
5
74
0
42
0.000000001
43
0.0000000001
44
0.0000000001
40
0
40
0
40
0
40
0
40
0.091586982550942123
40
0.1790681398408957
40
0.1790681398408957
40
0.1790681398408957
40
0.1790681398408957
10
-32.733553476480175
20
20.367510033299023
30
0
10
-32.760021376343914
20
20.055603452628247
30
0
10
-32.811770625659534
20
19.445772998024239
30
0
10
-33.195448257979365
20
18.969975493296683
30
0
10
-33.382888432046229
20
18.7375314840708
30
0
0
SPLINE
5
265
100
AcDbEntity
8
0
100
AcDbSpline
70
0
71
3
72
9
73
5
74
0
42
0.000000001
43
0.0000000001
44
0.0000000001
40
0
40
0
40
0
40
0
40
0.086796844609560636
40
0.17662562714316915
40
0.17662562714316915
40
0.17662562714316915
40
0.17662562714316915
10
-33.382888432046229
20
18.7375314840708
30
0
10
-33.612924400259381
20
18.550155423568651
30
0
10
-34.081031822066024
20
18.168857988774995
30
0
10
-34.683752224407321
20
18.124219250475619
30
0
10
-34.990285544776512
20
18.101516749258067
30
0
0
SPLINE
5
266
100
AcDbEntity
8
0
100
AcDbSpline
70
0
71
3
72
9
73
5
74
0
42
0.000000001
43
0.0000000001
44
0.0000000001
40
0
40
0
40
0
40
0
40
0.058762289900756381
40
0.11794829166171847
40
0.11794829166171847
40
0.11794829166171847
40
0.11794829166171847
10
-34.990285544776512
20
18.101516749258067
30
0
10
-35.187389940385344
20
18.114491050535221
30
0
10
-35.583019974210451
20
18.140533205695085
30
0
10
-35.945872516833937
20
18.300414681213109
30
0
10
-36.127950535295426
20
18.38064259429467
30
0
0
LWPOLYLINE
5
267
100
AcDbEntity
8
0
100
AcDbPolyline
90
6
70
1
43
0.0
10
-37.817719383048811
20
19.233046849964712
10
-37.825712069218469
20
18.222164598256331
10
-42.049317768557884
20
18.255559145249357
10
-42.00226769213532
20
24.20626034726876
10
-40.790845920883797
20
24.196682066494404
10
-40.829903311136711
20
19.256863116183386
0
LINE
5
268
100
AcDbEntity
8
0
100
AcDbLine
10
-51.076204104399842
20
24.208424864141694
30
0
11
-51.088338752370611
21
22.673684227012206
31
0
0
LINE
5
269
100
AcDbEntity
8
0
100
AcDbLine
10
-51.088338752370611
20
22.673684227012206
30
0
11
-50.302551174238957
21
22.66747128431053
31
0
0
LINE
5
270
100
AcDbEntity
8
0
100
AcDbLine
10
-50.302551174238957
20
22.66747128431053
30
0
11
-50.309799602678346
21
21.750719705851417
31
0
0
LINE
5
271
100
AcDbEntity
8
0
100
AcDbLine
10
-50.309799602678346
20
21.750719705851417
30
0
11
-51.09558718081
21
21.756932648553089
31
0
0
LINE
5
272
100
AcDbEntity
8
0
100
AcDbLine
10
-51.09558718081
20
21.756932648553089
30
0
11
-51.109436859102708
21
20.005281991839524
31
0
0
SPLINE
5
273
100
AcDbEntity
8
0
100
AcDbSpline
70
0
71
3
72
9
73
5
74
0
42
0.000000001
43
0.0000000001
44
0.0000000001
40
0
40
0
40
0
40
0
40
0.042108005315298874
40
0.062080641295111517
40
0.062080641295111517
40
0.062080641295111517
40
0.062080641295111517
10
-51.109436859102715
20
20.005281991839531
30
0
10
-51.112059259264662
20
19.864784744908828
30
0
10
-51.115925514209941
20
19.657646954259633
30
0
10
-51.097694850168793
20
19.451417653877421
30
0
10
-51.091829665644788
20
19.385069390409498
30
0
0
SPLINE
5
274
100
AcDbEntity
8
0
100
AcDbSpline
70
0
71
3
72
9
73
5
74
0
42
0.000000001
43
0.0000000001
44
0.0000000001
40
0
40
0
40
0
40
0
40
0.0088363023105609995
40
0.01806122250992425
40
0.01806122250992425
40
0.01806122250992425
40
0.01806122250992425
10
-51.091829665644788
20
19.385069390409498
30
0
10
-51.081886407731567
20
19.356742185621322
30
0
10
-51.061562590445497
20
19.298841954191719
30
0
10
-51.014632056359673
20
19.259212534304023
30
0
10
-50.990661894228218
20
19.238971477210008
30
0
0
SPLINE
5
275
100
AcDbEntity
8
0
100
AcDbSpline
70
0
71
3
72
9
73
5
74
0
42
0.000000001
43
0.0000000001
44
0.0000000001
40
0
40
0
40
0
40
0
40
0.0098387045178705852
40
0.020525232689267842
40
0.020525232689267842
40
0.020525232689267842
40
0.020525232689267842
10
-50.990661894228218
20
19.238971477210008
30
0
10
-50.962011433640143
20
19.222040291808419
30
0
10
-50.902241636797825
20
19.186718922064934
30
0
10
-50.832845705128463
20
19.18239062022764
30
0
10
-50.796714490930199
20
19.180137076006304
30
0
0
SPLINE
5
276
100
AcDbEntity
8
0
100
AcDbSpline
70
0
71
3
72
9
73
5
74
0
42
0.000000001
43
0.0000000001
44
0.0000000001
40
0
40
0
40
0
40
0
40
0.019737221870831517
40
0.047699105655065549
40
0.047699105655065549
40
0.047699105655065549
40
0.047699105655065549
10
-50.796714490930199
20
19.180137076006304
30
0
10
-50.731039798053821
20
19.186697236304354
30
0
10
-50.572323230196623
20
19.202551229395112
30
0
10
-50.421680792202181
20
19.255778879702085
30
0
10
-50.33337208522903
20
19.286981673791228
30
0
0
LINE
5
277
100
AcDbEntity
8
0
100
AcDbLine
10
-50.33337208522903
20
19.286981673791228
30
0
11
-50.242203355134421
21
18.394009827118055
31
0
0
SPLINE
5
278
100
AcDbEntity
8
0
100
AcDbSpline
70
0
71
3
72
9
73
5
74
0
42
0.000000001
43
0.0000000001
44
0.0000000001
40
0
40
0
40
0
40
0
40
0.044670250267349443
40
0.092951869363060796
40
0.092951869363060796
40
0.092951869363060796
40
0.092951869363060796
10
-50.242203355134421
20
18.394009827118055
30
0
10
-50.383779485833003
20
18.34501250550673
30
0
10
-50.678377477267169
20
18.243056671136021
30
0
10
-50.990173303668378
20
18.234004578785978
30
0
10
-51.152128167288566
20
18.229302686528637
30
0
0
SPLINE
5
279
100
AcDbEntity
8
0
100
AcDbSpline
70
0
71
3
72
9
73
5
74
0
42
0.000000001
43
0.0000000001
44
0.0000000001
40
0
40
0
40
0
40
0
40
0.029685215682128747
40
0.057317755857992717
40
0.057317755857992717
40
0.057317755857992717
40
0.057317755857992717
10
-51.152128167288566
20
18.229302686528637
30
0
10
-51.251614077300012
20
18.233779715930936
30
0
10
-51.443706638203281
20
18.242424196772781
30
0
10
-51.624727071972565
20
18.306977310498166
30
0
10
-51.71199591796811
20
18.338097972530246
30
0
0
SPLINE
5
280
100
AcDbEntity
8
0
100
AcDbSpline
70
0
71
3
72
9
73
5
74
0
42
0.000000001
43
0.0000000001
44
0.0000000001
40
0
40
0
40
0
40
0
40
0.024731078903546762
40
0.04596595637990069
40
0.04596595637990069
40
0.04596595637990069
40
0.04596595637990069
10
-51.71199591796811
20
18.338097972530246
30
0
10
-51.787603312048596
20
18.373628263322715
30
0
10
-51.928129578284519
20
18.439665972518554
30
0
10
-52.029377865882857
20
18.556933782911319
30
0
10
-52.076151503399977
20
18.611107954009377
30
0
0
SPLINE
5
281
100
AcDbEntity
8
0
100
AcDbSpline
70
0
71
3
72
9
73
5
74
0
42
0.000000001
43
0.0000000001
44
0.0000000001
40
0
40
0
40
0
40
0
40
0.021850015901140413
40
0.047944209476110444
40
0.047944209476110444
40
0.047944209476110444
40
0.047944209476110444
10
-52.076151503399977
20
18.611107954009377
30
0
10
-52.112057457981919
20
18.675065049393687
30
0
10
-52.190843790024189
20
18.815402355895557
30
0
10
-52.21896326323899
20
18.9741376043578
30
0
10
-52.234267613551793
20
19.060531109346321
30
0
0
SPLINE
5
282
100
AcDbEntity
8
0
100
AcDbSpline
70
0
71
3
72
9
73
5
74
0
42
0.000000001
43
0.0000000001
44
0.0000000001
40
0
40
0
40
0
40
0
40
0.030412292206356838
40
0.081170899988756637
40
0.081170899988756637
40
0.081170899988756637
40
0.081170899988756637
10
-52.234267613551793
20
19.060531109346321
30
0
10
-52.244059256615493
20
19.161491455530278
30
0
10
-52.270193310387427
20
19.430956253097069
30
0
10
-52.26680971385521
20
19.7017989661157
30
0
10
-52.264693849065054
20
19.871165069518995
30
0
0
LINE
5
283
100
AcDbEntity
8
0
100
AcDbLine
10
-52.264693849065054
20
19.871165069518995
30
0
11
-52.24971160589044
21
21.766057899604622
31
0
0
LINE
5
284
100
AcDbEntity
8
0
100
AcDbLine
10
-52.24971160589044
20
21.766057899604622
30
0
11
-52.777662318307875
21
21.770232217978759
31
0
0
LINE
5
285
100
AcDbEntity
8
0
100
AcDbLine
10
-52.777662318307875
20
21.770232217978759
30
0
11
-52.770413889868486
21
22.686983796437868
31
0
0
LINE
5
286
100
AcDbEntity
8
0
100
AcDbLine
10
-52.770413889868486
20
22.686983796437868
30
0
11
-52.242463177451057
21
22.682809478063731
31
0
0
LINE
5
287
100
AcDbEntity
8
0
100
AcDbLine
10
-52.242463177451057
20
22.682809478063731
30
0
11
-52.235635412736329
21
23.546357229403728
31
0
0
LINE
5
288
100
AcDbEntity
8
0
100
AcDbLine
10
-52.235635412736329
20
23.546357229403728
30
0
11
-51.076204104399842
21
24.208424864141694
31
0
0
LWPOLYLINE
5
289
100
AcDbEntity
8
0
100
AcDbPolyline
90
4
70
1
43
0.0
10
-53.461275307778223
20
24.345977212308867
10
-53.469688667097685
20
23.281889941425725
10
-54.61972076518181
20
23.290982835904252
10
-54.611307405862355
20
24.355070106787391
0
LINE
5
290
100
AcDbEntity
8
0
100
AcDbLine
10
-40.469189460006248
20
27.607615786786582
30
0
11
-41.025786461397956
21
27.612016601171803
31
0
0
LINE
5
291
100
AcDbEntity
8
0
100
AcDbLine
10
-41.025786461397956
20
27.612016601171803
30
0
11
-41.016693562206839
21
28.762049295283745
31
0
0
LINE
5
292
100
AcDbEntity
8
0
100
AcDbLine
10
-41.016693562206839
20
28.762049295283745
30
0
11
-39.866662656178356
21
28.752956410230389
31
0
0
LINE
5
293
100
AcDbEntity
8
0
100
AcDbLine
10
-39.866662656178356
20
28.752956410230389
30
0
11
-39.873166831600052
21
27.930334908992727
31
0
0
SPLINE
5
294
100
AcDbEntity
8
0
100
AcDbSpline
70
0
71
3
72
9
73
5
74
0
42
0.000000001
43
0.0000000001
44
0.0000000001
40
0
40
0
40
0
40
0
40
0.04471400988959006
40
0.079440949642966024
40
0.079440949642966024
40
0.079440949642966024
40
0.079440949642966024
10
-39.873166831600052
20
27.930334908992727
30
0
10
-39.875740780671912
20
27.78079553973491
30
0
10
-39.880313776006147
20
27.515117074927467
30
0
10
-39.939477745727999
20
27.256314609209099
30
0
10
-39.965340775076648
20
27.143181298549806
30
0
0
SPLINE
5
295
100
AcDbEntity
8
0
100
AcDbSpline
70
0
71
3
72
9
73
5
74
0
42
0.000000001
43
0.0000000001
44
0.0000000001
40
0
40
0
40
0
40
0
40
0.030061484215177039
40
0.061680247999863713
40
0.061680247999863713
40
0.061680247999863713
40
0.061680247999863713
10
-39.965340775076648
20
27.143181298549806
30
0
10
-40.002098329806159
20
27.048847469300483
30
0
10
-40.07751759637852
20
26.855293021315596
30
0
10
-40.221162719980953
20
26.70505177873952
30
0
10
-40.294798630653972
20
26.628034540421325
30
0
0
SPLINE
5
296
100
AcDbEntity
8
0
100
AcDbSpline
70
0
71
3
72
9
73
5
74
0
42
0.000000001
43
0.0000000001
44
0.0000000001
40
0
40
0
40
0
40
0
40
0.03401111742781298
40
0.07104667173787102
40
0.07104667173787102
40
0.07104667173787102
40
0.07104667173787102
10
-40.294798630653972
20
26.628034540421325
30
0
10
-40.382974260857367
20
26.555584574604573
30
0
10
-40.567166534681824
20
26.404242033456722
30
0
10
-40.78950315946345
20
26.317765817123519
30
0
10
-40.905403875722143
20
26.272687074823622
30
0
0
LINE
5
297
100
AcDbEntity
8
0
100
AcDbLine
10
-40.905403875722151
20
26.272687074823622
30
0
11
-41.126746086705019
21
26.749213713015049
31
0
0
SPLINE
5
298
100
AcDbEntity
8
0
100
AcDbSpline
70
0
71
3
72
9
73
5
74
0
42
0.000000001
43
0.0000000001
44
0.0000000001
40
0
40
0
40
0
40
0
40
0.032737363799743062
40
0.059394114921440998
40
0.059394114921440998
40
0.059394114921440998
40
0.059394114921440998
10
-41.126746086705012
20
26.749213713015049
30
0
10
-41.022128344456661
20
26.786049279203365
30
0
10
-40.83232447863746
20
26.852878601954213
30
0
10
-40.692017349597961
20
26.996135829794859
30
0
10
-40.629045921799872
20
27.060431295330183
30
0
0
SPLINE
5
299
100
AcDbEntity
8
0
100
AcDbSpline
70
0
71
3
72
9
73
5
74
0
42
0.000000001
43
0.0000000001
44
0.0000000001
40
0
40
0
40
0
40
0
40
0.026271179680880354
40
0.057671716748576962
40
0.057671716748576962
40
0.057671716748576962
40
0.057671716748576962
10
-40.629045921799872
20
27.060431295330183
30
0
10
-40.585102265784492
20
27.13747747197236
30
0
10
-40.488635106205052
20
27.30661282599312
30
0
10
-40.476044610831678
20
27.501503566393271
30
0
10
-40.469189460006248
20
27.607615786786582
30
0
0
LINE
5
300
100
AcDbEntity
8
0
100
AcDbLine
10
-47.894912363137642
20
33.666515519299665
30
0
11
-46.744880265053517
21
33.657422624821145
31
0
0
LINE
5
301
100
AcDbEntity
8
0
100
AcDbLine
10
-46.744880265053517
20
33.657422624821145
30
0
11
-46.792318643915145
21
27.657610518706768
31
0
0
LINE
5
302
100
AcDbEntity
8
0
100
AcDbLine
10
-46.792318643915145
20
27.657610518706768
30
0
11
-47.860498241794609
21
27.666056234599225
31
0
0
LINE
5
303
100
AcDbEntity
8
0
100
AcDbLine
10
-47.860498241794609
20
27.666056234599225
30
0
11
-47.855450229973002
21
28.304508120306853
31
0
0
SPLINE
5
304
100
AcDbEntity
8
0
100
AcDbSpline
70
0
71
3
72
9
73
5
74
0
42
0.000000001
43
0.0000000001
44
0.0000000001
40
0
40
0
40
0
40
0
40
0.043552302146567565
40
0.084432639561095715
40
0.084432639561095715
40
0.084432639561095715
40
0.084432639561095715
10
-47.855450229972988
20
28.304508120306853
30
0
10
-47.947015471473435
20
28.190050553058192
30
0
10
-48.12452836174301
20
27.968157471768858
30
0
10
-48.369463436413788
20
27.82448534251639
30
0
10
-48.488055352398462
20
27.754922610006354
30
0
0
SPLINE
5
305
100
AcDbEntity
8
0
100
AcDbSpline
70
0
71
3
72
9
73
5
74
0
42
0.000000001
43
0.0000000001
44
0.0000000001
40
0
40
0
40
0
40
0
40
0.038854688217758358
40
0.075817730197391658
40
0.075817730197391658
40
0.075817730197391658
40
0.075817730197391658
10
-48.488055352398462
20
27.754922610006354
30
0
10
-48.607854020624757
20
27.702756942531707
30
0
10
-48.841618941209987
20
27.600965300812852
30
0
10
-49.096010210594727
20
27.585913822535773
30
0
10
-49.22003232448602
20
27.57857584998024
30
0
0
SPLINE
5
306
100
AcDbEntity
8
0
100
AcDbSpline
70
0
71
3
72
9
73
5
74
0
42
0.000000001
43
0.0000000001
44
0.0000000001
40
0
40
0
40
0
40
0
40
0.071145012891755982
40
0.14534285192359964
40
0.14534285192359964
40
0.14534285192359964
40
0.14534285192359964
10
-49.22003232448602
20
27.57857584998024
30
0
10
-49.462300381635245
20
27.607693749416239
30
0
10
-49.957232196597914
20
27.667178994748774
30
0
10
-50.31543759349411
20
28.014882001360697
30
0
10
-50.498302220322898
20
28.192385135323143
30
0
0
SPLINE
5
307
100
AcDbEntity
8
0
100
AcDbSpline
70
0
71
3
72
9
73
5
74
0
42
0.000000001
43
0.0000000001
44
0.0000000001
40
0
40
0
40
0
40
0
40
0.082645470816035113
40
0.1796973436096797
40
0.1796973436096797
40
0.1796973436096797
40
0.1796973436096797
10
-50.498302220322898
20
28.192385135323143
30
0
10
-50.651966588271819
20
28.427232690292232
30
0
10
-50.986081433952194
20
28.937865412986884
30
0
10
-51.007505465064028
20
29.550081209504107
30
0
10
-51.019076266837857
20
29.880729890293228
30
0
0
SPLINE
5
308
100
AcDbEntity
8
0
100
AcDbSpline
70
0
71
3
72
9
73
5
74
0
42
0.000000001
43
0.0000000001
44
0.0000000001
40
0
40
0
40
0
40
0
40
0.098118738210139472
40
0.1789013023119001
40
0.1789013023119001
40
0.1789013023119001
40
0.1789013023119001
10
-51.019076266837857
20
29.880729890293228
30
0
10
-51.004520260943437
20
30.215151251343002
30
0
10
-50.977980086676254
20
30.824906514242826
30
0
10
-50.639063839659322
20
31.329018835289233
30
0
10
-50.486026812561313
20
31.556649855092655
30
0
0
SPLINE
5
309
100
AcDbEntity
8
0
100
AcDbSpline
70
0
71
3
72
9
73
5
74
0
42
0.000000001
43
0.0000000001
44
0.0000000001
40
0
40
0
40
0
40
0
40
0.072947689159488918
40
0.14690271186113041
40
0.14690271186113041
40
0.14690271186113041
40
0.14690271186113041
10
-50.486026812561313
20
31.556649855092655
30
0
10
-50.29912456352772
20
31.722893420666217
30
0
10
-49.922739135115449
20
32.057676206709324
30
0
10
-49.420556403254807
20
32.099981140171622
30
0
10
-49.167743266828609
20
32.121278652484079
30
0
0
SPLINE
5
310
100
AcDbEntity
8
0
100
AcDbSpline
70
0
71
3
72
9
73
5
74
0
42
0.000000001
43
0.0000000001
44
0.0000000001
40
0
40
0
40
0
40
0
40
0.069607190988045145
40
0.14337365986294109
40
0.14337365986294109
40
0.14337365986294109
40
0.14337365986294109
10
-49.167743266828609
20
32.121278652484079
30
0
10
-48.930906158703721
20
32.091361587592374
30
0
10
-48.443080080661723
20
32.029739806494824
30
0
10
-48.092416248534875
20
31.683660640486664
30
0
10
-47.911997943785835
20
31.505601169507162
30
0
0
LINE
5
311
100
AcDbEntity
8
0
100
AcDbLine
10
-47.911997943785821
20
31.505601169507162
30
0
11
-47.894912363137642
21
33.666515519299665
31
0
0
LWPOLYLINE
5
312
100
AcDbEntity
8
0
100
AcDbPolyline
90
13
70
1
43
0.0
10
-61.267483879751055
20
32.495264085616355
10
-61.304826234969454
20
27.772355750917232
10
-62.430302545740446
20
27.781254491525395
10
-62.382864162166243
20
33.781067193667596
10
-60.569824167550912
20
33.766732131729903
10
-59.513540505875682
20
29.66548292217897
10
-58.404816894734267
20
33.749614189796155
10
-56.587683641829152
20
33.735246763922049
10
-56.635122025403355
20
27.735434061779848
10
-57.760598969453909
20
27.744332807395125
10
-57.723256614235503
20
32.467241142094252
10
-58.951557615654266
20
27.753749293522965
10
-60.117960213779327
20
27.762971623718698
0
LWPOLYLINE
5
313
100
AcDbEntity
8
0
100
AcDbPolyline
90
73
70
1
43
0.0
10
-159.99999999999997
20
54.000000000000099
10
-162.99999999999997
20
54.000000000000099
10
-162.99999999999997
20
48.000000000000107
10
-159.99999999999997
20
48.000000000000107
10
-159.99999999999997
20
42.000000000000099
10
-162.99999999999997
20
42.000000000000099
10
-162.99999999999997
20
36.000000000000107
10
-159.99999999999997
20
36.000000000000107
10
-159.99999999999997
20
30.000000000000107
10
-162.99999999999997
20
30.000000000000107
10
-162.99999999999997
20
24.00000000000011
10
-159.99999999999997
20
24.00000000000011
10
-159.99999999999997
20
18.000000000000107
10
-162.99999999999997
20
18.000000000000107
10
-162.99999999999997
20
12.000000000000108
10
-159.99999999999997
20
12.000000000000108
10
-159.99999999999997
20
6.0000000000001066
10
-162.99999999999997
20
6.0000000000001048
10
-162.99999999999997
20
1.1435297153639112e-13
10
-14.999999999999627
20
8.0919128468281556e-14
10
-5
20
9.9999999999997016
10
-5
20
18.000000000000082
10
-10
20
18.000000000000082
10
-10
20
24.000000000000085
10
-5
20
24.000000000000085
10
-5
20
30.000000000000085
10
-10
20
30.000000000000085
10
-10
20
36.000000000000085
10
-5
20
36.000000000000085
10
-5
20
42.000000000000092
10
-10
20
42.000000000000092
10
-10
20
48.000000000000085
10
-5
20
48.000000000000085
10
-5
20
54.000000000000092
10
-10
20
54.000000000000092
10
-10
20
60.000000000000085
10
-5
20
60.000000000000085
10
-5
20
66.000000000000085
10
-10
20
66.000000000000085
10
-10
20
72.000000000000085
10
-5
20
72.000000000000085
10
-5
20
78.000000000000099
10
-10
20
78.000000000000099
10
-10
20
84.000000000000085
10
-5
20
84.000000000000085
10
-5
20
90.000000000000071
10
-10
20
90.000000000000071
10
-10
20
96.000000000000085
10
-5
20
96.000000000000085
10
-5
20
102.0000000000001
10
-10
20
102.0000000000001
10
-10
20
108.00000000000009
10
-5
20
108.00000000000009
10
-5
20
114.00000000000009
10
-10
20
114.00000000000009
10
-10
20
120.00000000000007
10
-5
20
120.00000000000007
10
-5
20
129.99999999999969
10
-162.99999999999997
20
100.00000000000011
10
-162.99999999999997
20
96.000000000000099
10
-159.99999999999997
20
96.000000000000099
10
-159.99999999999997
20
90.000000000000114
10
-162.99999999999997
20
90.000000000000114
10
-162.99999999999997
20
84.000000000000085
10
-159.99999999999997
20
84.000000000000085
10
-159.99999999999997
20
78.000000000000085
10
-162.99999999999997
20
78.000000000000099
10
-162.99999999999997
20
72.000000000000114
10
-159.99999999999997
20
72.000000000000114
10
-159.99999999999997
20
66.000000000000099
10
-162.99999999999997
20
66.000000000000099
10
-162.99999999999997
20
60.000000000000107
10
-159.99999999999997
20
60.000000000000107
0
ENDSEC
0
SECTION
2
OBJECTS
0
DICTIONARY
5
C
100
AcDbDictionary
3
ACAD_GROUP
350
D
3
ACAD_MLINESTYLE
350
17
0
DICTIONARY
5
D
100
AcDbDictionary
0
DICTIONARY
5
1A
330
C
100
AcDbDictionary
0
DICTIONARY
5
17
100
AcDbDictionary
0
ENDSEC
0
EOF
