0
SECTION
2
HEADER
9
$INSUNITS
70
4
9
$ACADVER
1
AC1014
9
$HANDSEED
5
FFFF
0
ENDSEC
0
SECTION
2
TABLES
0
TABLE
2
VPORT
5
8
100
AcDbSymbolTable
0
ENDTAB
0
TABLE
2
LTYPE
5
5
100
AcDbSymbolTable
0
LTYPE
5
14
100
AcDbSymbolTableRecord
100
AcDbLinetypeTableRecord
2
BYBLOCK
70
0
0
LTYPE
5
15
100
AcDbSymbolTableRecord
100
AcDbLinetypeTableRecord
2
BYLAYER
70
0
0
ENDTAB
0
TABLE
2
LAYER
5
2
100
AcDbSymbolTable
70
2
0
LAYER
5
50
100
AcDbSymbolTableRecord
100
AcDbLayerTableRecord
2
0
70
0
6
CONTINUOUS
0
ENDTAB
0
TABLE
2
STYLE
5
3
100
AcDbSymbolTable
70
1
0
STYLE
5
11
100
AcDbSymbolTableRecord
100
AcDbTextStyleTableRecord
2
STANDARD
70
0
0
ENDTAB
0
TABLE
2
VIEW
5
6
100
AcDbSymbolTable
70
0
0
ENDTAB
0
TABLE
2
UCS
5
7
100
AcDbSymbolTable
70
0
0
ENDTAB
0
TABLE
2
APPID
5
9
100
AcDbSymbolTable
70
2
0
APPID
5
12
100
AcDbSymbolTableRecord
100
AcDbRegAppTableRecord
2
ACAD
70
0
0
ENDTAB
0
TABLE
2
DIMSTYLE
5
A
100
AcDbSymbolTable
70
1
0
ENDTAB
0
TABLE
2
BLOCK_RECORD
5
1
100
AcDbSymbolTable
70
1
0
BLOCK_RECORD
5
1F
100
AcDbSymbolTableRecord
100
AcDbBlockTableRecord
2
*MODEL_SPACE
0
BLOCK_RECORD
5
1B
100
AcDbSymbolTableRecord
100
AcDbBlockTableRecord
2
*PAPER_SPACE
0
ENDTAB
0
ENDSEC
0
SECTION
2
BLOCKS
0
BLOCK
5
20
100
AcDbEntity
100
AcDbBlockBegin
2
*MODEL_SPACE
0
ENDBLK
5
21
100
AcDbEntity
100
AcDbBlockEnd
0
BLOCK
5
1C
100
AcDbEntity
100
AcDbBlockBegin
2
*PAPER_SPACE
0
ENDBLK
5
1D
100
AcDbEntity
100
AcDbBlockEnd
0
ENDSEC
0
SECTION
2
ENTITIES
0
LWPOLYLINE
5
100
100
AcDbEntity
8
0
100
AcDbPolyline
90
71
70
1
43
0.0
10
-315.99999999999994
20
114.00000000000009
10
-320.99999999999994
20
114.00000000000009
10
-320.99999999999994
20
108.00000000000009
10
-315.99999999999994
20
108.00000000000009
10
-315.99999999999994
20
102.0000000000001
10
-320.99999999999994
20
102.0000000000001
10
-320.99999999999994
20
96.000000000000085
10
-315.99999999999994
20
96.000000000000085
10
-315.99999999999994
20
90.000000000000071
10
-320.99999999999994
20
90.000000000000071
10
-320.99999999999994
20
84.000000000000085
10
-315.99999999999994
20
84.000000000000085
10
-315.99999999999994
20
78.000000000000085
10
-320.99999999999994
20
78.000000000000099
10
-320.99999999999994
20
72.000000000000085
10
-315.99999999999994
20
72.000000000000085
10
-315.99999999999994
20
66.000000000000085
10
-320.99999999999994
20
66.000000000000085
10
-320.99999999999994
20
60.000000000000085
10
-315.99999999999994
20
60.000000000000085
10
-315.99999999999994
20
54.000000000000092
10
-320.99999999999994
20
54.000000000000092
10
-320.99999999999994
20
48.000000000000085
10
-315.99999999999994
20
48.000000000000085
10
-315.99999999999994
20
42.000000000000092
10
-320.99999999999994
20
42.000000000000092
10
-320.99999999999994
20
36.000000000000085
10
-315.99999999999994
20
36.000000000000085
10
-315.99999999999994
20
30.000000000000085
10
-320.99999999999994
20
30.000000000000085
10
-320.99999999999994
20
24.000000000000085
10
-315.99999999999994
20
24.000000000000085
10
-315.99999999999994
20
18.000000000000082
10
-320.99999999999994
20
18.000000000000082
10
-320.99999999999994
20
9.9999999999997033
10
-311.00000000000028
20
8.1046280797636427e-14
10
-165.99999999999997
20
1.0371032074911514e-13
10
-165.99999999999997
20
6.0000000000001039
10
-162.99999999999997
20
6.0000000000001048
10
-162.99999999999997
20
12.000000000000103
10
-165.99999999999997
20
12.000000000000103
10
-165.99999999999997
20
18.000000000000107
10
-162.99999999999997
20
18.000000000000107
10
-162.99999999999997
20
24.000000000000107
10
-165.99999999999997
20
24.000000000000107
10
-165.99999999999997
20
30.000000000000107
10
-162.99999999999997
20
30.000000000000107
10
-162.99999999999997
20
36.000000000000099
10
-165.99999999999997
20
36.000000000000099
10
-165.99999999999997
20
42.000000000000099
10
-162.99999999999997
20
42.000000000000099
10
-162.99999999999997
20
48.000000000000107
10
-165.99999999999997
20
48.000000000000107
10
-165.99999999999997
20
54.000000000000099
10
-162.99999999999997
20
54.000000000000099
10
-162.99999999999997
20
60.000000000000107
10
-165.99999999999997
20
60.000000000000107
10
-165.99999999999997
20
66.000000000000099
10
-162.99999999999997
20
66.000000000000099
10
-162.99999999999997
20
72.000000000000099
10
-165.99999999999997
20
72.000000000000099
10
-165.99999999999997
20
78.000000000000099
10
-162.99999999999997
20
78.000000000000099
10
-162.99999999999997
20
84.000000000000085
10
-165.99999999999997
20
84.000000000000085
10
-165.99999999999997
20
90.000000000000114
10
-162.99999999999997
20
90.000000000000114
10
-162.99999999999997
20
100.00000000000011
10
-320.99999999999994
20
129.99999999999969
10
-320.99999999999994
20
120.00000000000007
10
-315.99999999999994
20
120.00000000000007
0
ENDSEC
0
SECTION
2
OBJECTS
0
DICTIONARY
5
C
100
AcDbDictionary
3
ACAD_GROUP
350
D
3
ACAD_MLINESTYLE
350
17
0
DICTIONARY
5
D
100
AcDbDictionary
0
DICTIONARY
5
1A
330
C
100
AcDbDictionary
0
DICTIONARY
5
17
100
AcDbDictionary
0
ENDSEC
0
EOF
