0
SECTION
2
HEADER
9
$INSUNITS
70
4
9
$ACADVER
1
AC1014
9
$HANDSEED
5
FFFF
0
ENDSEC
0
SECTION
2
TABLES
0
TABLE
2
VPORT
5
8
100
AcDbSymbolTable
0
ENDTAB
0
TABLE
2
LTYPE
5
5
100
AcDbSymbolTable
0
LTYPE
5
14
100
AcDbSymbolTableRecord
100
AcDbLinetypeTableRecord
2
BYBLOCK
70
0
0
LTYPE
5
15
100
AcDbSymbolTableRecord
100
AcDbLinetypeTableRecord
2
BYLAYER
70
0
0
ENDTAB
0
TABLE
2
LAYER
5
2
100
AcDbSymbolTable
70
2
0
LAYER
5
50
100
AcDbSymbolTableRecord
100
AcDbLayerTableRecord
2
0
70
0
6
CONTINUOUS
0
ENDTAB
0
TABLE
2
STYLE
5
3
100
AcDbSymbolTable
70
1
0
STYLE
5
11
100
AcDbSymbolTableRecord
100
AcDbTextStyleTableRecord
2
STANDARD
70
0
0
ENDTAB
0
TABLE
2
VIEW
5
6
100
AcDbSymbolTable
70
0
0
ENDTAB
0
TABLE
2
UCS
5
7
100
AcDbSymbolTable
70
0
0
ENDTAB
0
TABLE
2
APPID
5
9
100
AcDbSymbolTable
70
2
0
APPID
5
12
100
AcDbSymbolTableRecord
100
AcDbRegAppTableRecord
2
ACAD
70
0
0
ENDTAB
0
TABLE
2
DIMSTYLE
5
A
100
AcDbSymbolTable
70
1
0
ENDTAB
0
TABLE
2
BLOCK_RECORD
5
1
100
AcDbSymbolTable
70
1
0
BLOCK_RECORD
5
1F
100
AcDbSymbolTableRecord
100
AcDbBlockTableRecord
2
*MODEL_SPACE
0
BLOCK_RECORD
5
1B
100
AcDbSymbolTableRecord
100
AcDbBlockTableRecord
2
*PAPER_SPACE
0
ENDTAB
0
ENDSEC
0
SECTION
2
BLOCKS
0
BLOCK
5
20
100
AcDbEntity
100
AcDbBlockBegin
2
*MODEL_SPACE
0
ENDBLK
5
21
100
AcDbEntity
100
AcDbBlockEnd
0
BLOCK
5
1C
100
AcDbEntity
100
AcDbBlockBegin
2
*PAPER_SPACE
0
ENDBLK
5
1D
100
AcDbEntity
100
AcDbBlockEnd
0
ENDSEC
0
SECTION
2
ENTITIES
0
LWPOLYLINE
5
100
100
AcDbEntity
8
0
100
AcDbPolyline
90
10
70
1
43
0.0
10
-179.28756993589263
20
161.69927017832808
10
-181.74502606875961
20
160.4199994873812
10
-181.74502606875956
20
9.9999999999996447
10
-171.74502606875956
20
-3.5305092183079978e-13
10
0
20
2.2204460492503131e-15
10
18.254973931240414
20
26.070804633030153
10
18.254973931240414
20
40.648976575756883
10
16.254973931240421
20
40.648976575756883
10
10.232421349554432
20
32.047880110722467
42
-0.41421356237309592
10
6.7506001479543318
20
31.43394109087761
0
LWPOLYLINE
5
101
100
AcDbEntity
8
0
100
AcDbPolyline
90
4
70
1
43
0.0
10
-178.74502606875953
20
42.000000000000014
10
-173.74502606875953
20
42.000000000000014
10
-173.74502606875953
20
36.000000000000014
10
-178.74502606875953
20
36.000000000000007
0
LWPOLYLINE
5
102
100
AcDbEntity
8
0
100
AcDbPolyline
90
4
70
1
43
0.0
10
-178.74502606875956
20
78
10
-173.74502606875956
20
78
10
-173.74502606875956
20
72.000000000000014
10
-178.74502606875956
20
72.000000000000014
0
LWPOLYLINE
5
103
100
AcDbEntity
8
0
100
AcDbPolyline
90
4
70
1
43
0.0
10
-178.74502606875956
20
102.00000000000001
10
-173.74502606875956
20
102.00000000000001
10
-173.74502606875956
20
96.000000000000014
10
-178.74502606875956
20
96.000000000000014
0
LWPOLYLINE
5
104
100
AcDbEntity
8
0
100
AcDbPolyline
90
4
70
1
43
0.0
10
-178.74502606875956
20
90
10
-173.74502606875956
20
90
10
-173.74502606875956
20
84
10
-178.74502606875956
20
84
0
LWPOLYLINE
5
105
100
AcDbEntity
8
0
100
AcDbPolyline
90
4
70
1
43
0.0
10
-178.74502606875953
20
18.000000000000004
10
-173.74502606875953
20
18.000000000000004
10
-173.74502606875953
20
12.000000000000002
10
-178.74502606875953
20
12.000000000000002
0
LWPOLYLINE
5
106
100
AcDbEntity
8
0
100
AcDbPolyline
90
4
70
1
43
0.0
10
-178.74502606875953
20
30.000000000000004
10
-173.74502606875953
20
30.000000000000004
10
-173.74502606875953
20
24.000000000000004
10
-178.74502606875953
20
24.000000000000004
0
LWPOLYLINE
5
107
100
AcDbEntity
8
0
100
AcDbPolyline
90
4
70
1
43
0.0
10
-178.74502606875956
20
54
10
-173.74502606875956
20
54
10
-173.74502606875956
20
48.000000000000007
10
-178.74502606875956
20
48.000000000000007
0
LWPOLYLINE
5
108
100
AcDbEntity
8
0
100
AcDbPolyline
90
4
70
1
43
0.0
10
-178.74502606875956
20
66.000000000000014
10
-173.74502606875956
20
66.000000000000014
10
-173.74502606875956
20
60.000000000000014
10
-178.74502606875956
20
60.000000000000014
0
LWPOLYLINE
5
109
100
AcDbEntity
8
0
100
AcDbPolyline
90
4
70
1
43
0.0
10
-178.74502606875961
20
114
10
-173.74502606875961
20
114
10
-173.74502606875961
20
108
10
-178.74502606875961
20
108
0
ENDSEC
0
SECTION
2
OBJECTS
0
DICTIONARY
5
C
100
AcDbDictionary
3
ACAD_GROUP
350
D
3
ACAD_MLINESTYLE
350
17
0
DICTIONARY
5
D
100
AcDbDictionary
0
DICTIONARY
5
1A
330
C
100
AcDbDictionary
0
DICTIONARY
5
17
100
AcDbDictionary
0
ENDSEC
0
EOF
