0
SECTION
2
HEADER
9
$INSUNITS
70
4
9
$ACADVER
1
AC1014
9
$HANDSEED
5
FFFF
0
ENDSEC
0
SECTION
2
TABLES
0
TABLE
2
VPORT
5
8
100
AcDbSymbolTable
0
ENDTAB
0
TABLE
2
LTYPE
5
5
100
AcDbSymbolTable
0
LTYPE
5
14
100
AcDbSymbolTableRecord
100
AcDbLinetypeTableRecord
2
BYBLOCK
70
0
0
LTYPE
5
15
100
AcDbSymbolTableRecord
100
AcDbLinetypeTableRecord
2
BYLAYER
70
0
0
ENDTAB
0
TABLE
2
LAYER
5
2
100
AcDbSymbolTable
70
2
0
LAYER
5
50
100
AcDbSymbolTableRecord
100
AcDbLayerTableRecord
2
0
70
0
6
CONTINUOUS
0
ENDTAB
0
TABLE
2
STYLE
5
3
100
AcDbSymbolTable
70
1
0
STYLE
5
11
100
AcDbSymbolTableRecord
100
AcDbTextStyleTableRecord
2
STANDARD
70
0
0
ENDTAB
0
TABLE
2
VIEW
5
6
100
AcDbSymbolTable
70
0
0
ENDTAB
0
TABLE
2
UCS
5
7
100
AcDbSymbolTable
70
0
0
ENDTAB
0
TABLE
2
APPID
5
9
100
AcDbSymbolTable
70
2
0
APPID
5
12
100
AcDbSymbolTableRecord
100
AcDbRegAppTableRecord
2
ACAD
70
0
0
ENDTAB
0
TABLE
2
DIMSTYLE
5
A
100
AcDbSymbolTable
70
1
0
ENDTAB
0
TABLE
2
BLOCK_RECORD
5
1
100
AcDbSymbolTable
70
1
0
BLOCK_RECORD
5
1F
100
AcDbSymbolTableRecord
100
AcDbBlockTableRecord
2
*MODEL_SPACE
0
BLOCK_RECORD
5
1B
100
AcDbSymbolTableRecord
100
AcDbBlockTableRecord
2
*PAPER_SPACE
0
ENDTAB
0
ENDSEC
0
SECTION
2
BLOCKS
0
BLOCK
5
20
100
AcDbEntity
100
AcDbBlockBegin
2
*MODEL_SPACE
0
ENDBLK
5
21
100
AcDbEntity
100
AcDbBlockEnd
0
BLOCK
5
1C
100
AcDbEntity
100
AcDbBlockBegin
2
*PAPER_SPACE
0
ENDBLK
5
1D
100
AcDbEntity
100
AcDbBlockEnd
0
ENDSEC
0
SECTION
2
ENTITIES
0
LWPOLYLINE
5
100
100
AcDbEntity
8
0
100
AcDbPolyline
90
30
70
1
43
0.0
10
-316.89086199916551
20
114.83344053133791
10
-333
20
105.3334405313379
10
-338
20
105.3334405313379
10
-338
20
80.333440531337914
10
-333
20
80.333440531337914
10
-333
20
67.833440531337914
10
-338
20
67.833440531337914
10
-338
20
42.833440531337914
10
-333
20
42.833440531337914
10
-333
20
30.333440531337914
10
-338
20
30.333440531337914
10
-338
20
5.3334405313379118
10
-333
20
5.3334405313379118
10
-316.89086199916551
20
-4.1665594686620455
10
-175
20
7.8774367723937306
10
-33.109138000834442
20
-4.166559468662081
10
-16.999999999999993
20
5.3334405313379118
10
-11.999999999999993
20
5.3334405313379118
10
-11.999999999999993
20
30.333440531337914
10
-16.999999999999993
20
30.333440531337914
10
-16.999999999999993
20
42.833440531337914
10
-11.999999999999993
20
42.833440531337914
10
-11.999999999999993
20
67.833440531337914
10
-16.999999999999993
20
67.833440531337914
10
-16.999999999999993
20
80.333440531337914
10
-11.999999999999993
20
80.333440531337914
10
-11.999999999999993
20
105.3334405313379
10
-16.999999999999993
20
105.3334405313379
10
-33.109138000834449
20
114.83344053133791
10
-175
20
102.78944429028213
0
LWPOLYLINE
5
101
100
AcDbEntity
8
0
100
AcDbPolyline
90
13
70
1
43
0.0
10
-66.572480214046948
20
53.513798310499098
10
-66.572480214046948
20
45.642038180570509
10
-68.44833136837434
20
45.642038180570509
10
-68.44833136837434
20
55.642038180570509
10
-65.426504624294751
20
55.642038180570509
10
-63.612043869900212
20
48.820755674581434
10
-61.818044197964177
20
55.642038180570509
10
-58.7893939141507
20
55.642038180570509
10
-58.7893939141507
20
45.642038180570509
10
-60.665247452663884
20
45.642038180570509
10
-60.665247452663884
20
53.513798310499098
10
-62.650239479946599
20
45.642038180570509
10
-64.594306958126538
20
45.642038180570509
0
LINE
5
102
100
AcDbEntity
8
0
100
AcDbLine
10
-44.300992501186833
20
55.642038180570509
30
0
11
-42.384212029385075
21
55.642038180570509
31
0
0
LINE
5
103
100
AcDbEntity
8
0
100
AcDbLine
10
-42.384212029385075
20
55.642038180570509
30
0
11
-42.384212029385075
21
45.642038180570509
31
0
0
LINE
5
104
100
AcDbEntity
8
0
100
AcDbLine
10
-42.384212029385075
20
45.642038180570509
30
0
11
-44.164569390224919
21
45.642038180570509
31
0
0
LINE
5
105
100
AcDbEntity
8
0
100
AcDbLine
10
-44.164569390224919
20
45.642038180570509
30
0
11
-44.164569390224919
21
46.706158711652662
31
0
0
SPLINE
5
106
100
AcDbEntity
8
0
100
AcDbSpline
70
0
71
3
72
9
73
5
74
0
42
0.000000001
43
0.0000000001
44
0.0000000001
40
0
40
0
40
0
40
0
40
0.072586887590257637
40
0.14072085088649472
40
0.14072085088649472
40
0.14072085088649472
40
0.14072085088649472
10
-44.164569390224919
20
46.706158711652662
30
0
10
-44.315663924050384
20
46.514195746345813
30
0
10
-44.608583927512143
20
46.142045999835695
30
0
10
-45.014901949806756
20
45.8993718014503
30
0
10
-45.211632264065251
20
45.781874253492262
30
0
0
SPLINE
5
107
100
AcDbEntity
8
0
100
AcDbSpline
70
0
71
3
72
9
73
5
74
0
42
0.000000001
43
0.0000000001
44
0.0000000001
40
0
40
0
40
0
40
0
40
0.064758304280073453
40
0.12636277784432604
40
0.12636277784432604
40
0.12636277784432604
40
0.12636277784432604
10
-45.211632264065251
20
45.781874253492262
30
0
10
-45.410604791165454
20
45.693355457912261
30
0
10
-45.798859572055747
20
45.52062887056146
30
0
10
-46.222632898268927
20
45.492190947915248
30
0
10
-46.429231179165349
20
45.478326871137526
30
0
0
SPLINE
5
108
100
AcDbEntity
8
0
100
AcDbSpline
70
0
71
3
72
9
73
5
74
0
42
0.000000001
43
0.0000000001
44
0.0000000001
40
0
40
0
40
0
40
0
40
0.11857483996992324
40
0.2422380381793573
40
0.2422380381793573
40
0.2422380381793573
40
0.2422380381793573
10
-46.429231179165349
20
45.478326871137526
30
0
10
-46.83338154619684
20
45.523663224548223
30
0
10
-47.659025435440185
20
45.61628143353083
30
0
10
-48.260598198835211
20
46.191046969212763
30
0
10
-48.567702782558904
20
46.48446638796797
30
0
0
SPLINE
5
109
100
AcDbEntity
8
0
100
AcDbSpline
70
0
71
3
72
9
73
5
74
0
42
0.000000001
43
0.0000000001
44
0.0000000001
40
0
40
0
40
0
40
0
40
0.13774250537693367
40
0.29949563763376297
40
0.29949563763376297
40
0.29949563763376297
40
0.29949563763376297
10
-48.567702782558904
20
46.48446638796797
30
0
10
-48.826896833641051
20
46.873841986585404
30
0
10
-49.390466425956049
20
47.720467310176232
30
0
10
-49.434240005024947
20
48.740512913504034
30
0
10
-49.457881462978825
20
49.291424348096754
30
0
0
SPLINE
5
110
100
AcDbEntity
8
0
100
AcDbSpline
70
0
71
3
72
9
73
5
74
0
42
0.000000001
43
0.0000000001
44
0.0000000001
40
0
40
0
40
0
40
0
40
0.16353123951832954
40
0.29816884812877936
40
0.29816884812877936
40
0.29816884812877936
40
0.29816884812877936
10
-49.457881462978825
20
49.291424348096754
30
0
10
-49.438029377253308
20
49.848967772465372
30
0
10
-49.401832785390098
20
50.865544673095641
30
0
10
-48.843632401355535
20
51.710171447515648
30
0
10
-48.591578019070134
20
52.091561152677443
30
0
0
SPLINE
5
111
100
AcDbEntity
8
0
100
AcDbSpline
70
0
71
3
72
9
73
5
74
0
42
0.000000001
43
0.0000000001
44
0.0000000001
40
0
40
0
40
0
40
0
40
0.12157950810738694
40
0.24483796302687127
40
0.24483796302687127
40
0.24483796302687127
40
0.24483796302687127
10
-48.591578019070134
20
52.091561152677443
30
0
10
-48.282274502708219
20
52.371087908142464
30
0
10
-47.659396156826006
20
52.93400153137506
30
0
10
-46.823008233372107
20
53.011125147544121
30
0
10
-46.401946556972966
20
53.049951388578322
30
0
0
SPLINE
5
112
100
AcDbEntity
8
0
100
AcDbSpline
70
0
71
3
72
9
73
5
74
0
42
0.000000001
43
0.0000000001
44
0.0000000001
40
0
40
0
40
0
40
0
40
0.11601221984938129
40
0.23895594060790631
40
0.23895594060790631
40
0.23895594060790631
40
0.23895594060790631
10
-46.401946556972966
20
53.049951388578322
30
0
10
-46.006835141599524
20
53.003212391579012
30
0
10
-45.193005184478956
20
52.906941834860575
30
0
10
-44.604024998740599
20
52.33478084744263
30
0
10
-44.300992501186833
20
52.040401890020277
30
0
0
LINE
5
113
100
AcDbEntity
8
0
100
AcDbLine
10
-44.300992501186833
20
52.040401890020277
30
0
11
-44.300992501186833
21
55.642038180570509
31
0
0
LINE
5
114
100
AcDbEntity
8
0
100
AcDbLine
10
-31.84532882015656
20
45.642038180570509
30
0
11
-32.773025048183904
21
45.642038180570509
31
0
0
LINE
5
115
100
AcDbEntity
8
0
100
AcDbLine
10
-32.773025048183904
20
45.642038180570509
30
0
11
-32.773025048183904
21
47.558818652372267
31
0
0
LINE
5
116
100
AcDbEntity
8
0
100
AcDbLine
10
-32.773025048183904
20
47.558818652372267
30
0
11
-30.856244576382146
21
47.558818652372267
31
0
0
LINE
5
117
100
AcDbEntity
8
0
100
AcDbLine
10
-30.856244576382146
20
47.558818652372267
30
0
11
-30.856244576382146
21
46.187741353254225
31
0
0
SPLINE
5
118
100
AcDbEntity
8
0
100
AcDbSpline
70
0
71
3
72
9
73
5
74
0
42
0.000000001
43
0.0000000001
44
0.0000000001
40
0
40
0
40
0
40
0
40
0.074523349815983422
40
0.13240171462785727
40
0.13240171462785727
40
0.13240171462785727
40
0.13240171462785727
10
-30.856244576382146
20
46.187741353254225
30
0
10
-30.858563771219288
20
45.938482931983572
30
0
10
-30.862684162663765
20
45.49563860945706
30
0
10
-30.95787799459287
20
45.063534693547311
30
0
10
-30.999491227077947
20
44.874643876294996
30
0
0
SPLINE
5
119
100
AcDbEntity
8
0
100
AcDbSpline
70
0
71
3
72
9
73
5
74
0
42
0.000000001
43
0.0000000001
44
0.0000000001
40
0
40
0
40
0
40
0
40
0.050102499931416959
40
0.10280038903774485
40
0.10280038903774485
40
0.10280038903774485
40
0.10280038903774485
10
-30.999491227077947
20
44.874643876294996
30
0
10
-31.059509840158384
20
44.716941747098531
30
0
10
-31.182656125924979
20
44.393368267618094
30
0
10
-31.420076548260862
20
44.141080715300554
30
0
10
-31.541783821987615
20
44.011752202253248
30
0
0
SPLINE
5
120
100
AcDbEntity
8
0
100
AcDbSpline
70
0
71
3
72
9
73
5
74
0
42
0.000000001
43
0.0000000001
44
0.0000000001
40
0
40
0
40
0
40
0
40
0.056685334623030971
40
0.11841096996954806
40
0.11841096996954806
40
0.11841096996954806
40
0.11841096996954806
10
-31.541783821987615
20
44.011752202253248
30
0
10
-31.687784494157309
20
43.889844136872952
30
0
10
-31.992767808144773
20
43.635188283383002
30
0
10
-32.362176697815542
20
43.488134988065923
30
0
10
-32.554743302273259
20
43.411478593091871
30
0
0
LINE
5
121
100
AcDbEntity
8
0
100
AcDbLine
10
-32.554743302273252
20
43.411478593091871
30
0
11
-32.929914009975896
21
44.202748133878615
31
0
0
SPLINE
5
122
100
AcDbEntity
8
0
100
AcDbSpline
70
0
71
3
72
9
73
5
74
0
42
0.000000001
43
0.0000000001
44
0.0000000001
40
0
40
0
40
0
40
0
40
0.054562345280807667
40
0.098990467130899359
40
0.098990467130899359
40
0.098990467130899359
40
0.098990467130899359
10
-32.929914009975896
20
44.202748133878615
30
0
10
-32.75604177314122
20
44.265517491004047
30
0
10
-32.440591734166944
20
44.379397639508923
30
0
10
-32.208640172506513
20
44.620000960285523
30
0
10
-32.104537499355779
20
44.727986647825148
30
0
0
SPLINE
5
123
100
AcDbEntity
8
0
100
AcDbSpline
70
0
71
3
72
9
73
5
74
0
42
0.000000001
43
0.0000000001
44
0.0000000001
40
0
40
0
40
0
40
0
40
0.043785131085759044
40
0.096119326384341675
40
0.096119326384341675
40
0.096119326384341675
40
0.096119326384341675
10
-32.104537499355779
20
44.727986647825148
30
0
10
-32.032317881299406
20
44.856972325172244
30
0
10
-31.873777736113684
20
45.140128184533452
30
0
10
-31.855357892601958
20
45.465100271269733
30
0
10
-31.84532882015656
20
45.642038180570509
30
0
0
LWPOLYLINE
5
124
100
AcDbEntity
8
0
100
AcDbPolyline
90
4
70
1
43
0.0
10
-84.362382901119702
20
40.034944607953932
10
-84.362382901119702
20
38.261410786847975
10
-86.27916337292146
20
38.261410786847975
10
-86.27916337292146
20
40.034944607953932
0
LINE
5
125
100
AcDbEntity
8
0
100
AcDbLine
10
-80.385577691006176
20
39.83712752078047
30
0
11
-80.385577691006176
21
37.279145314435866
31
0
0
LINE
5
126
100
AcDbEntity
8
0
100
AcDbLine
10
-80.385577691006176
20
37.279145314435866
30
0
11
-79.075891983913891
21
37.279145314435866
31
0
0
LINE
5
127
100
AcDbEntity
8
0
100
AcDbLine
10
-79.075891983913891
20
37.279145314435866
30
0
11
-79.075891983913891
21
35.751180245618727
31
0
0
LINE
5
128
100
AcDbEntity
8
0
100
AcDbLine
10
-79.075891983913891
20
35.751180245618727
30
0
11
-80.385577691006176
21
35.751180245618727
31
0
0
LINE
5
129
100
AcDbEntity
8
0
100
AcDbLine
10
-80.385577691006176
20
35.751180245618727
30
0
11
-80.385577691006176
21
32.831670834760573
31
0
0
SPLINE
5
130
100
AcDbEntity
8
0
100
AcDbSpline
70
0
71
3
72
9
73
5
74
0
42
0.000000001
43
0.0000000001
44
0.0000000001
40
0
40
0
40
0
40
0
40
0.070180246725037976
40
0.10346794048160517
40
0.10346794048160517
40
0.10346794048160517
40
0.10346794048160517
10
-80.385577691006176
20
32.831670834760573
30
0
10
-80.38809724708301
20
32.597480705959974
30
0
10
-80.391811871786757
20
32.25221018556617
30
0
10
-80.358709753149853
20
31.908745062893544
30
0
10
-80.348060143398754
20
31.798245503644846
30
0
0
SPLINE
5
131
100
AcDbEntity
8
0
100
AcDbSpline
70
0
71
3
72
9
73
5
74
0
42
0.000000001
43
0.0000000001
44
0.0000000001
40
0
40
0
40
0
40
0
40
0.014727361697709876
40
0.030101806901189802
40
0.030101806901189802
40
0.030101806901189802
40
0.030101806901189802
10
-80.348060143398754
20
31.798245503644846
30
0
10
-80.331114601530828
20
31.751165607221587
30
0
10
-80.296478972990343
20
31.654937241262381
30
0
10
-80.217743086675824
20
31.589508513584747
30
0
10
-80.177528870510571
20
31.556090905408762
30
0
0
SPLINE
5
132
100
AcDbEntity
8
0
100
AcDbSpline
70
0
71
3
72
9
73
5
74
0
42
0.000000001
43
0.0000000001
44
0.0000000001
40
0
40
0
40
0
40
0
40
0.016397858219340734
40
0.034208733178344733
40
0.034208733178344733
40
0.034208733178344733
40
0.034208733178344733
10
-80.177528870510571
20
31.556090905408762
30
0
10
-80.129556506046129
20
31.528250487752377
30
0
10
-80.029477959570954
20
31.470170621074569
30
0
10
-79.913764543290313
20
31.46387182814069
30
0
10
-79.853518021511547
20
31.460592343549632
30
0
0
SPLINE
5
133
100
AcDbEntity
8
0
100
AcDbSpline
70
0
71
3
72
9
73
5
74
0
42
0.000000001
43
0.0000000001
44
0.0000000001
40
0
40
0
40
0
40
0
40
0.032895616979946578
40
0.079498671558183853
40
0.079498671558183853
40
0.079498671558183853
40
0.079498671558183853
10
-79.853518021511547
20
31.460592343549632
30
0
10
-79.744149286163719
20
31.472391334149936
30
0
10
-79.47983841534311
20
31.500905895193846
30
0
10
-79.229476089769747
20
31.591599986478428
30
0
10
-79.082710755276196
20
31.644765927534007
30
0
0
LINE
5
134
100
AcDbEntity
8
0
100
AcDbLine
10
-79.082710755276196
20
31.644765927534007
30
0
11
-78.919000637936108
21
30.157727792005442
31
0
0
SPLINE
5
135
100
AcDbEntity
8
0
100
AcDbSpline
70
0
71
3
72
9
73
5
74
0
42
0.000000001
43
0.0000000001
44
0.0000000001
40
0
40
0
40
0
40
0
40
0.074450451516918939
40
0.15491996084387211
40
0.15491996084387211
40
0.15491996084387211
40
0.15491996084387211
10
-78.919000637936108
20
30.157727792005442
30
0
10
-79.154307789559965
20
30.074201937142352
30
0
10
-79.643945850486574
20
29.900397455084907
30
0
10
-80.163470821837535
20
29.881204050593752
30
0
10
-80.433325779842846
20
29.871234490613841
30
0
0
SPLINE
5
136
100
AcDbEntity
8
0
100
AcDbSpline
70
0
71
3
72
9
73
5
74
0
42
0.000000001
43
0.0000000001
44
0.0000000001
40
0
40
0
40
0
40
0
40
0.049475215109513554
40
0.095529578658938796
40
0.095529578658938796
40
0.095529578658938796
40
0.095529578658938796
10
-80.433325779842846
20
29.871234490613841
30
0
10
-80.599188858845679
20
29.877385847790698
30
0
10
-80.919446790360325
20
29.88926324050108
30
0
10
-81.221988984922078
20
29.994461799548517
30
0
10
-81.367843163418286
20
30.045177533368967
30
0
0
SPLINE
5
137
100
AcDbEntity
8
0
100
AcDbSpline
70
0
71
3
72
9
73
5
74
0
42
0.000000001
43
0.0000000001
44
0.0000000001
40
0
40
0
40
0
40
0
40
0.041218414532703543
40
0.076609848751987231
40
0.076609848751987231
40
0.076609848751987231
40
0.076609848751987231
10
-81.367843163418286
20
30.045177533368967
30
0
10
-81.494319374673907
20
30.103396794110509
30
0
10
-81.729392060629138
20
30.211604953265272
30
0
10
-81.89967961257625
20
30.405710197182877
30
0
10
-81.978347313808911
20
30.495380952100657
30
0
0
SPLINE
5
138
100
AcDbEntity
8
0
100
AcDbSpline
70
0
71
3
72
9
73
5
74
0
42
0.000000001
43
0.0000000001
44
0.0000000001
40
0
40
0
40
0
40
0
40
0.036416763598853125
40
0.079906758549142989
40
0.079906758549142989
40
0.079906758549142989
40
0.079906758549142989
10
-81.978347313808911
20
30.495380952100657
30
0
10
-82.039031176775978
20
30.601500059526288
30
0
10
-82.172185535009291
20
30.834349798397028
30
0
10
-82.221141691634756
20
31.098528750906446
30
0
10
-82.247786534237378
20
31.242310597638987
30
0
0
SPLINE
5
139
100
AcDbEntity
8
0
100
AcDbSpline
70
0
71
3
72
9
73
5
74
0
42
0.000000001
43
0.0000000001
44
0.0000000001
40
0
40
0
40
0
40
0
40
0.050687063704049566
40
0.13528498316241941
40
0.13528498316241941
40
0.13528498316241941
40
0.13528498316241941
10
-82.247786534237378
20
31.242310597638987
30
0
10
-82.265435311360292
20
31.410443296726012
30
0
10
-82.312540318859845
20
31.859193484699961
30
0
10
-82.310470965419086
20
32.310628947326038
30
0
10
-82.309176934170239
20
32.592925622205641
30
0
0
LINE
5
140
100
AcDbEntity
8
0
100
AcDbLine
10
-82.309176934170239
20
32.592925622205634
30
0
11
-82.309176934170239
21
35.751180245618727
31
0
0
LINE
5
141
100
AcDbEntity
8
0
100
AcDbLine
10
-82.309176934170239
20
35.751180245618727
30
0
11
-83.189122689175122
21
35.751180245618727
31
0
0
LINE
5
142
100
AcDbEntity
8
0
100
AcDbLine
10
-83.189122689175122
20
35.751180245618727
30
0
11
-83.189122689175122
21
37.279145314435866
31
0
0
LINE
5
143
100
AcDbEntity
8
0
100
AcDbLine
10
-83.189122689175122
20
37.279145314435866
30
0
11
-82.309176934170239
21
37.279145314435866
31
0
0
LINE
5
144
100
AcDbEntity
8
0
100
AcDbLine
10
-82.309176934170239
20
37.279145314435866
30
0
11
-82.309176934170239
21
38.718437745313551
31
0
0
LINE
5
145
100
AcDbEntity
8
0
100
AcDbLine
10
-82.309176934170239
20
38.718437745313551
30
0
11
-80.385577691006176
21
39.83712752078047
31
0
0
LWPOLYLINE
5
146
100
AcDbEntity
8
0
100
AcDbPolyline
90
6
70
1
43
0.0
10
-58.223230851101384
20
31.71980102274885
10
-58.223230851101384
20
30.034944607953928
10
-65.262794506954663
20
30.034944607953928
10
-65.262794506954663
20
39.953089549283888
10
-63.24369193355988
20
39.953089549283888
10
-63.24369193355988
20
31.71980102274885
0
SPLINE
5
147
100
AcDbEntity
8
0
100
AcDbSpline
70
0
71
3
72
9
73
5
74
0
42
0.000000001
43
0.0000000001
44
0.0000000001
40
0
40
0
40
0
40
0
40
0.097004398388971652
40
0.19292972305742526
40
0.19292972305742526
40
0.19292972305742526
40
0.19292972305742526
10
-55.395810616421208
20
30.32143790934553
30
0
10
-55.678590775963727
20
30.488166620581968
30
0
10
-56.24100545790327
20
30.819769358383439
30
0
10
-56.594526573569524
20
31.368517213136897
30
0
10
-56.770298493313298
20
31.641356541852854
30
0
0
SPLINE
5
148
100
AcDbEntity
8
0
100
AcDbSpline
70
0
71
3
72
9
73
5
74
0
42
0.000000001
43
0.0000000001
44
0.0000000001
40
0
40
0
40
0
40
0
40
0.10269356686604912
40
0.21865709016461893
40
0.21865709016461893
40
0.21865709016461893
40
0.21865709016461893
10
-56.770298493313298
20
31.641356541852854
30
0
10
-56.907441287987567
20
31.958325689412632
30
0
10
-57.199448327334395
20
32.633222409747454
30
0
10
-57.226577551525104
20
33.369097552257855
30
0
10
-57.240965378689275
20
33.759364678602125
30
0
0
SPLINE
5
149
100
AcDbEntity
8
0
100
AcDbSpline
70
0
71
3
72
9
73
5
74
0
42
0.000000001
43
0.0000000001
44
0.0000000001
40
0
40
0
40
0
40
0
40
0.094696822673876663
40
0.19220450074421525
40
0.19220450074421525
40
0.19220450074421525
40
0.19220450074421525
10
-57.240965378689275
20
33.759364678602125
30
0
10
-57.220230685228053
20
34.077246167050475
30
0
10
-57.178145837053975
20
34.722444718151387
30
0
10
-56.907566618036363
20
35.30990531411112
30
0
10
-56.770298493313298
20
35.607931210737135
30
0
0
SPLINE
5
150
100
AcDbEntity
8
0
100
AcDbSpline
70
0
71
3
72
9
73
5
74
0
42
0.000000001
43
0.0000000001
44
0.0000000001
40
0
40
0
40
0
40
0
40
0.097168605628643462
40
0.19293936483598206
40
0.19293936483598206
40
0.19293936483598206
40
0.19293936483598206
10
-56.770298493313298
20
35.607931210737135
30
0
10
-56.598119761765311
20
35.887594090275726
30
0
10
-56.256239224443462
20
36.442896680009198
30
0
10
-55.708582182179796
20
36.796612147565732
30
0
10
-55.436737549709783
20
36.972188546399977
30
0
0
SPLINE
5
151
100
AcDbEntity
8
0
100
AcDbSpline
70
0
71
3
72
9
73
5
74
0
42
0.000000001
43
0.0000000001
44
0.0000000001
40
0
40
0
40
0
40
0
40
0.097905262726235912
40
0.19996714863288437
40
0.19996714863288437
40
0.19996714863288437
40
0.19996714863288437
10
-55.436737549709783
20
36.972188546399977
30
0
10
-55.137178294827905
20
37.109449599298642
30
0
10
-54.525341827846354
20
37.389799200558002
30
0
10
-53.852922466074745
20
37.424928207439322
30
0
10
-53.509724152492986
20
37.442857815961744
30
0
0
SPLINE
5
152
100
AcDbEntity
8
0
100
AcDbSpline
70
0
71
3
72
9
73
5
74
0
42
0.000000001
43
0.0000000001
44
0.0000000001
40
0
40
0
40
0
40
0
40
0.15191923829205378
40
0.29608076162258978
40
0.29608076162258978
40
0.29608076162258978
40
0.29608076162258978
10
-53.509724152492986
20
37.442857815961744
30
0
10
-52.991343883468332
20
37.403226989585377
30
0
10
-51.981054294154561
20
37.325989074301141
30
0
10
-51.197049196747216
20
36.686630140946569
30
0
10
-50.815317643093572
20
36.375326707105543
30
0
0
SPLINE
5
153
100
AcDbEntity
8
0
100
AcDbSpline
70
0
71
3
72
9
73
5
74
0
42
0.000000001
43
0.0000000001
44
0.0000000001
40
0
40
0
40
0
40
0
40
0.14423968456472649
40
0.29549692213466799
40
0.29549692213466799
40
0.29549692213466799
40
0.29549692213466799
10
-50.815317643093572
20
36.375326707105543
30
0
10
-50.508978496039006
20
35.989855906595146
30
0
10
-49.881396181524416
20
35.200160369840873
30
0
10
-49.804302750253065
20
34.193031611059148
30
0
10
-49.764840615200505
20
33.677508427839186
30
0
0
SPLINE
5
154
100
AcDbEntity
8
0
100
AcDbSpline
70
0
71
3
72
9
73
5
74
0
42
0.000000001
43
0.0000000001
44
0.0000000001
40
0
40
0
40
0
40
0
40
0.15264489036714746
40
0.2984466859825331
40
0.2984466859825331
40
0.2984466859825331
40
0.2984466859825331
10
-49.764840615200505
20
33.677508427839186
30
0
10
-49.80484127295621
20
33.15733166174784
30
0
10
-49.883049352608246
20
32.140297736854109
30
0
10
-50.516222849134813
20
31.342271864727763
30
0
10
-50.825550568508611
20
30.952407910566233
30
0
0
SPLINE
5
155
100
AcDbEntity
8
0
100
AcDbSpline
70
0
71
3
72
9
73
5
74
0
42
0.000000001
43
0.0000000001
44
0.0000000001
40
0
40
0
40
0
40
0
40
0.14466165168589976
40
0.29437624619795377
40
0.29437624619795377
40
0.29437624619795377
40
0.29437624619795377
10
-50.825550568508611
20
30.952407910566233
30
0
10
-51.20646283109388
20
30.637091466335121
30
0
10
-51.981592388124582
20
29.99544476774231
30
0
10
-52.985507982168087
20
29.913109011702335
30
0
10
-53.496081841396794
20
29.871234490613841
30
0
0
SPLINE
5
156
100
AcDbEntity
8
0
100
AcDbSpline
70
0
71
3
72
9
73
5
74
0
42
0.000000001
43
0.0000000001
44
0.0000000001
40
0
40
0
40
0
40
0
40
0.097937474752956666
40
0.19658062087209294
40
0.19658062087209294
40
0.19658062087209294
40
0.19658062087209294
10
-53.496081841396794
20
29.871234490613841
30
0
10
-53.824750931557055
20
29.890260575379362
30
0
10
-54.484457279593371
20
29.928449834040624
30
0
10
-55.091300036913751
20
30.190128765334329
30
0
10
-55.395810616421208
20
30.32143790934553
30
0
0
SPLINE
5
157
100
AcDbEntity
8
0
100
AcDbSpline
70
0
71
3
72
9
73
5
74
0
42
0.000000001
43
0.0000000001
44
0.0000000001
40
0
40
0
40
0
40
0
40
0.041891361095689014
40
0.080802917650776657
40
0.080802917650776657
40
0.080802917650776657
40
0.080802917650776657
10
-37.52063514034699
20
31.303703381757639
30
0
10
-37.378584517257458
20
31.312339929324654
30
0
10
-37.104587576133326
20
31.328998691981003
30
0
10
-36.874348957681342
20
31.477673647693479
30
0
10
-36.763474953579411
20
31.549269749860667
30
0
0
SPLINE
5
158
100
AcDbEntity
8
0
100
AcDbSpline
70
0
71
3
72
9
73
5
74
0
42
0.000000001
43
0.0000000001
44
0.0000000001
40
0
40
0
40
0
40
0
40
0.041878882098101221
40
0.092802472690908716
40
0.092802472690908716
40
0.092802472690908716
40
0.092802472690908716
10
-36.763474953579411
20
31.549269749860667
30
0
10
-36.665420590726363
20
31.651137692607815
30
0
10
-36.448134768493112
20
31.876874304982671
30
0
10
-36.352244693277875
20
32.176257350462556
30
0
10
-36.29962683956574
20
32.340538098554518
30
0
0
LINE
5
159
100
AcDbEntity
8
0
100
AcDbLine
10
-36.29962683956574
20
32.340538098554518
30
0
11
-34.389669907497868
21
32.019936635236647
31
0
0
SPLINE
5
160
100
AcDbEntity
8
0
100
AcDbSpline
70
0
71
3
72
9
73
5
74
0
42
0.000000001
43
0.0000000001
44
0.0000000001
40
0
40
0
40
0
40
0
40
0.10399202976726904
40
0.20034354306161539
40
0.20034354306161539
40
0.20034354306161539
40
0.20034354306161539
10
-34.389669907497868
20
32.019936635236647
30
0
10
-34.524818132841148
20
31.694498059442878
30
0
10
-34.785184954840446
20
31.067531574902052
30
0
10
-35.303446517989499
20
30.630520578822424
30
0
10
-35.552694809841618
20
30.420348241071604
30
0
0
SPLINE
5
161
100
AcDbEntity
8
0
100
AcDbSpline
70
0
71
3
72
9
73
5
74
0
42
0.000000001
43
0.0000000001
44
0.0000000001
40
0
40
0
40
0
40
0
40
0.098470508879223873
40
0.20872444036356702
40
0.20872444036356702
40
0.20872444036356702
40
0.20872444036356702
10
-35.552694809841618
20
30.420348241071604
30
0
10
-35.844349165253284
20
30.260327248516141
30
0
10
-36.462558543937043
20
29.921136433949229
30
0
10
-37.168305981935319
20
29.888482949841855
30
0
10
-37.541100991177068
20
29.871234490613841
30
0
0
SPLINE
5
162
100
AcDbEntity
8
0
100
AcDbSpline
70
0
71
3
72
9
73
5
74
0
42
0.000000001
43
0.0000000001
44
0.0000000001
40
0
40
0
40
0
40
0
40
0.16726605116311941
40
0.31513020619698984
40
0.31513020619698984
40
0.31513020619698984
40
0.31513020619698984
10
-37.541100991177068
20
29.871234490613841
30
0
10
-38.119146166089159
20
29.908762974069923
30
0
10
-39.208186613296085
20
29.97946685359322
30
0
10
-39.977059641765209
20
30.746146633657109
30
0
10
-40.337827217983708
20
31.105885102491282
30
0
0
SPLINE
5
163
100
AcDbEntity
8
0
100
AcDbSpline
70
0
71
3
72
9
73
5
74
0
42
0.000000001
43
0.0000000001
44
0.0000000001
40
0
40
0
40
0
40
0
40
0.1240978516295739
40
0.26304636328833986
40
0.26304636328833986
40
0.26304636328833986
40
0.26304636328833986
10
-40.337827217983708
20
31.105885102491282
30
0
10
-40.546549085413986
20
31.469980377565978
30
0
10
-40.988970347710861
20
32.241741828237565
30
0
10
-41.031562234836699
20
33.132141490271344
30
0
10
-41.054060471462712
20
33.602475716810133
30
0
0
SPLINE
5
164
100
AcDbEntity
8
0
100
AcDbSpline
70
0
71
3
72
9
73
5
74
0
42
0.000000001
43
0.0000000001
44
0.0000000001
40
0
40
0
40
0
40
0
40
0.16227160090865345
40
0.30279780008844881
40
0.30279780008844881
40
0.30279780008844881
40
0.30279780008844881
10
-41.054060471462712
20
33.602475716810133
30
0
10
-41.027413302891475
20
34.155749894288526
30
0
10
-40.977689851734425
20
35.188156075333794
30
0
10
-40.386902112806965
20
36.031626477354628
30
0
10
-40.112721932339177
20
36.423074795942213
30
0
0
SPLINE
5
165
100
AcDbEntity
8
0
100
AcDbSpline
70
0
71
3
72
9
73
5
74
0
42
0.000000001
43
0.0000000001
44
0.0000000001
40
0
40
0
40
0
40
0
40
0.13118544092359485
40
0.2651141363102601
40
0.2651141363102601
40
0.2651141363102601
40
0.2651141363102601
10
-40.112721932339177
20
36.423074795942213
30
0
10
-39.775758336273199
20
36.720502504316613
30
0
10
-39.094784806664364
20
37.321577512833336
30
0
10
-38.18944964799595
20
37.402153130940803
30
0
10
-37.732098114895329
20
37.442857815961744
30
0
0
SPLINE
5
166
100
AcDbEntity
8
0
100
AcDbSpline
70
0
71
3
72
9
73
5
74
0
42
0.000000001
43
0.0000000001
44
0.0000000001
40
0
40
0
40
0
40
0
40
0.147053433818056
40
0.28351456602754854
40
0.28351456602754854
40
0.28351456602754854
40
0.28351456602754854
10
-37.732098114895329
20
37.442857815961744
30
0
10
-37.227991087228567
20
37.405411310164375
30
0
10
-36.256088007717935
20
37.333215581273585
30
0
10
-35.530282642078568
20
36.686569954866201
30
0
10
-35.180938256191716
20
36.375326707105543
30
0
0
SPLINE
5
167
100
AcDbEntity
8
0
100
AcDbSpline
70
0
71
3
72
9
73
5
74
0
42
0.000000001
43
0.0000000001
44
0.0000000001
40
0
40
0
40
0
40
0
40
0.15177195810651661
40
0.34477560221659809
40
0.34477560221659809
40
0.34477560221659809
40
0.34477560221659809
10
-35.180938256191716
20
36.375326707105543
30
0
10
-34.911753741194175
20
35.93641838435741
30
0
10
-34.300255712022491
20
34.939364098563971
30
0
10
-34.291981854066151
20
33.763028540540404
30
0
10
-34.287350190090642
20
33.104521825055983
30
0
0
LINE
5
168
100
AcDbEntity
8
0
100
AcDbLine
10
-34.287350190090635
20
33.104521825055983
30
0
11
-39.089529526638493
21
33.104521825055983
31
0
0
SPLINE
5
169
100
AcDbEntity
8
0
100
AcDbSpline
70
0
71
3
72
9
73
5
74
0
42
0.000000001
43
0.0000000001
44
0.0000000001
40
0
40
0
40
0
40
0
40
0.076844803672022191
40
0.14298528137742872
40
0.14298528137742872
40
0.14298528137742872
40
0.14298528137742872
10
-39.089529526638493
20
33.104521825055983
30
0
10
-39.071302075304601
20
32.843139017861617
30
0
10
-39.037386219798044
20
32.356783500663333
30
0
10
-38.755895091448664
20
31.960903588198931
30
0
10
-38.625686180996404
20
31.777782037000559
30
0
0
SPLINE
5
170
100
AcDbEntity
8
0
100
AcDbSpline
70
0
71
3
72
9
73
5
74
0
42
0.000000001
43
0.0000000001
44
0.0000000001
40
0
40
0
40
0
40
0
40
0.061186532166737334
40
0.12304252055273703
40
0.12304252055273703
40
0.12304252055273703
40
0.12304252055273703
10
-38.625686180996404
20
31.777782037000559
30
0
10
-38.468203960772918
20
31.639509368222818
30
0
10
-38.151516470366779
20
31.361451156922264
30
0
10
-37.731690321087122
20
31.32302233533062
30
0
10
-37.52063514034699
20
31.303703381757639
30
0
0
LINE
5
171
100
AcDbEntity
8
0
100
AcDbLine
10
-76.047239315914624
20
15.491969182233714
30
0
11
-76.047239315914624
21
14.427849843244456
31
0
0
LINE
5
172
100
AcDbEntity
8
0
100
AcDbLine
10
-76.047239315914624
20
14.427849843244456
30
0
11
-77.827594292568676
21
14.427849843244456
31
0
0
LINE
5
173
100
AcDbEntity
8
0
100
AcDbLine
10
-77.827594292568676
20
14.427849843244456
30
0
11
-77.827594292568676
21
24.427849843244456
31
0
0
LINE
5
174
100
AcDbEntity
8
0
100
AcDbLine
10
-77.827594292568676
20
24.427849843244456
30
0
11
-75.910813820766919
21
24.427849843244456
31
0
0
LINE
5
175
100
AcDbEntity
8
0
100
AcDbLine
10
-75.910813820766919
20
24.427849843244456
30
0
11
-75.910813820766919
21
20.826212956647776
31
0
0
SPLINE
5
176
100
AcDbEntity
8
0
100
AcDbSpline
70
0
71
3
72
9
73
5
74
0
42
0.000000001
43
0.0000000001
44
0.0000000001
40
0
40
0
40
0
40
0
40
0.12294413314552097
40
0.2389558875787017
40
0.2389558875787017
40
0.2389558875787017
40
0.2389558875787017
10
-75.910813820766919
20
20.826212956647776
30
0
10
-75.607779720463355
20
21.120592145088729
30
0
10
-75.018798525899612
20
21.692751535365147
30
0
10
-74.204969318802526
20
21.789023532212788
30
0
10
-73.809859764980786
20
21.835763051252268
30
0
0
SPLINE
5
177
100
AcDbEntity
8
0
100
AcDbSpline
70
0
71
3
72
9
73
5
74
0
42
0.000000001
43
0.0000000001
44
0.0000000001
40
0
40
0
40
0
40
0
40
0.12325843174688624
40
0.24483820262068728
40
0.24483820262068728
40
0.24483820262068728
40
0.24483820262068728
10
-73.809859764980786
20
21.835763051252268
30
0
10
-73.388798116478583
20
21.796937217490683
30
0
10
-72.552409272723992
20
21.719814320349215
30
0
10
-71.929530174474394
20
21.156900165430347
30
0
10
-71.620225918697827
20
20.877372815351389
30
0
0
SPLINE
5
178
100
AcDbEntity
8
0
100
AcDbSpline
70
0
71
3
72
9
73
5
74
0
42
0.000000001
43
0.0000000001
44
0.0000000001
40
0
40
0
40
0
40
0
40
0.13359327771572674
40
0.29357524426221859
40
0.29357524426221859
40
0.29357524426221859
40
0.29357524426221859
10
-71.620225918697827
20
20.877372815351389
30
0
10
-71.368089678204086
20
20.500132707301525
30
0
10
-70.814012709243002
20
19.671136228138053
30
0
10
-70.775119478357766
20
18.670356330749328
30
0
10
-70.753924858974926
20
18.124987675886057
30
0
0
SPLINE
5
179
100
AcDbEntity
8
0
100
AcDbSpline
70
0
71
3
72
9
73
5
74
0
42
0.000000001
43
0.0000000001
44
0.0000000001
40
0
40
0
40
0
40
0
40
0.16570091519870345
40
0.30416832879417965
40
0.30416832879417965
40
0.30416832879417965
40
0.30416832879417965
10
-70.753924858974926
20
18.124987675886057
30
0
10
-70.775604499455625
20
17.560582237774163
30
0
10
-70.815400658734319
20
16.524533289782681
30
0
10
-71.380175803756487
20
15.660297281523583
30
0
10
-71.637279999660961
20
15.266868664960764
30
0
0
SPLINE
5
180
100
AcDbEntity
8
0
100
AcDbSpline
70
0
71
3
72
9
73
5
74
0
42
0.000000001
43
0.0000000001
44
0.0000000001
40
0
40
0
40
0
40
0
40
0.1233718466999375
40
0.24276254498896399
40
0.24276254498896399
40
0.24276254498896399
40
0.24276254498896399
10
-71.637279999660961
20
15.266868664960764
30
0
10
-71.943950133890255
20
14.974428209807176
30
0
10
-72.547394308951368
20
14.398984208198886
30
0
10
-73.375372711791982
20
14.308592173616388
30
0
10
-73.782572758602612
20
14.264137341718577
30
0
0
SPLINE
5
181
100
AcDbEntity
8
0
100
AcDbSpline
70
0
71
3
72
9
73
5
74
0
42
0.000000001
43
0.0000000001
44
0.0000000001
40
0
40
0
40
0
40
0
40
0.062133608808779585
40
0.12723232833919609
40
0.12723232833919609
40
0.12723232833919609
40
0.12723232833919609
10
-73.782572758602612
20
14.264137341718577
30
0
10
-73.99101087090466
20
14.278235451262757
30
0
10
-74.417834080617709
20
14.307104453673478
30
0
10
-74.807578951143313
20
14.483997921480309
30
0
10
-75.006992829250805
20
14.574505879621409
30
0
0
SPLINE
5
182
100
AcDbEntity
8
0
100
AcDbSpline
70
0
71
3
72
9
73
5
74
0
42
0.000000001
43
0.0000000001
44
0.0000000001
40
0
40
0
40
0
40
0
40
0.068089345717638944
40
0.13969990037878555
40
0.13969990037878555
40
0.13969990037878555
40
0.13969990037878555
10
-75.006992829250805
20
14.574505879621409
30
0
10
-75.202993219893713
20
14.692765926626743
30
0
10
-75.605130070504202
20
14.935401784135882
30
0
10
-75.897413845714027
20
15.303355229949309
30
0
10
-76.047239315914624
20
15.491969182233714
30
0
0
LWPOLYLINE
5
183
100
AcDbEntity
8
0
100
AcDbPolyline
90
6
70
1
43
0.0
10
-50.453789246487126
20
16.112706258039378
10
-50.453789246487126
20
14.427849843244456
10
-57.493350518154607
20
14.427849843244456
10
-57.493350518154607
20
24.345995976667307
10
-55.474250328945622
20
24.345995976667307
10
-55.474250328945622
20
16.112706258039378
0
LWPOLYLINE
5
184
100
AcDbEntity
8
0
100
AcDbPolyline
90
4
70
1
43
0.0
10
-38.577935707973943
20
21.672050549726389
10
-38.577935707973943
20
14.427849843244456
10
-40.4947161797757
20
14.427849843244456
10
-40.4947161797757
20
21.672050549726389
0
LWPOLYLINE
5
185
100
AcDbEntity
8
0
100
AcDbPolyline
90
4
70
1
43
0.0
10
-37.240965378689275
20
24.598381116132639
10
-37.240965378689275
20
22.954451634626292
10
-38.891713631557927
20
22.954451634626292
10
-38.891713631557927
20
24.598381116132639
0
LWPOLYLINE
5
186
100
AcDbEntity
8
0
100
AcDbPolyline
90
4
70
1
43
0.0
10
-40.180938256191716
20
24.598381116132639
10
-40.180938256191716
20
22.954451634626292
10
-41.824862969326482
20
22.954451634626292
10
-41.824862969326482
20
24.598381116132639
0
SPLINE
5
187
100
AcDbEntity
8
0
100
AcDbSpline
70
0
71
3
72
9
73
5
74
0
42
0.000000001
43
0.0000000001
44
0.0000000001
40
0
40
0
40
0
40
0
40
0.09700400733608594
40
0.19292933200453954
40
0.19292933200453954
40
0.19292933200453954
40
0.19292933200453954
10
-47.62636901180695
20
14.714343144636057
30
0
10
-47.909147344805866
20
14.881072153832546
30
0
10
-48.47155952126181
20
15.212676148898527
30
0
10
-48.825080107527739
20
15.761422595528449
30
0
10
-49.000852120327458
20
16.034261777143382
30
0
0
SPLINE
5
188
100
AcDbEntity
8
0
100
AcDbSpline
70
0
71
3
72
9
73
5
74
0
42
0.000000001
43
0.0000000001
44
0.0000000001
40
0
40
0
40
0
40
0
40
0.1026937907562787
40
0.21865736243890216
40
0.21865736243890216
40
0.21865736243890216
40
0.21865736243890216
10
-49.000852120327458
20
16.034261777143382
30
0
10
-49.137994588293182
20
16.351231760882754
30
0
10
-49.430000658990437
20
17.02612963062095
30
0
10
-49.457133853297243
20
17.762005244747165
30
0
10
-49.471523774075017
20
18.15227229807844
30
0
0
SPLINE
5
189
100
AcDbEntity
8
0
100
AcDbSpline
70
0
71
3
72
9
73
5
74
0
42
0.000000001
43
0.0000000001
44
0.0000000001
40
0
40
0
40
0
40
0
40
0.094696822673876663
40
0.19220445112380552
40
0.19220445112380552
40
0.19220445112380552
40
0.19220445112380552
10
-49.471523774075017
20
18.15227229807844
30
0
10
-49.450789479978482
20
18.470153940978975
30
0
10
-49.408705453252608
20
19.115352639001237
30
0
10
-49.138122237981648
20
19.702811502846131
30
0
10
-49.000852120327458
20
20.000836446027659
30
0
0
SPLINE
5
190
100
AcDbEntity
8
0
100
AcDbSpline
70
0
71
3
72
9
73
5
74
0
42
0.000000001
43
0.0000000001
44
0.0000000001
40
0
40
0
40
0
40
0
40
0.097168326536330382
40
0.19293946654984512
40
0.19293946654984512
40
0.19293946654984512
40
0.19293946654984512
10
-49.000852120327458
20
20.000836446027659
30
0
10
-48.828675279347308
20
20.280499603800067
30
0
10
-48.486797333774909
20
20.835804633717174
30
0
10
-47.939137922650957
20
21.189517879919592
30
0
10
-47.667291176723943
20
21.365093781690501
30
0
0
SPLINE
5
191
100
AcDbEntity
8
0
100
AcDbSpline
70
0
71
3
72
9
73
5
74
0
42
0.000000001
43
0.0000000001
44
0.0000000001
40
0
40
0
40
0
40
0
40
0.097904903924994166
40
0.1999667623441822
40
0.1999667623441822
40
0.1999667623441822
40
0.1999667623441822
10
-47.667291176723943
20
21.365093781690501
30
0
10
-47.367733622553764
20
21.502356007815205
30
0
10
-46.755899568878128
20
21.782708491193759
30
0
10
-46.083481018087852
20
21.817834793382215
30
0
10
-45.740282547878728
20
21.835763051252268
30
0
0
SPLINE
5
192
100
AcDbEntity
8
0
100
AcDbSpline
70
0
71
3
72
9
73
5
74
0
42
0.000000001
43
0.0000000001
44
0.0000000001
40
0
40
0
40
0
40
0
40
0.15191923829205378
40
0.29608076162258978
40
0.29608076162258978
40
0.29608076162258978
40
0.29608076162258978
10
-45.740282547878728
20
21.835763051252268
30
0
10
-45.221902278854088
20
21.796132224875898
30
0
10
-44.211612689540296
20
21.718894309591672
30
0
10
-43.427607592132958
20
21.079535376237093
30
0
10
-43.045876038479314
20
20.768231942396067
30
0
0
SPLINE
5
193
100
AcDbEntity
8
0
100
AcDbSpline
70
0
71
3
72
9
73
5
74
0
42
0.000000001
43
0.0000000001
44
0.0000000001
40
0
40
0
40
0
40
0
40
0.14424014472969618
40
0.29549706471124715
40
0.29549706471124715
40
0.29549706471124715
40
0.29549706471124715
10
-43.045876038479314
20
20.768231942396067
30
0
10
-42.739534533498151
20
20.38276062631067
30
0
10
-42.111949087776367
20
19.593066171642228
30
0
10
-42.034859219791805
20
18.585936157681505
30
0
10
-41.995399010586247
20
18.07041366312971
30
0
0
SPLINE
5
194
100
AcDbEntity
8
0
100
AcDbSpline
70
0
71
3
72
9
73
5
74
0
42
0.000000001
43
0.0000000001
44
0.0000000001
40
0
40
0
40
0
40
0
40
0.15264489036714746
40
0.2984466859825331
40
0.2984466859825331
40
0.2984466859825331
40
0.2984466859825331
10
-41.995399010586247
20
18.07041366312971
30
0
10
-42.035399668341938
20
17.550236897038367
30
0
10
-42.113607747993989
20
16.533202972144636
30
0
10
-42.746781244520562
20
15.735177100018287
30
0
10
-43.056108963894353
20
15.34531314585676
30
0
0
SPLINE
5
195
100
AcDbEntity
8
0
100
AcDbSpline
70
0
71
3
72
9
73
5
74
0
42
0.000000001
43
0.0000000001
44
0.0000000001
40
0
40
0
40
0
40
0
40
0.14466204656932447
40
0.29437621512378331
40
0.29437621512378331
40
0.29437621512378331
40
0.29437621512378331
10
-43.056108963894353
20
15.34531314585676
30
0
10
-43.437022881963109
20
15.02999688190652
30
0
10
-44.212153610086148
20
14.388352369403643
30
0
10
-45.216068257662691
20
14.306013388296774
30
0
10
-45.726640236782536
20
14.264137341718577
30
0
0
SPLINE
5
196
100
AcDbEntity
8
0
100
AcDbSpline
70
0
71
3
72
9
73
5
74
0
42
0.000000001
43
0.0000000001
44
0.0000000001
40
0
40
0
40
0
40
0
40
0.097937502152430939
40
0.19658064827156718
40
0.19658064827156718
40
0.19658064827156718
40
0.19658064827156718
10
-45.726640236782536
20
14.264137341718577
30
0
10
-46.05530930618022
20
14.283164408798257
30
0
10
-46.715015519929167
20
14.321355633804282
30
0
10
-47.321858408754032
20
14.583034201418998
30
0
10
-47.62636901180695
20
14.714343144636057
30
0
0
SPLINE
5
197
100
AcDbEntity
8
0
100
AcDbSpline
70
0
71
3
72
9
73
5
74
0
42
0.000000001
43
0.0000000001
44
0.0000000001
40
0
40
0
40
0
40
0
40
0.052820597726440571
40
0.11193975004264882
40
0.11193975004264882
40
0.11193975004264882
40
0.11193975004264882
10
-67.854878914761059
20
13.408066823224924
30
0
10
-67.75287332665097
20
13.552902169608547
30
0
10
-67.53669856666184
20
13.859843650193291
30
0
10
-67.423519732780733
20
14.218150222966184
30
0
10
-67.363746178555004
20
14.407383992414378
30
0
0
LINE
5
198
100
AcDbEntity
8
0
100
AcDbLine
10
-67.363746178555004
20
14.407383992414378
30
0
11
-70.119545472073071
21
21.672050549726389
31
0
0
LINE
5
199
100
AcDbEntity
8
0
100
AcDbLine
10
-70.119545472073071
20
21.672050549726389
30
0
11
-68.079981816219799
21
21.672050549726389
31
0
0
LINE
5
200
100
AcDbEntity
8
0
100
AcDbLine
10
-68.079981816219799
20
21.672050549726389
30
0
11
-66.347377312588208
21
16.528803899030589
31
0
0
LINE
5
201
100
AcDbEntity
8
0
100
AcDbLine
10
-66.347377312588208
20
16.528803899030589
30
0
11
-64.655697358059399
21
21.672050549726389
31
0
0
LINE
5
202
100
AcDbEntity
8
0
100
AcDbLine
10
-64.655697358059399
20
21.672050549726389
30
0
11
-62.670705330776677
21
21.672050549726389
31
0
0
LINE
5
203
100
AcDbEntity
8
0
100
AcDbLine
10
-62.670705330776677
20
21.672050549726389
30
0
11
-65.228683960842602
21
14.700700833539866
31
0
0
LINE
5
204
100
AcDbEntity
8
0
100
AcDbLine
10
-65.228683960842602
20
14.700700833539866
30
0
11
-65.685710919308178
21
13.438765599470042
31
0
0
SPLINE
5
205
100
AcDbEntity
8
0
100
AcDbSpline
70
0
71
3
72
9
73
5
74
0
42
0.000000001
43
0.0000000001
44
0.0000000001
40
0
40
0
40
0
40
0
40
0.061121815418358719
40
0.10829090008023248
40
0.10829090008023248
40
0.10829090008023248
40
0.10829090008023248
10
-65.685710919308178
20
13.438765599470042
30
0
10
-65.762447790690373
20
13.249589485773647
30
0
10
-65.898404237900621
20
12.91442189486288
30
0
10
-66.085234184406488
20
12.604944042192558
30
0
10
-66.166613114284985
20
12.470142438154124
30
0
0
SPLINE
5
206
100
AcDbEntity
8
0
100
AcDbSpline
70
0
71
3
72
9
73
5
74
0
42
0.000000001
43
0.0000000001
44
0.0000000001
40
0
40
0
40
0
40
0
40
0.038977552628640902
40
0.075804700169638931
40
0.075804700169638931
40
0.075804700169638931
40
0.075804700169638931
10
-66.166613114284985
20
12.470142438154124
30
0
10
-66.244146527099531
20
12.365037583763527
30
0
10
-66.394935807471569
20
12.160626546227054
30
0
10
-66.594767688891693
20
12.003960660558493
30
0
10
-66.691849244045727
20
11.927849843244456
30
0
0
SPLINE
5
207
100
AcDbEntity
8
0
100
AcDbSpline
70
0
71
3
72
9
73
5
74
0
42
0.000000001
43
0.0000000001
44
0.0000000001
40
0
40
0
40
0
40
0
40
0.037905992775286189
40
0.080161434913798346
40
0.080161434913798346
40
0.080161434913798346
40
0.080161434913798346
10
-66.691849244045727
20
11.927849843244456
30
0
10
-66.799988839237244
20
11.861417899210824
30
0
10
-67.028676296994632
20
11.720931407024269
30
0
10
-67.286055218603508
20
11.644256555877233
30
0
10
-67.421727192806713
20
11.603838994245432
30
0
0
SPLINE
5
208
100
AcDbEntity
8
0
100
AcDbSpline
70
0
71
3
72
9
73
5
74
0
42
0.000000001
43
0.0000000001
44
0.0000000001
40
0
40
0
40
0
40
0
40
0.04694168659307834
40
0.09877920450026656
40
0.09877920450026656
40
0.09877920450026656
40
0.09877920450026656
10
-67.421727192806713
20
11.603838994245432
30
0
10
-67.574904997992718
20
11.570039930876819
30
0
10
-67.897236444549691
20
11.49891669618464
30
0
10
-68.227345635913963
20
11.491676492217966
30
0
10
-68.400580895351879
20
11.487876965742014
30
0
0
SPLINE
5
209
100
AcDbEntity
8
0
100
AcDbSpline
70
0
71
3
72
9
73
5
74
0
42
0.000000001
43
0.0000000001
44
0.0000000001
40
0
40
0
40
0
40
0
40
0.054817624445512754
40
0.1092347205811523
40
0.1092347205811523
40
0.1092347205811523
40
0.1092347205811523
10
-68.400580895351879
20
11.487876965742014
30
0
10
-68.583575760403974
20
11.492638057379656
30
0
10
-68.948228427387406
20
11.502125453449077
30
0
10
-69.306624907146698
20
11.57001745997313
30
0
10
-69.485166085171215
20
11.603838994245432
30
0
0
LINE
5
210
100
AcDbEntity
8
0
100
AcDbLine
10
-69.485166085171215
20
11.603838994245434
30
0
11
-69.655697358059399
21
13.104521825055979
31
0
0
SPLINE
5
211
100
AcDbEntity
8
0
100
AcDbSpline
70
0
71
3
72
9
73
5
74
0
42
0.000000001
43
0.0000000001
44
0.0000000001
40
0
40
0
40
0
40
0
40
0.043317398826422278
40
0.081750801596565753
40
0.081750801596565753
40
0.081750801596565753
40
0.081750801596565753
10
-69.655697358059399
20
13.104521825055979
30
0
10
-69.513408056239214
20
13.078685011457338
30
0
10
-69.244872437814251
20
13.029924460740681
30
0
10
-68.97217054481473
20
13.02034703976652
30
0
10
-68.843965542721264
20
13.015844418744944
30
0
0
SPLINE
5
212
100
AcDbEntity
8
0
100
AcDbSpline
70
0
71
3
72
9
73
5
74
0
42
0.000000001
43
0.0000000001
44
0.0000000001
40
0
40
0
40
0
40
0
40
0.058972341255586418
40
0.10923674002668557
40
0.10923674002668557
40
0.10923674002668557
40
0.10923674002668557
10
-68.843965542721264
20
13.015844418744944
30
0
10
-68.640829631006198
20
13.026296958084309
30
0
10
-68.264553154514786
20
13.045658599459271
30
0
10
-67.98398162530242
20
13.293859290823686
30
0
10
-67.854878914761059
20
13.408066823224924
30
0
0
LINE
5
213
100
AcDbEntity
8
0
100
AcDbLine
10
-31.84532882015656
20
30.034944607953928
30
0
11
-32.773025048183904
21
30.034944607953928
31
0
0
LINE
5
214
100
AcDbEntity
8
0
100
AcDbLine
10
-32.773025048183904
20
30.034944607953928
30
0
11
-32.773025048183904
21
31.951725079755686
31
0
0
LINE
5
215
100
AcDbEntity
8
0
100
AcDbLine
10
-32.773025048183904
20
31.951725079755686
30
0
11
-30.856244576382146
21
31.951725079755686
31
0
0
LINE
5
216
100
AcDbEntity
8
0
100
AcDbLine
10
-30.856244576382146
20
31.951725079755686
30
0
11
-30.856244576382146
21
30.580646588544749
31
0
0
SPLINE
5
217
100
AcDbEntity
8
0
100
AcDbSpline
70
0
71
3
72
9
73
5
74
0
42
0.000000001
43
0.0000000001
44
0.0000000001
40
0
40
0
40
0
40
0
40
0.074523230744404367
40
0.132401478418751
40
0.132401478418751
40
0.132401478418751
40
0.132401478418751
10
-30.856244576382146
20
30.580646588544749
30
0
10
-30.858563763898665
20
30.331388561536201
30
0
10
-30.862684141569492
20
29.888545021957778
30
0
10
-30.957877995120757
20
29.456441914371144
30
0
10
-30.999491227077947
20
29.267551495771311
30
0
0
SPLINE
5
218
100
AcDbEntity
8
0
100
AcDbSpline
70
0
71
3
72
9
73
5
74
0
42
0.000000001
43
0.0000000001
44
0.0000000001
40
0
40
0
40
0
40
0
40
0.050102717006946858
40
0.10280060611327475
40
0.10280060611327475
40
0.10280060611327475
40
0.10280060611327475
10
-30.999491227077947
20
29.267551495771311
30
0
10
-31.059509707939075
20
29.109848501733559
30
0
10
-31.182655448910879
20
28.786273966430169
30
0
10
-31.420076488726263
20
28.533985927134601
30
0
10
-31.541783821987615
20
28.404657437543772
30
0
0
SPLINE
5
219
100
AcDbEntity
8
0
100
AcDbSpline
70
0
71
3
72
9
73
5
74
0
42
0.000000001
43
0.0000000001
44
0.0000000001
40
0
40
0
40
0
40
0
40
0.056685191171404199
40
0.11841082651792129
40
0.11841082651792129
40
0.11841082651792129
40
0.11841082651792129
10
-31.541783821987615
20
28.404657437543772
30
0
10
-31.687784604523124
20
28.282750319896685
30
0
10
-31.99276855138887
20
28.028096110204412
30
0
10
-32.36217679914553
20
27.881042739636499
30
0
10
-32.554743302273259
20
27.804386212568186
30
0
0
LINE
5
220
100
AcDbEntity
8
0
100
AcDbLine
10
-32.554743302273259
20
27.804386212568186
30
0
11
-32.929914009975896
21
28.595654561262034
31
0
0
SPLINE
5
221
100
AcDbEntity
8
0
100
AcDbSpline
70
0
71
3
72
9
73
5
74
0
42
0.000000001
43
0.0000000001
44
0.0000000001
40
0
40
0
40
0
40
0
40
0.054562345280807667
40
0.098990467130899359
40
0.098990467130899359
40
0.098990467130899359
40
0.098990467130899359
10
-32.929914009975896
20
28.595654561262034
30
0
10
-32.75604177314122
20
28.65842391838747
30
0
10
-32.440591734166944
20
28.772304066892346
30
0
10
-32.208640172506513
20
29.012907387668932
30
0
10
-32.104537499355779
20
29.120893075208567
30
0
0
SPLINE
5
222
100
AcDbEntity
8
0
100
AcDbSpline
70
0
71
3
72
9
73
5
74
0
42
0.000000001
43
0.0000000001
44
0.0000000001
40
0
40
0
40
0
40
0
40
0.043785335373050564
40
0.096119465412801891
40
0.096119465412801891
40
0.096119465412801891
40
0.096119465412801891
10
-32.104537499355779
20
29.120893075208567
30
0
10
-32.032315622632197
20
29.249878548543087
30
0
10
-31.87377102950223
20
29.533033048498393
30
0
10
-31.855355510840457
20
29.858006456062583
30
0
10
-31.84532882015656
20
30.034944607953928
30
0
0
LINE
5
223
100
AcDbEntity
8
0
100
AcDbLine
10
-41.66797400753449
20
37.279145314435866
30
0
11
-44.546554100918279
21
30.034944607953928
31
0
0
LINE
5
224
100
AcDbEntity
8
0
100
AcDbLine
10
-44.546554100918279
20
30.034944607953928
30
0
11
-46.272342217373357
21
30.034944607953928
31
0
0
LINE
5
225
100
AcDbEntity
8
0
100
AcDbLine
10
-46.272342217373357
20
30.034944607953928
30
0
11
-49.19184924404572
21
37.279145314435866
31
0
0
LINE
5
226
100
AcDbEntity
8
0
100
AcDbLine
10
-49.19184924404572
20
37.279145314435866
30
0
11
-47.179572594570622
21
37.279145314435866
31
0
0
LINE
5
227
100
AcDbEntity
8
0
100
AcDbLine
10
-47.179572594570622
20
37.279145314435866
30
0
11
-45.81531287472199
21
33.582012250165846
31
0
0
LINE
5
228
100
AcDbEntity
8
0
100
AcDbLine
10
-45.81531287472199
20
33.582012250165846
30
0
11
-45.419681084560857
21
32.347359254102614
31
0
0
SPLINE
5
229
100
AcDbEntity
8
0
100
AcDbSpline
70
0
71
3
72
9
73
5
74
0
42
0.000000001
43
0.0000000001
44
0.0000000001
40
0
40
0
40
0
40
0
40
0.041093023132528057
40
0.065153046624416386
40
0.065153046624416386
40
0.065153046624416386
40
0.065153046624416386
10
-45.419681084560857
20
32.347359254102614
30
0
10
-45.376157190885579
20
32.477251301212988
30
0
10
-45.307149995558113
20
32.683195326655692
30
0
10
-45.244865792811822
20
32.891260897362535
30
0
10
-45.22186518948029
20
32.968096329908278
30
0
0
SPLINE
5
230
100
AcDbEntity
8
0
100
AcDbSpline
70
0
71
3
72
9
73
5
74
0
42
0.000000001
43
0.0000000001
44
0.0000000001
40
0
40
0
40
0
40
0
40
0.032249916459612789
40
0.064715677558426624
40
0.064715677558426624
40
0.064715677558426624
40
0.064715677558426624
10
-45.22186518948029
20
32.968096329908278
30
0
10
-45.189403032765952
20
33.07058455238321
30
0
10
-45.12426145420072
20
33.276246938130157
30
0
10
-45.052983564985979
20
33.479864106343157
30
0
10
-45.017225754665837
20
33.582012250165846
30
0
0
LINE
5
231
100
AcDbEntity
8
0
100
AcDbLine
10
-45.017225754665837
20
33.582012250165846
30
0
11
-43.639323723721013
21
37.279145314435866
31
0
0
LINE
5
232
100
AcDbEntity
8
0
100
AcDbLine
10
-43.639323723721013
20
37.279145314435866
30
0
11
-41.66797400753449
21
37.279145314435866
31
0
0
SPLINE
5
233
100
AcDbEntity
8
0
100
AcDbSpline
70
0
71
3
72
9
73
5
74
0
42
0.000000001
43
0.0000000001
44
0.0000000001
40
0
40
0
40
0
40
0
40
0.1196258582622774
40
0.22075292984216166
40
0.22075292984216166
40
0.22075292984216166
40
0.22075292984216166
10
-33.523366463589177
20
21.835763051252268
30
0
10
-33.118103845542691
20
21.821077639942242
30
0
10
-32.370247892082176
20
21.793977750171599
30
0
10
-31.717858356400157
20
21.432005551544819
30
0
10
-31.41899825375031
20
21.266185834150217
30
0
0
SPLINE
5
234
100
AcDbEntity
8
0
100
AcDbSpline
70
0
71
3
72
9
73
5
74
0
42
0.000000001
43
0.0000000001
44
0.0000000001
40
0
40
0
40
0
40
0
40
0.09833432083706245
40
0.20960838106915536
40
0.20960838106915536
40
0.20960838106915536
40
0.20960838106915536
10
-31.41899825375031
20
21.266185834150217
30
0
10
-31.174015280262406
20
21.040672726884772
30
0
10
-30.651812207874343
20
20.559971412009077
30
0
10
-30.419974923982906
20
19.887279263415017
30
0
10
-30.296900284695134
20
19.530169560651682
30
0
0
LINE
5
235
100
AcDbEntity
8
0
100
AcDbLine
10
-30.296900284695134
20
19.530169560651679
30
0
11
-32.186396134304509
21
19.189104630689524
31
0
0
SPLINE
5
236
100
AcDbEntity
8
0
100
AcDbSpline
70
0
71
3
72
9
73
5
74
0
42
0.000000001
43
0.0000000001
44
0.0000000001
40
0
40
0
40
0
40
0
40
0.052020219217162197
40
0.097166823544553485
40
0.097166823544553485
40
0.097166823544553485
40
0.097166823544553485
10
-32.186396134304509
20
19.189104630689524
30
0
10
-32.223839684713376
20
19.362156586617182
30
0
10
-32.293779237260658
20
19.685394533682874
30
0
10
-32.516201469147823
20
19.928712827128464
30
0
10
-32.619545472073064
20
20.041765763502024
30
0
0
SPLINE
5
237
100
AcDbEntity
8
0
100
AcDbSpline
70
0
71
3
72
9
73
5
74
0
42
0.000000001
43
0.0000000001
44
0.0000000001
40
0
40
0
40
0
40
0
40
0.044348806629776201
40
0.093728688893307904
40
0.093728688893307904
40
0.093728688893307904
40
0.093728688893307904
10
-32.619545472073064
20
20.041765763502024
30
0
10
-32.74485614708469
20
20.125261026406474
30
0
10
-33.009693155467446
20
20.301723531613582
30
0
10
-33.328252508385134
20
20.319102929111011
30
0
10
-33.496081841396794
20
20.328259064893626
30
0
0
SPLINE
5
238
100
AcDbEntity
8
0
100
AcDbSpline
70
0
71
3
72
9
73
5
74
0
42
0.000000001
43
0.0000000001
44
0.0000000001
40
0
40
0
40
0
40
0
40
0.065552375854411052
40
0.12771163013267606
40
0.12771163013267606
40
0.12771163013267606
40
0.12771163013267606
10
-33.496081841396794
20
20.328259064893626
30
0
10
-33.720739180692988
20
20.309932075034851
30
0
10
-34.158425147812025
20
20.274226736825799
30
0
10
-34.481432778964532
20
19.977929471278117
30
0
10
-34.638645661282048
20
19.833716943006419
30
0
0
SPLINE
5
239
100
AcDbEntity
8
0
100
AcDbSpline
70
0
71
3
72
9
73
5
74
0
42
0.000000001
43
0.0000000001
44
0.0000000001
40
0
40
0
40
0
40
0
40
0.073410650756004905
40
0.17331552829470687
40
0.17331552829470687
40
0.17331552829470687
40
0.17331552829470687
10
-34.638645661282048
20
19.833716943006419
30
0
10
-34.76227194207717
20
19.618324353603036
30
0
10
-35.054141772223929
20
19.109803041793825
30
0
10
-35.061014536236065
20
18.519707666215744
30
0
10
-35.064976227688298
20
18.179556920270823
30
0
0
SPLINE
5
240
100
AcDbEntity
8
0
100
AcDbSpline
70
0
71
3
72
9
73
5
74
0
42
0.000000001
43
0.0000000001
44
0.0000000001
40
0
40
0
40
0
40
0
40
0.1105251874553594
40
0.18963810558426067
40
0.18963810558426067
40
0.18963810558426067
40
0.18963810558426067
10
-35.064976227688298
20
18.179556920270823
30
0
10
-35.062449389231631
20
17.803959092035893
30
0
10
-35.05811386292244
20
17.159511774207967
30
0
10
-34.757310698925139
20
16.594135419320956
30
0
10
-34.631822121548161
20
16.358272626142405
30
0
0
SPLINE
5
241
100
AcDbEntity
8
0
100
AcDbSpline
70
0
71
3
72
9
73
5
74
0
42
0.000000001
43
0.0000000001
44
0.0000000001
40
0
40
0
40
0
40
0
40
0.064546660671537623
40
0.13145114706159339
40
0.13145114706159339
40
0.13145114706159339
40
0.13145114706159339
10
-34.631822121548161
20
16.358272626142405
30
0
10
-34.47296018972051
20
16.203101980530601
30
0
10
-34.149433256709486
20
15.887092458988388
30
0
10
-33.698372773553054
20
15.846747346142562
30
0
10
-33.468797219204411
20
15.826212956647776
30
0
0
SPLINE
5
242
100
AcDbEntity
8
0
100
AcDbSpline
70
0
71
3
72
9
73
5
74
0
42
0.000000001
43
0.0000000001
44
0.0000000001
40
0
40
0
40
0
40
0
40
0.05022784305165981
40
0.096278205086493762
40
0.096278205086493762
40
0.096278205086493762
40
0.096278205086493762
10
-33.468797219204411
20
15.826212956647776
30
0
10
-33.297914714648194
20
15.836747193623371
30
0
10
-32.97036210996167
20
15.856939528518641
30
0
10
-32.703060764979327
20
16.046103426539648
30
0
10
-32.575209153103337
20
16.136581494550608
30
0
0
SPLINE
5
243
100
AcDbEntity
8
0
100
AcDbSpline
70
0
71
3
72
9
73
5
74
0
42
0.000000001
43
0.0000000001
44
0.0000000001
40
0
40
0
40
0
40
0
40
0.051592976571357654
40
0.11900366233293859
40
0.11900366233293859
40
0.11900366233293859
40
0.11900366233293859
10
-32.575209153103337
20
16.136581494550608
30
0
10
-32.465610978240434
20
16.272070498502593
30
0
10
-32.212813309634285
20
16.584587603497056
30
0
10
-32.130629926919021
20
16.980080015550296
30
0
10
-32.084076416897283
20
17.204110219221018
30
0
0
LINE
5
244
100
AcDbEntity
8
0
100
AcDbLine
10
-32.084076416897275
20
17.204110219221018
30
0
11
-30.201399338650212
21
16.883513524274729
31
0
0
SPLINE
5
245
100
AcDbEntity
8
0
100
AcDbSpline
70
0
71
3
72
9
73
5
74
0
42
0.000000001
43
0.0000000001
44
0.0000000001
40
0
40
0
40
0
40
0
40
0.12153200049970217
40
0.22920302810843449
40
0.22920302810843449
40
0.22920302810843449
40
0.22920302810843449
10
-30.201399338650212
20
16.883513524274729
30
0
10
-30.312332727930613
20
16.485665923282625
30
0
10
-30.521547326858105
20
15.735346052811217
30
0
10
-31.069502550230936
20
15.184546447029286
30
0
10
-31.326911461758122
20
14.925801350812815
30
0
0
SPLINE
5
246
100
AcDbEntity
8
0
100
AcDbSpline
70
0
71
3
72
9
73
5
74
0
42
0.000000001
43
0.0000000001
44
0.0000000001
40
0
40
0
40
0
40
0
40
0.10929007836101452
40
0.23605582623778754
40
0.23605582623778754
40
0.23605582623778754
40
0.23605582623778754
10
-31.326911461758122
20
14.925801350812815
30
0
10
-31.643017443510793
20
14.733096815832951
30
0
10
-32.325775291435939
20
14.316873962792469
30
0
10
-33.127129728779778
20
14.282562919710298
30
0
10
-33.557469857143865
20
14.264137341718577
30
0
0
SPLINE
5
247
100
AcDbEntity
8
0
100
AcDbSpline
70
0
71
3
72
9
73
5
74
0
42
0.000000001
43
0.0000000001
44
0.0000000001
40
0
40
0
40
0
40
0
40
0.14500417152329342
40
0.27874239816311053
40
0.27874239816311053
40
0.27874239816311053
40
0.27874239816311053
10
-33.557469857143865
20
14.264137341718577
30
0
10
-34.053406841904746
20
14.298736492428326
30
0
10
-35.006749514862449
20
14.365246649632288
30
0
10
-35.739845036629134
20
14.974536559696281
30
0
10
-36.091578019070134
20
15.266868664960764
30
0
0
SPLINE
5
248
100
AcDbEntity
8
0
100
AcDbSpline
70
0
71
3
72
9
73
5
74
0
42
0.000000001
43
0.0000000001
44
0.0000000001
40
0
40
0
40
0
40
0
40
0.1389640925483186
40
0.2988021873408141
40
0.2988021873408141
40
0.2988021873408141
40
0.2988021873408141
10
-36.091578019070134
20
15.266868664960764
30
0
10
-36.366770366803749
20
15.651472500658761
30
0
10
-36.958492112575357
20
16.478452084080786
30
0
10
-37.00920052164318
20
17.497832446869353
30
0
10
-37.036325943874822
20
18.043129040937327
30
0
0
SPLINE
5
249
100
AcDbEntity
8
0
100
AcDbSpline
70
0
71
3
72
9
73
5
74
0
42
0.000000001
43
0.0000000001
44
0.0000000001
40
0
40
0
40
0
40
0
40
0.16128419545119776
40
0.3005991157941435
40
0.3005991157941435
40
0.3005991157941435
40
0.3005991157941435
10
-37.036325943874822
20
18.043129040937327
30
0
10
-37.009734057593526
20
18.593542861223121
30
0
10
-36.960172490317206
20
19.619396059274692
30
0
10
-36.364320649208828
20
20.451022401139181
30
0
10
-36.088168633388982
20
20.836445882062815
30
0
0
SPLINE
5
250
100
AcDbEntity
8
0
100
AcDbSpline
70
0
71
3
72
9
73
5
74
0
42
0.000000001
43
0.0000000001
44
0.0000000001
40
0
40
0
40
0
40
0
40
0.1343714675928688
40
0.28146141781743556
40
0.28146141781743556
40
0.28146141781743556
40
0.28146141781743556
10
-36.088168633388982
20
20.836445882062815
30
0
10
-35.733033496464174
20
21.127750699751068
30
0
10
-34.989149091937897
20
21.737932820050663
30
0
10
-34.026461098029166
20
21.802185177253989
30
0
10
-33.523366463589177
20
21.835763051252268
30
0
0
LINE
5
251
100
AcDbEntity
8
0
100
AcDbLine
10
-77.752561581539624
20
30.034944607953928
30
0
11
-77.752561581539624
21
40.034944607953932
31
0
0
LINE
5
252
100
AcDbEntity
8
0
100
AcDbLine
10
-77.752561581539624
20
40.034944607953932
30
0
11
-75.835781109737866
21
40.034944607953932
31
0
0
LINE
5
253
100
AcDbEntity
8
0
100
AcDbLine
10
-75.835781109737866
20
40.034944607953932
30
0
11
-75.835781109737866
21
36.358272626142409
31
0
0
SPLINE
5
254
100
AcDbEntity
8
0
100
AcDbSpline
70
0
71
3
72
9
73
5
74
0
42
0.000000001
43
0.0000000001
44
0.0000000001
40
0
40
0
40
0
40
0
40
0.13031352413746655
40
0.25322560649746101
40
0.25322560649746101
40
0.25322560649746101
40
0.25322560649746101
10
-75.835781109737866
20
36.358272626142409
30
0
10
-75.518118189667504
20
36.674530433667677
30
0
10
-74.900834710235898
20
37.289083494451013
30
0
10
-74.037779609515269
20
37.392608339160333
30
0
10
-73.618865025448315
20
37.442857815961744
30
0
0
SPLINE
5
255
100
AcDbEntity
8
0
100
AcDbSpline
70
0
71
3
72
9
73
5
74
0
42
0.000000001
43
0.0000000001
44
0.0000000001
40
0
40
0
40
0
40
0
40
0.063225303658628301
40
0.12260003332447966
40
0.12260003332447966
40
0.12260003332447966
40
0.12260003332447966
10
-73.618865025448315
20
37.442857815961744
30
0
10
-73.406686277486898
20
37.433973239816453
30
0
10
-72.995250980769853
20
37.416745179713061
30
0
10
-72.611155124461504
20
37.268894816308801
30
0
10
-72.425138962673657
20
37.197291447858717
30
0
0
SPLINE
5
256
100
AcDbEntity
8
0
100
AcDbSpline
70
0
71
3
72
9
73
5
74
0
42
0.000000001
43
0.0000000001
44
0.0000000001
40
0
40
0
40
0
40
0
40
0.054382824877587645
40
0.10268534445575132
40
0.10268534445575132
40
0.10268534445575132
40
0.10268534445575132
10
-72.425138962673657
20
37.197291447858717
30
0
10
-72.261803901325635
20
37.113953892469866
30
0
10
-71.953395555970744
20
36.956596388506668
30
0
10
-71.729132131904876
20
36.693494593349691
30
0
10
-71.623640072750561
20
36.569733216504957
30
0
0
SPLINE
5
257
100
AcDbEntity
8
0
100
AcDbSpline
70
0
71
3
72
9
73
5
74
0
42
0.000000001
43
0.0000000001
44
0.0000000001
40
0
40
0
40
0
40
0
40
0.046196534219868954
40
0.092739425337241957
40
0.092739425337241957
40
0.092739425337241957
40
0.092739425337241957
10
-71.623640072750561
20
36.569733216504957
30
0
10
-71.540871160730276
20
36.438705544662227
30
0
10
-71.374712779670418
20
36.175667825595731
30
0
10
-71.295196930415841
20
35.874859247830571
30
0
10
-71.25529052059602
20
35.723893239240553
30
0
0
SPLINE
5
258
100
AcDbEntity
8
0
100
AcDbSpline
70
0
71
3
72
9
73
5
74
0
42
0.000000001
43
0.0000000001
44
0.0000000001
40
0
40
0
40
0
40
0
40
0.059637697311907538
40
0.14442823216914077
40
0.14442823216914077
40
0.14442823216914077
40
0.14442823216914077
10
-71.25529052059602
20
35.723893239240553
30
0
10
-71.22665512529332
20
35.52694607027216
30
0
10
-71.15730705004151
20
35.049987154570672
30
0
10
-71.156723044978506
20
34.567727111034465
30
0
10
-71.156380188869946
20
34.284603192548659
30
0
0
LINE
5
259
100
AcDbEntity
8
0
100
AcDbLine
10
-71.156380188869946
20
34.284603192548659
30
0
11
-71.156380188869946
21
30.034944607953928
31
0
0
LINE
5
260
100
AcDbEntity
8
0
100
AcDbLine
10
-71.156380188869946
20
30.034944607953928
30
0
11
-73.073160660671704
21
30.034944607953928
31
0
0
LINE
5
261
100
AcDbEntity
8
0
100
AcDbLine
10
-73.073160660671704
20
30.034944607953928
30
0
11
-73.073160660671704
21
33.861684396009352
31
0
0
SPLINE
5
262
100
AcDbEntity
8
0
100
AcDbSpline
70
0
71
3
72
9
73
5
74
0
42
0.000000001
43
0.0000000001
44
0.0000000001
40
0
40
0
40
0
40
0
40
0.09315052949326999
40
0.14529755261133837
40
0.14529755261133837
40
0.14529755261133837
40
0.14529755261133837
10
-73.073160660671704
20
33.861684396009352
30
0
10
-73.069547221469278
20
34.173244116894587
30
0
10
-73.063910926372785
20
34.659219507299291
30
0
10
-73.151033428587198
20
35.136500376369199
30
0
10
-73.182301533627026
20
35.307795598249342
30
0
0
SPLINE
5
263
100
AcDbEntity
8
0
100
AcDbSpline
70
0
71
3
72
9
73
5
74
0
42
0.000000001
43
0.0000000001
44
0.0000000001
40
0
40
0
40
0
40
0
40
0.031405223280829786
40
0.06303720401048192
40
0.06303720401048192
40
0.06303720401048192
40
0.06303720401048192
10
-73.182301533627026
20
35.307795598249342
30
0
10
-73.225809857562695
20
35.404965248886562
30
0
10
-73.313140651792764
20
35.600006151352773
30
0
10
-73.482647078904222
20
35.730191914878127
30
0
10
-73.567705166744702
20
35.795518948774244
30
0
0
SPLINE
5
264
100
AcDbEntity
8
0
100
AcDbSpline
70
0
71
3
72
9
73
5
74
0
42
0.000000001
43
0.0000000001
44
0.0000000001
40
0
40
0
40
0
40
0
40
0.033946642287211309
40
0.072327674479937931
40
0.072327674479937931
40
0.072327674479937931
40
0.072327674479937931
10
-73.567705166744702
20
35.795518948774244
30
0
10
-73.669420187675399
20
35.848188080167212
30
0
10
-73.886137083012272
20
35.960406418531917
30
0
10
-74.130430224414198
20
35.970777368079993
30
0
10
-74.260065567898266
20
35.976280762891676
30
0
0
SPLINE
5
265
100
AcDbEntity
8
0
100
AcDbSpline
70
0
71
3
72
9
73
5
74
0
42
0.000000001
43
0.0000000001
44
0.0000000001
40
0
40
0
40
0
40
0
40
0.045561485290752914
40
0.089248384343078843
40
0.089248384343078843
40
0.089248384343078843
40
0.089248384343078843
10
-74.260065567898266
20
35.976280762891676
30
0
10
-74.413592378091252
20
35.967455072013991
30
0
10
-74.714329276276899
20
35.950166815353406
30
0
10
-74.981798625002597
20
35.811994266292984
30
0
10
-75.112724316524975
20
35.744359090070631
30
0
0
SPLINE
5
266
100
AcDbEntity
8
0
100
AcDbSpline
70
0
71
3
72
9
73
5
74
0
42
0.000000001
43
0.0000000001
44
0.0000000001
40
0
40
0
40
0
40
0
40
0.043597712438918398
40
0.090191599149352375
40
0.090191599149352375
40
0.090191599149352375
40
0.090191599149352375
10
-75.112724316524975
20
35.744359090070631
30
0
10
-75.230280252393371
20
35.65480444880329
30
0
10
-75.473470944114268
20
35.469540684827969
30
0
10
-75.59767368340259
20
35.189730359854018
30
0
10
-75.661838066982739
20
35.045177533368971
30
0
0
SPLINE
5
267
100
AcDbEntity
8
0
100
AcDbSpline
70
0
71
3
72
9
73
5
74
0
42
0.000000001
43
0.0000000001
44
0.0000000001
40
0
40
0
40
0
40
0
40
0.059347231208833486
40
0.13970047708234354
40
0.13970047708234354
40
0.13970047708234354
40
0.13970047708234354
10
-75.661838066982739
20
35.045177533368971
30
0
10
-75.712285745255215
20
34.853158170253629
30
0
10
-75.831037110378958
20
34.401153989268884
30
0
10
-75.834048824813109
20
33.933088890640413
30
0
10
-75.835781109737866
20
33.663866116742994
30
0
0
LINE
5
268
100
AcDbEntity
8
0
100
AcDbLine
10
-75.835781109737866
20
33.663866116742994
30
0
11
-75.835781109737866
21
30.034944607953928
31
0
0
LINE
5
269
100
AcDbEntity
8
0
100
AcDbLine
10
-75.835781109737866
20
30.034944607953928
30
0
11
-77.752561581539624
21
30.034944607953928
31
0
0
LWPOLYLINE
5
270
100
AcDbEntity
8
0
100
AcDbPolyline
90
4
70
1
43
0.0
10
-84.362382901119702
20
37.279145314435866
10
-84.362382901119702
20
30.034944607953928
10
-86.27916337292146
20
30.034944607953928
10
-86.27916337292146
20
37.279145314435866
0
LWPOLYLINE
5
271
100
AcDbEntity
8
0
100
AcDbPolyline
90
13
70
1
43
0.0
10
-92.704811108517163
20
34.693879677991774
10
-93.932642949032299
20
30.034944607953928
10
-95.794852984356396
20
30.034944607953928
10
-98.086804163860791
20
37.279145314435866
10
-96.224594128536694
20
37.279145314435866
10
-94.867158544468396
20
32.53153522227278
10
-93.61886383335542
20
37.279145314435866
10
-91.770296109127514
20
37.279145314435866
10
-90.56292892734956
20
32.53153522227278
10
-89.178209317135327
20
37.279145314435866
10
-87.288713467525952
20
37.279145314435866
10
-89.614770424770825
20
30.034944607953928
10
-91.456516993450634
20
30.034944607953928
0
SPLINE
5
272
100
AcDbEntity
8
0
100
AcDbSpline
70
0
71
3
72
9
73
5
74
0
42
0.000000001
43
0.0000000001
44
0.0000000001
40
0
40
0
40
0
40
0
40
0.041891343625450619
40
0.080802900180538262
40
0.080802900180538262
40
0.080802900180538262
40
0.080802900180538262
10
-37.52063514034699
20
46.91079695437422
30
0
10
-37.37858450474733
20
46.919433011092636
30
0
10
-37.104587484466336
20
46.936090830312082
30
0
10
-36.874348944066362
20
47.08476593904755
30
0
10
-36.763474953579411
20
47.156362130384352
30
0
0
SPLINE
5
273
100
AcDbEntity
8
0
100
AcDbSpline
70
0
71
3
72
9
73
5
74
0
42
0.000000001
43
0.0000000001
44
0.0000000001
40
0
40
0
40
0
40
0
40
0.041878790838159825
40
0.09280260179204193
40
0.09280260179204193
40
0.09280260179204193
40
0.09280260179204193
10
-36.763474953579411
20
47.156362130384352
30
0
10
-36.665420541910493
20
47.258229645904059
30
0
10
-36.448133835729585
20
47.483966117495449
30
0
10
-36.352244462544661
20
47.783349988005824
30
0
10
-36.29962683956574
20
47.947631671171095
30
0
0
LINE
5
274
100
AcDbEntity
8
0
100
AcDbLine
10
-36.29962683956574
20
47.947631671171095
30
0
11
-34.389669907497868
21
47.627031399946119
31
0
0
SPLINE
5
275
100
AcDbEntity
8
0
100
AcDbSpline
70
0
71
3
72
9
73
5
74
0
42
0.000000001
43
0.0000000001
44
0.0000000001
40
0
40
0
40
0
40
0
40
0.10399224753884345
40
0.20034392772441273
40
0.20034392772441273
40
0.20034392772441273
40
0.20034392772441273
10
-34.389669907497868
20
47.627031399946119
30
0
10
-34.524820107525954
20
47.301593066595075
30
0
10
-34.785190688479595
20
46.674627158282711
30
0
10
-35.303451631456831
20
46.237613972803885
30
0
10
-35.5526995782132
20
46.027440621595289
30
0
0
SPLINE
5
276
100
AcDbEntity
8
0
100
AcDbSpline
70
0
71
3
72
9
73
5
74
0
42
0.000000001
43
0.0000000001
44
0.0000000001
40
0
40
0
40
0
40
0
40
0.098469976034529963
40
0.2087239372045116
40
0.2087239372045116
40
0.2087239372045116
40
0.2087239372045116
10
-35.5526995782132
20
46.027440621595289
30
0
10
-35.844352425116845
20
45.867420792140209
30
0
10
-36.462560461252536
20
45.528231425190981
30
0
10
-37.168305990919912
20
45.495576263000892
30
0
10
-37.541100991177068
20
45.478326871137526
30
0
0
SPLINE
5
277
100
AcDbEntity
8
0
100
AcDbSpline
70
0
71
3
72
9
73
5
74
0
42
0.000000001
43
0.0000000001
44
0.0000000001
40
0
40
0
40
0
40
0
40
0.16726605116311941
40
0.31513035550472562
40
0.31513035550472562
40
0.31513035550472562
40
0.31513035550472562
10
-37.541100991177068
20
45.478326871137526
30
0
10
-38.119146268331441
20
45.5158552405411
30
0
10
-39.208187424147596
20
45.586558938687993
30
0
10
-39.977059769115904
20
46.353240411359849
30
0
10
-40.337827217983708
20
46.712979867200758
30
0
0
SPLINE
5
278
100
AcDbEntity
8
0
100
AcDbSpline
70
0
71
3
72
9
73
5
74
0
42
0.000000001
43
0.0000000001
44
0.0000000001
40
0
40
0
40
0
40
0
40
0.12409795057435194
40
0.26304646223311789
40
0.26304646223311789
40
0.26304646223311789
40
0.26304646223311789
10
-40.337827217983708
20
46.712979867200758
30
0
10
-40.546551052269244
20
47.077074570321251
30
0
10
-40.988976297315105
20
47.848834483602687
30
0
10
-41.031567417035859
20
48.73923486160777
30
0
10
-41.054065239834294
20
49.20956928942671
30
0
0
SPLINE
5
279
100
AcDbEntity
8
0
100
AcDbSpline
70
0
71
3
72
9
73
5
74
0
42
0.000000001
43
0.0000000001
44
0.0000000001
40
0
40
0
40
0
40
0
40
0.16227148295963631
40
0.30279783674819521
40
0.30279783674819521
40
0.30279783674819521
40
0.30279783674819521
10
-41.054065239834294
20
49.20956928942671
30
0
10
-41.027417894300982
20
49.762842992267188
30
0
10
-40.977694070771413
20
50.795249163050961
30
0
10
-40.386906890412419
20
51.638720041586616
30
0
10
-40.112726700710759
20
52.030168964605238
30
0
0
SPLINE
5
280
100
AcDbEntity
8
0
100
AcDbSpline
70
0
71
3
72
9
73
5
74
0
42
0.000000001
43
0.0000000001
44
0.0000000001
40
0
40
0
40
0
40
0
40
0.13118537142223904
40
0.26511453492687997
40
0.26511453492687997
40
0.26511453492687997
40
0.26511453492687997
10
-40.112726700710759
20
52.030168964605238
30
0
10
-39.775763025098087
20
52.327596173817199
30
0
10
-39.094787950066483
20
52.928671395771865
30
0
10
-38.189451308187429
20
53.009246357849008
30
0
10
-37.732098114895329
20
53.049950792531874
30
0
0
SPLINE
5
281
100
AcDbEntity
8
0
100
AcDbSpline
70
0
71
3
72
9
73
5
74
0
42
0.000000001
43
0.0000000001
44
0.0000000001
40
0
40
0
40
0
40
0
40
0.14705342300057894
40
0.28351455521007146
40
0.28351455521007146
40
0.28351455521007146
40
0.28351455521007146
10
-37.732098114895329
20
53.049950792531874
30
0
10
-37.227991080437342
20
53.012504529632309
30
0
10
-36.256087953421634
20
52.940309266484945
30
0
10
-35.530282633434481
20
52.29366357208459
30
0
10
-35.180938256191716
20
51.98242027972212
30
0
0
SPLINE
5
282
100
AcDbEntity
8
0
100
AcDbSpline
70
0
71
3
72
9
73
5
74
0
42
0.000000001
43
0.0000000001
44
0.0000000001
40
0
40
0
40
0
40
0
40
0.15177174111539279
40
0.34477543536159461
40
0.34477543536159461
40
0.34477543536159461
40
0.34477543536159461
10
-35.180938256191716
20
51.98242027972212
30
0
10
-34.911755972670953
20
51.543511758938145
30
0
10
-34.300262434345292
20
50.546456080291392
30
0
10
-34.291984268850783
20
49.370121856182635
30
0
10
-34.287350190090642
20
48.71161539767256
30
0
0
LINE
5
283
100
AcDbEntity
8
0
100
AcDbLine
10
-34.287350190090642
20
48.71161539767256
30
0
11
-39.089534295010075
21
48.71161539767256
31
0
0
SPLINE
5
284
100
AcDbEntity
8
0
100
AcDbSpline
70
0
71
3
72
9
73
5
74
0
42
0.000000001
43
0.0000000001
44
0.0000000001
40
0
40
0
40
0
40
0
40
0.076844764386096845
40
0.14298534459630308
40
0.14298534459630308
40
0.14298534459630308
40
0.14298534459630308
10
-39.089534295010075
20
48.71161539767256
30
0
10
-39.071304731959771
20
48.45023310499905
30
0
10
-39.037384914840047
20
47.96387808149332
30
0
10
-38.755894777340544
20
47.567997618370796
30
0
10
-38.625686180996404
20
47.38487560961714
30
0
0
SPLINE
5
285
100
AcDbEntity
8
0
100
AcDbSpline
70
0
71
3
72
9
73
5
74
0
42
0.000000001
43
0.0000000001
44
0.0000000001
40
0
40
0
40
0
40
0
40
0.061186393619732618
40
0.12304242768786922
40
0.12304242768786922
40
0.12304242768786922
40
0.12304242768786922
10
-38.625686180996404
20
47.38487560961714
30
0
10
-38.468203798481333
20
47.246604129271702
30
0
10
-38.151515503643282
20
46.968547888084579
30
0
10
-37.731690207405748
20
46.930116983806201
30
0
10
-37.52063514034699
20
46.91079695437422
30
0
0
SPLINE
5
286
100
AcDbEntity
8
0
100
AcDbSpline
70
0
71
3
72
9
73
5
74
0
42
0.000000001
43
0.0000000001
44
0.0000000001
40
0
40
0
40
0
40
0
40
0.045809295060625768
40
0.083261700406559724
40
0.083261700406559724
40
0.083261700406559724
40
0.083261700406559724
10
-54.103171837734685
20
51.583375527601149
30
0
10
-54.258253380965883
20
51.578920605686996
30
0
10
-54.540125279977104
20
51.570823463540208
30
0
10
-54.789217968227007
20
51.440685391564628
30
0
10
-54.901263726162419
20
51.382147266607191
30
0
0
SPLINE
5
287
100
AcDbEntity
8
0
100
AcDbSpline
70
0
71
3
72
9
73
5
74
0
42
0.000000001
43
0.0000000001
44
0.0000000001
40
0
40
0
40
0
40
0
40
0.037944906288185476
40
0.085465679414290216
40
0.085465679414290216
40
0.085465679414290216
40
0.085465679414290216
10
-54.901263726162419
20
51.382147266607191
30
0
10
-54.994755912646944
20
51.29461133993626
30
0
10
-55.20533419625481
20
51.097448711854611
30
0
10
-55.308017624770201
20
50.826691462730871
30
0
10
-55.365111840176091
20
50.676144554357435
30
0
0
LINE
5
288
100
AcDbEntity
8
0
100
AcDbLine
10
-55.365111840176098
20
50.676144554357435
30
0
11
-57.104537499355779
21
50.989923670034315
31
0
0
SPLINE
5
289
100
AcDbEntity
8
0
100
AcDbSpline
70
0
71
3
72
9
73
5
74
0
42
0.000000001
43
0.0000000001
44
0.0000000001
40
0
40
0
40
0
40
0
40
0.099736099770462994
40
0.18827159848607933
40
0.18827159848607933
40
0.18827159848607933
40
0.18827159848607933
10
-57.104537499355779
20
50.989923670034315
30
0
10
-56.997011163985796
20
51.311536049685955
30
0
10
-56.794033956274177
20
51.918642974352956
30
0
10
-56.318574284170843
20
52.344782476150229
30
0
10
-56.094987404751286
20
52.545176341276076
30
0
0
SPLINE
5
290
100
AcDbEntity
8
0
100
AcDbSpline
70
0
71
3
72
9
73
5
74
0
42
0.000000001
43
0.0000000001
44
0.0000000001
40
0
40
0
40
0
40
0
40
0.096733728424145154
40
0.22118120421527848
40
0.22118120421527848
40
0.22118120421527848
40
0.22118120421527848
10
-56.094987404751286
20
52.545176341276076
30
0
10
-55.80352194959238
20
52.691815283361592
30
0
10
-55.137087589939298
20
53.027104518292354
30
0
10
-54.388142337218056
20
53.041724735711917
30
0
10
-53.966748726772771
20
53.049950792531874
30
0
0
SPLINE
5
291
100
AcDbEntity
8
0
100
AcDbSpline
70
0
71
3
72
9
73
5
74
0
42
0.000000001
43
0.0000000001
44
0.0000000001
40
0
40
0
40
0
40
0
40
0.1121259541722959
40
0.19446319935325243
40
0.19446319935325243
40
0.19446319935325243
40
0.19446319935325243
10
-53.966748726772771
20
53.049950792531874
30
0
10
-53.589898881998579
20
53.047155528544955
30
0
10
-52.936317585575843
20
53.042307623508655
30
0
10
-52.318412774161715
20
52.834423693935186
30
0
10
-52.056787026333318
20
52.746404006223585
30
0
0
SPLINE
5
292
100
AcDbEntity
8
0
100
AcDbSpline
70
0
71
3
72
9
73
5
74
0
42
0.000000001
43
0.0000000001
44
0.0000000001
40
0
40
0
40
0
40
0
40
0.063598483900175085
40
0.11867781243398261
40
0.11867781243398261
40
0.11867781243398261
40
0.11867781243398261
10
-52.056787026333318
20
52.746404006223585
30
0
10
-51.866797445935887
20
52.644779464670549
30
0
10
-51.512267803024756
20
52.455143210132611
30
0
10
-51.280842842159601
20
52.127609948649166
30
0
10
-51.173436654018865
20
51.975599124174025
30
0
0
SPLINE
5
293
100
AcDbEntity
8
0
100
AcDbSpline
70
0
71
3
72
9
73
5
74
0
42
0.000000001
43
0.0000000001
44
0.0000000001
40
0
40
0
40
0
40
0
40
0.068973631011162273
40
0.17447118048719856
40
0.17447118048719856
40
0.17447118048719856
40
0.17447118048719856
10
-51.173436654018865
20
51.975599124174025
30
0
10
-51.099600666236526
20
51.75646975877406
30
0
10
-50.91282998645692
20
51.202174465047179
30
0
10
-50.915822878845901
20
50.615058146286138
30
0
10
-50.917632592129216
20
50.260046317319777
30
0
0
LINE
5
294
100
AcDbEntity
8
0
100
AcDbLine
10
-50.917632592129209
20
50.260046317319762
30
0
11
-50.938098442959294
21
48.022665574293043
31
0
0
SPLINE
5
295
100
AcDbEntity
8
0
100
AcDbSpline
70
0
71
3
72
9
73
5
74
0
42
0.000000001
43
0.0000000001
44
0.0000000001
40
0
40
0
40
0
40
0
40
0.082995759672698191
40
0.14130191170901041
40
0.14130191170901041
40
0.14130191170901041
40
0.14130191170901041
10
-50.938098442959294
20
48.022665574293043
30
0
10
-50.937794879818775
20
47.745578747805055
30
0
10
-50.937278057607038
20
47.27383298095458
30
0
10
-50.872670859425469
20
46.806789385982519
30
0
10
-50.846011650967107
20
46.614070727567579
30
0
0
SPLINE
5
296
100
AcDbEntity
8
0
100
AcDbSpline
70
0
71
3
72
9
73
5
74
0
42
0.000000001
43
0.0000000001
44
0.0000000001
40
0
40
0
40
0
40
0
40
0.048805034177547356
40
0.10333026062733294
40
0.10333026062733294
40
0.10333026062733294
40
0.10333026062733294
10
-50.846011650967107
20
46.614070727567579
30
0
10
-50.806514765305621
20
46.455868564981408
30
0
10
-50.722891762921861
20
46.120922161043481
30
0
10
-50.577994316043196
20
45.807450596457628
30
0
10
-50.501534951138005
20
45.642038180570509
30
0
0
LINE
5
297
100
AcDbEntity
8
0
100
AcDbLine
10
-50.501534951138005
20
45.642038180570509
30
0
11
-52.397854340481267
21
45.642038180570509
31
0
0
SPLINE
5
298
100
AcDbEntity
8
0
100
AcDbSpline
70
0
71
3
72
9
73
5
74
0
42
0.000000001
43
0.0000000001
44
0.0000000001
40
0
40
0
40
0
40
0
40
0.025133657540267345
40
0.059549887827093362
40
0.059549887827093362
40
0.059549887827093362
40
0.059549887827093362
10
-52.397854340481267
20
45.642038180570509
30
0
10
-52.42641740452099
20
45.720817931177507
30
0
10
-52.494092682456106
20
45.90747302919408
30
0
10
-52.549820575688521
20
46.098058154577032
30
0
10
-52.582027924465642
20
46.208204819898512
30
0
0
SPLINE
5
299
100
AcDbEntity
8
0
100
AcDbSpline
70
0
71
3
72
9
73
5
74
0
42
0.000000001
43
0.0000000001
44
0.0000000001
40
0
40
0
40
0
40
0
40
0.014733907235012007
40
0.023524175663274586
40
0.023524175663274586
40
0.023524175663274586
40
0.023524175663274586
10
-52.582027924465642
20
46.208204819898512
30
0
10
-52.595168493428552
20
46.255539481353061
30
0
10
-52.616148743111694
20
46.331114064066092
30
0
10
-52.640966019235115
20
46.405507839678542
30
0
10
-52.650239479946599
20
46.433306529264357
30
0
0
SPLINE
5
300
100
AcDbEntity
8
0
100
AcDbSpline
70
0
71
3
72
9
73
5
74
0
42
0.000000001
43
0.0000000001
44
0.0000000001
40
0
40
0
40
0
40
0
40
0.065788388352486266
40
0.12768729335275905
40
0.12768729335275905
40
0.12768729335275905
40
0.12768729335275905
10
-52.650239479946599
20
46.433306529264357
30
0
10
-52.813778802728983
20
46.285398238878095
30
0
10
-53.131188819994378
20
45.998326162227315
30
0
10
-53.514771899578378
20
45.808900073490264
30
0
10
-53.700721276211247
20
45.717072083692457
30
0
0
SPLINE
5
301
100
AcDbEntity
8
0
100
AcDbSpline
70
0
71
3
72
9
73
5
74
0
42
0.000000001
43
0.0000000001
44
0.0000000001
40
0
40
0
40
0
40
0
40
0.060519414044468221
40
0.12237060594412788
40
0.12237060594412788
40
0.12237060594412788
40
0.12237060594412788
10
-53.700721276211247
20
45.717072083692457
30
0
10
-53.891420099528702
20
45.647440098584653
30
0
10
-54.277014225490348
20
45.506643821137672
30
0
10
-54.687146866461688
20
45.487834090852957
30
0
10
-54.894444954800115
20
45.478326871137526
30
0
0
SPLINE
5
302
100
AcDbEntity
8
0
100
AcDbSpline
70
0
71
3
72
9
73
5
74
0
42
0.000000001
43
0.0000000001
44
0.0000000001
40
0
40
0
40
0
40
0
40
0.10116208271284238
40
0.1900263029491927
40
0.1900263029491927
40
0.1900263029491927
40
0.1900263029491927
10
-54.894444954800115
20
45.478326871137526
30
0
10
-55.2394966258057
20
45.496394648498104
30
0
10
-55.887653441178472
20
45.53033377709518
30
0
10
-56.412367625796165
20
45.90855133861632
30
0
10
-56.657745850491033
20
46.085421635846998
30
0
0
SPLINE
5
303
100
AcDbEntity
8
0
100
AcDbSpline
70
0
71
3
72
9
73
5
74
0
42
0.000000001
43
0.0000000001
44
0.0000000001
40
0
40
0
40
0
40
0
40
0.084026080163159114
40
0.17029901324070729
40
0.17029901324070729
40
0.17029901324070729
40
0.17029901324070729
10
-56.657745850491033
20
46.085421635846998
30
0
10
-56.845749136888728
20
46.303135953017581
30
0
10
-57.226782907562885
20
46.744386256620132
30
0
10
-57.2769458017465
20
47.325712325317078
30
0
10
-57.302358162807927
20
47.620210244398024
30
0
0
SPLINE
5
304
100
AcDbEntity
8
0
100
AcDbSpline
70
0
71
3
72
9
73
5
74
0
42
0.000000001
43
0.0000000001
44
0.0000000001
40
0
40
0
40
0
40
0
40
0.058527304730746459
40
0.11445134825667114
40
0.11445134825667114
40
0.11445134825667114
40
0.11445134825667114
10
-57.302358162807927
20
47.620210244398024
30
0
10
-57.291287996871787
20
47.817392455738727
30
0
10
-57.269640059679986
20
48.202986325881852
30
0
10
-57.094580289570317
20
48.546954005958213
30
0
10
-57.009041321682439
20
48.715025975446608
30
0
0
SPLINE
5
305
100
AcDbEntity
8
0
100
AcDbSpline
70
0
71
3
72
9
73
5
74
0
42
0.000000001
43
0.0000000001
44
0.0000000001
40
0
40
0
40
0
40
0
40
0.055164757332175567
40
0.11156680824964181
40
0.11156680824964181
40
0.11156680824964181
40
0.11156680824964181
10
-57.009041321682439
20
48.715025975446608
30
0
10
-56.900505986892199
20
48.866406927471061
30
0
10
-56.681000971907011
20
49.172564163792458
30
0
10
-56.35292924428272
20
49.357985592725775
30
0
10
-56.187074196743474
20
49.451724483709242
30
0
0
SPLINE
5
306
100
AcDbEntity
8
0
100
AcDbSpline
70
0
71
3
72
9
73
5
74
0
42
0.000000001
43
0.0000000001
44
0.0000000001
40
0
40
0
40
0
40
0
40
0.068850065712000641
40
0.15916756790906006
40
0.15916756790906006
40
0.15916756790906006
40
0.15916756790906006
10
-56.187074196743474
20
49.451724483709242
30
0
10
-55.973697655181823
20
49.537476754382048
30
0
10
-55.480413809799899
20
49.73571883628162
30
0
10
-54.9586109397573
20
49.839582483060397
30
0
10
-54.662520897793279
20
49.898518516759779
30
0
0
SPLINE
5
307
100
AcDbEntity
8
0
100
AcDbSpline
70
0
71
3
72
9
73
5
74
0
42
0.000000001
43
0.0000000001
44
0.0000000001
40
0
40
0
40
0
40
0
40
0.11632947675920348
40
0.19227184651654189
40
0.19227184651654189
40
0.19227184651654189
40
0.19227184651654189
10
-54.662520897793279
20
49.898518516759779
30
0
10
-54.280624461414675
20
49.969362224208425
30
0
10
-53.649417865750252
20
50.086454218642693
30
0
10
-53.040726787085845
20
50.289133969485434
30
0
10
-52.800309670376286
20
50.369187190275099
30
0
0
LINE
5
308
100
AcDbEntity
8
0
100
AcDbLine
10
-52.800309670376286
20
50.369187190275106
30
0
11
-52.800309670376286
21
50.560183121900465
31
0
0
SPLINE
5
309
100
AcDbEntity
8
0
100
AcDbSpline
70
0
71
3
72
9
73
5
74
0
42
0.000000001
43
0.0000000001
44
0.0000000001
40
0
40
0
40
0
40
0
40
0.047811709409204831
40
0.08534439586016121
40
0.08534439586016121
40
0.08534439586016121
40
0.08534439586016121
10
-52.800309670376286
20
50.560183121900465
30
0
10
-52.805075700334633
20
50.724687760803988
30
0
10
-52.813583113110113
20
51.018330242884169
30
0
10
-52.993872948764043
20
51.247331092336395
30
0
10
-53.073160660671697
20
51.348040892820265
30
0
0
SPLINE
5
310
100
AcDbEntity
8
0
100
AcDbSpline
70
0
71
3
72
9
73
5
74
0
42
0.000000001
43
0.0000000001
44
0.0000000001
40
0
40
0
40
0
40
0
40
0.043166297705080132
40
0.1070459781899854
40
0.1070459781899854
40
0.1070459781899854
40
0.1070459781899854
10
-53.073160660671697
20
51.348040892820265
30
0
10
-53.202057790459008
20
51.416064789788585
30
0
10
-53.521703441754731
20
51.584753905566352
30
0
10
-53.885860898960303
20
51.583890665847136
30
0
10
-54.103171837734685
20
51.583375527601149
30
0
0
ENDSEC
0
SECTION
2
OBJECTS
0
DICTIONARY
5
C
100
AcDbDictionary
3
ACAD_GROUP
350
D
3
ACAD_MLINESTYLE
350
17
0
DICTIONARY
5
D
100
AcDbDictionary
0
DICTIONARY
5
1A
330
C
100
AcDbDictionary
0
DICTIONARY
5
17
100
AcDbDictionary
0
ENDSEC
0
EOF
